<?xml version="1.0" encoding="utf-8"?>
<!-- Generator: Adobe Illustrator 26.0.3, SVG Export Plug-In . SVG Version: 6.00 Build 0)  -->
<svg version="1.1" id="Layer_1" xmlns="http://www.w3.org/2000/svg" xmlns:xlink="http://www.w3.org/1999/xlink" x="0px" y="0px"
	 viewBox="0 0 20 20" style="enable-background:new 0 0 20 20;" xml:space="preserve">
<style type="text/css">
	.st0{fill:#FFFFFF;}
</style>
<g>
	<path class="st0" d="M17.5,7.2c-0.3,0-0.4,0.1-0.6,0.5c-0.1,0.4-0.2,0.5-0.6,0.7c-0.3,0.1-0.7,0.2-1,0.3L14,9c-0.4,0.2-0.8,0.6-1,1
		c-0.2,0.6-0.2,1.2,0.1,1.8c0.1,0.3,0.2,0.5,0.3,0.8c0.2,0.5-0.1,1.1-0.6,1.3c-0.1,0-0.2,0.1-0.3,0.1h-0.3c-0.6,0-0.8-0.3-0.8-0.9
		c0-0.5,0.1-1,0.3-1.5c0-0.1,0.1-0.3,0.1-0.4c0.1-0.9-0.4-1.8-1.3-2.1c-0.5-0.2-1-0.4-1.6-0.5c-0.6,0-1-0.6-1-1.2V7.3
		c0-0.2,0-0.3,0-0.4V3.1c0-0.4,0-0.8,0-1.3c0-0.2,0.1-0.3,0.2-0.3h0.1h2c2,0,3.9,0,5.9,0c0.5,0,0.6,0.2,0.6,0.7s0,1,0,1.5
		c0,0.1,0,0.3,0,0.4c0,0.2-0.2,0.3-0.3,0.3H9.9H9.5C9.2,4.4,9,4.7,9,5.1c0,0.3,0.3,0.6,0.6,0.6h1.3c1,0,2,0,2.8,0H16
		c0.4,0,0.7,0,1.1-0.2c0.6-0.4,0.9-1,0.8-1.6c0-0.6,0-1.2,0-1.8S17.6,1,17.2,0.7c-0.3-0.2-0.8-0.4-1.2-0.4H8.3c-0.4,0-0.7,0.1-1,0.4
		C7,0.9,6.8,1.3,6.8,1.7v4.9c0,0.4,0,0.9,0,1.3c0,0.2,0.1,0.3,0.2,0.5c0.3,0.7,0.9,1.2,1.7,1.3c0.6,0.1,1.1,0.3,1.6,0.6
		c0.2,0.1,0.4,0.4,0.3,0.6l0,0c-0.1,0.4-0.2,0.7-0.3,1.1c-0.1,0.5-0.1,1,0,1.4c0.1,0.8,0.7,1.4,1.5,1.5c0.3,0,0.5,0.1,0.8,0.1
		c0.5,0,1-0.2,1.4-0.6c0.4-0.3,0.6-0.8,0.7-1.2c0.1-0.6,0-1.2-0.3-1.8c0-0.1,0-0.1-0.1-0.2c0-0.2-0.1-0.3-0.1-0.5
		c-0.1-0.3,0.1-0.5,0.3-0.6c0.3-0.1,0.6-0.3,0.9-0.3l1.3-0.4c0.5-0.1,0.9-0.4,1.2-0.8c0.2-0.3,0.4-0.3,0.3-1
		C18,7.2,17.8,7.2,17.5,7.2z"/>
</g>
<g>
	<path class="st0" d="M12.4,17.9H9.1c-0.3,0-0.6,0.3-0.6,0.6v0.7c0,0.3,0.3,0.6,0.6,0.6h3.2c0.3,0,0.6-0.3,0.6-0.6v-0.7
		C13,18.1,12.7,17.9,12.4,17.9z"/>
	<path class="st0" d="M14.8,17.9h-0.7c-0.3,0-0.6,0.3-0.6,0.6v0.7c0,0.3,0.3,0.6,0.6,0.6h0.7c0.3,0,0.6-0.3,0.6-0.6v-0.7
		C15.4,18.1,15.1,17.9,14.8,17.9z"/>
	<path class="st0" d="M17.2,17.9h-0.7c-0.3,0-0.6,0.3-0.6,0.6v0.7c0,0.3,0.3,0.6,0.6,0.6h0.7c0.3,0,0.6-0.3,0.6-0.6v-0.7
		C17.8,18.1,17.6,17.9,17.2,17.9z"/>
	<path class="st0" d="M7.4,17.9H3.9v-6.6c0-0.3-0.3-0.6-0.6-0.6H2.5c-0.3,0-0.6,0.3-0.6,0.6v7.2v0.7c0,0.3,0.3,0.6,0.6,0.6h0.7h4.1
		c0.3,0,0.6-0.3,0.6-0.6v-0.7C8,18.1,7.7,17.9,7.4,17.9z"/>
</g>
</svg>
