<?xml version="1.0" encoding="utf-8"?>
<!-- Generator: Adobe Illustrator 26.0.3, SVG Export Plug-In . SVG Version: 6.00 Build 0)  -->
<svg version="1.1" id="Layer_1" xmlns="http://www.w3.org/2000/svg" xmlns:xlink="http://www.w3.org/1999/xlink" x="0px" y="0px"
	 viewBox="0 0 512.9 512.8" style="enable-background:new 0 0 512.9 512.8;" xml:space="preserve">
<style type="text/css">
	.st0{fill:url(#SVGID_1_);}
	.st1{fill:#FCFDFD;}
	.st2{fill:#148CBB;}
</style>
<linearGradient id="SVGID_1_" gradientUnits="userSpaceOnUse" x1="20.4616" y1="22.2359" x2="492.3819" y2="-449.6745" gradientTransform="matrix(1 0 0 1 0 470)">
	<stop  offset="0" style="stop-color:#31BDFF"/>
	<stop  offset="1" style="stop-color:#316BE6"/>
</linearGradient>
<path class="st0" d="M512.6,407.8c0-16,0-32,0-48v-84c0-8,0.2-16,0.2-24c0-59.6,0-119.3,0-178.9c0-37.4-21.7-64.2-58.4-72
	c-0.7-0.1-1.3-0.2-1.5-1H60c-5.1,1.6-10.2,3.2-15.2,4.8C43.2,5.4,41.6,6.2,40,7l0,0C24.5,14,13.6,25.5,6.6,40.8
	c-4,5.8-3.8,13-6.6,19.2v392.8c1.7,2.4,1.6,5.3,2.3,7.9c8,30.2,35.4,51.8,66.7,52c39,0.2,77.9,0,116.9-0.1h254.9
	c8,0.5,16.1-0.7,23.6-3.5c10.1-3.3,19.4-8.2,26.8-16.1c5.1-4,8.5-9.4,11.7-14.9c5.5-8.4,8.7-18.1,9.3-28.2
	C513.4,435.8,512.6,421.8,512.6,407.8z"/>
<path class="st1" d="M367.4,202.8c-6.5-0.6-10.8,2.6-13.8,10.3c0,9.1-1.2,11-9.7,13.9c-6.7,2.4-13.6,4.2-20.7,5.4l-25.5,7.8
	c-8.5,4.2-14.7,10.7-19.1,18.9c-5.1,12.4-2,24.6,1.2,36.8c1.9,5.1,4,10.1,5.7,15.3c4,12.2-5.2,25.2-18.1,25.8c-1.7,0-3.3,0-5-0.1
	c-11.6-0.7-16.3-5.6-16.9-17.2c-0.5-10.2,2.4-19.7,5.3-29.2c0.9-2.8,1.8-5.6,2.7-8.4c2.2-21.2-8.6-34.2-26.9-42.4
	c-10.1-4.5-20.7-7.3-31.2-10.4c-14.6-4.3-18.9-10-18.8-25.1c0-3,0.1-6,0.2-9v-74c-0.1-8.4-0.1-16.9-0.1-25.3c0-4.6,2.3-6.7,6.7-6.7
	l39.2,0.2c38.9,0,77.9-0.2,116.9,0c10.3,0,12.9,3.4,12.7,13.9c-0.2,10,0,20-0.1,30c0,2.8-0.2,5.6-0.6,8.4c-0.6,3.5-2.6,5.8-6.4,5.8
	c-13.1,0-26.3-0.1-39.4-0.2c-18.2,0.1-36.5,0.2-54.7,0.3c-11.8,0-23.5-0.2-35.3-0.3c-2.5,0.1-5,0.1-7.4,0.5
	c-6.9,0.9-11.7,6.4-11.4,12.9c0.3,6.6,5.8,11.9,12.4,11.9c8.8,0.3,17.6,0.3,26.4,0.4c19-0.6,38-0.6,57,0c15.4-0.1,30.9-0.4,46.3-0.3
	c7.4,0,14.5-0.5,21.4-3.6c12.2-7.7,16.8-19.2,16.9-33c0.1-12.2,0.3-24.3,0.1-36.5c-0.2-11.6-4.3-21.5-14.1-28.3
	c-7.1-4.9-15.1-6.9-23.6-6.9c-16.3-0.1-32.6,0-49,0c-31,0-62-0.1-92.9-0.2c-5.1,0.1-10.2,0.1-15.4,0.2c-7.4,0.2-14.6,2.7-20.5,7.2
	c-5.8,5.9-9.4,13.5-10.2,21.7v29v70c0.6,8.6-0.6,17.2,0.9,25.7c0.3,3.4,1.9,6.2,3.2,9.2c6.8,15.2,19,23.3,34.9,27
	c11.3,2.6,22.6,5.5,32.5,12.1c5.4,3.6,7.2,7.5,5.2,13.2c-2.6,7.1-4.3,14.5-6.5,21.7c-1.2,9.6-1.9,19.3-0.2,29
	c4.2,15.8,13.4,26.7,29.8,30.5c5.4,1.3,10.8,1.3,16.3,1.6c10.8-0.7,20.2-4.7,28.7-11.3c7.1-6.8,12.1-15.4,14.5-24.9
	c2.9-12.9-2.2-24.3-6.3-36c-0.4-1.2-0.7-2.5-1-3.8c-1.1-3.1-2-6.2-2.8-9.4c-1.1-5.6,0.9-9.5,6-12.5c5.4-3.2,11.3-4.6,17.3-6l26.6-7
	c9.1-3.1,16.9-8,22.6-15.8c3.6-6.2,5.5-13.2,5.5-20.4C377.3,207.4,373.6,203.4,367.4,202.8z"/>
<path class="st1" d="M158.8,414.9l-62-0.1c-0.6,0.1-0.8-0.1-0.7-0.7c0-13.7,0-27.4,0-41v-54C96,307,96,294.8,95.8,282.7
	c-0.1-7.8-4.8-12.5-12.2-12.5c-5.5,0-11-0.1-16.5,0c-6.1,0.1-11,4.9-11.3,11c-0.2,3.6-0.1,7.3-0.2,11c0,13,0,26,0,39v111
	c0.8,9,4.9,12.5,15.2,13.1c30.2-0.1,60.4-0.2,90.7-0.1c5.6,0,10-1.6,13.2-6.2c2.2-7.9,0.4-15.9,1.2-23.9
	C173.6,415.9,166.6,414.8,158.8,414.9z"/>
<path class="st1" d="M258.1,415c-5.1,0-10.2-0.1-15.4-0.2c-15.6,0.1-31.2,0.1-46.8,0.2c-8.3,0-12.3,3.6-13.4,12
	c0,4.6,0.1,9.3,0.2,13.9c0.1,8.7,4.5,13.4,13.2,13.5c10.2,0.2,20.5,0.2,30.8,0.4c10.3-0.1,20.5-0.2,30.8-0.4
	c7.6-0.1,11.7-3.3,13.4-10.6c0.7-2.9,0.5-5.9,0.8-8.9c-0.1-2.3-0.1-4.6-0.2-6.9C271.2,419.9,266.2,415.1,258.1,415z"/>
<path class="st1" d="M307,415.1c-5.1,0-10.3,0-15.5,0c-5.7,0-9.1,2.7-11,8.2c-1.7,4.9-0.2,9.9-1,14.8c0.1,1.6,0.1,3.3,0.2,4.9
	c0.1,5.3,3.6,10.8,8.8,11.4c8.3,1,16.7,2,24.9-1c3.5-2.4,5.7-5.7,5.8-9.9c0.3-5.8,0.3-11.6,0-17.4C318.8,419,314,415.1,307,415.1z"
	/>
<path class="st1" d="M356.1,415.1c-4.1-0.1-8.3-0.1-12.5-0.2c-5.8-0.1-11.7-0.2-14.7,6.3c-1.8,7.7-1.2,15.6-0.7,23.4
	c0.4,6,5.4,10.2,11.5,10.4c5.3,0.2,10.7,0.2,16,0c6.2-0.2,9.9-3.6,11.2-9.9c-0.1-6.5-0.1-13-0.2-19.4
	C366.6,419.3,362.5,415.2,356.1,415.1z"/>
<path class="st2" d="M96.1,414.1c0.3,0.2,0.5,0.5,0.7,0.7C96.1,415,95.9,414.7,96.1,414.1z"/>
</svg>
