<svg id="Layer_1" data-name="Layer 1" xmlns="http://www.w3.org/2000/svg" viewBox="0 0 200 130"><rect x="0.75" y="0.75" width="198.5" height="128.5" rx="13.4" style="fill:#fff"/><path d="M185.85,1.5A12.66,12.66,0,0,1,198.5,14.15v101.7a12.66,12.66,0,0,1-12.65,12.65H14.15A12.66,12.66,0,0,1,1.5,115.85V14.15A12.66,12.66,0,0,1,14.15,1.5h171.7m0-1.5H14.15A14.14,14.14,0,0,0,0,14.15v101.7A14.14,14.14,0,0,0,14.15,130h171.7A14.14,14.14,0,0,0,200,115.85V14.15A14.14,14.14,0,0,0,185.85,0Z" style="fill:#61008e"/><rect x="25.11" y="56.08" width="149.79" height="13.46" style="fill:#bb9dce"/><line x1="35.02" y1="62.69" x2="65.51" y2="62.69" style="fill:none;stroke:#fff;stroke-miterlimit:10;stroke-width:2px"/><line x1="70.65" y1="62.69" x2="81.68" y2="62.69" style="fill:none;stroke:#fff;stroke-miterlimit:10;stroke-width:2px"/><polyline points="160 61.56 162.56 64.12 165.18 61.5" style="fill:none;stroke:#61008e;stroke-linecap:round;stroke-linejoin:round"/><path d="M36.25,15.37H163.69a10.57,10.57,0,0,1,10.57,10.57v3.24a.08.08,0,0,1-.08.08H25.76a.08.08,0,0,1-.08-.08V25.94A10.57,10.57,0,0,1,36.25,15.37Z" style="fill:#fff"/><rect x="25.11" y="29.15" width="149.79" height="13.46" style="fill:#bb9dce"/><rect x="25.06" y="42.61" width="149.79" height="13.46" style="fill:#fff"/><path d="M164.1,14.43v1.19a9.62,9.62,0,0,1,9.6,9.6v79.5a9.62,9.62,0,0,1-9.6,9.61H35.9a9.62,9.62,0,0,1-9.6-9.61V25.22a9.62,9.62,0,0,1,9.6-9.6H164.1V14.43m0,0H35.9A10.79,10.79,0,0,0,25.11,25.22v79.5a10.79,10.79,0,0,0,10.79,10.8H164.1a10.79,10.79,0,0,0,10.79-10.8V25.22A10.79,10.79,0,0,0,164.1,14.43Z" style="fill:#61008e"/><line x1="35.02" y1="22.32" x2="65.51" y2="22.32" style="fill:none;stroke:#61008e;stroke-miterlimit:10;stroke-width:2px"/><line x1="70.65" y1="22.32" x2="81.68" y2="22.32" style="fill:none;stroke:#61008e;stroke-miterlimit:10;stroke-width:2px"/><polyline points="160 21.18 162.56 23.74 165.18 21.12" style="fill:none;stroke:#61008e;stroke-linecap:round;stroke-linejoin:round"/><line x1="35.02" y1="35.77" x2="65.51" y2="35.77" style="fill:none;stroke:#fff;stroke-miterlimit:10;stroke-width:2px"/><line x1="70.65" y1="35.77" x2="81.68" y2="35.77" style="fill:none;stroke:#fff;stroke-miterlimit:10;stroke-width:2px"/><polyline points="160 34.63 162.56 37.19 165.18 34.57" style="fill:none;stroke:#61008e;stroke-linecap:round;stroke-linejoin:round"/><line x1="35.02" y1="75.71" x2="65.51" y2="75.71" style="fill:none;stroke:#61008e;stroke-miterlimit:10;stroke-width:2px"/><line x1="70.65" y1="75.71" x2="81.68" y2="75.71" style="fill:none;stroke:#61008e;stroke-miterlimit:10;stroke-width:2px"/><polyline points="165.18 77.07 162.62 74.51 160 77.13" style="fill:none;stroke:#61008e;stroke-linecap:round;stroke-linejoin:round"/><line x1="34.98" y1="49.23" x2="65.46" y2="49.23" style="fill:none;stroke:#61008e;stroke-miterlimit:10;stroke-width:2px"/><line x1="70.61" y1="49.23" x2="81.63" y2="49.23" style="fill:none;stroke:#61008e;stroke-miterlimit:10;stroke-width:2px"/><polyline points="159.96 48.09 162.52 50.65 165.14 48.03" style="fill:none;stroke:#61008e;stroke-linecap:round;stroke-linejoin:round"/><path d="M151.63,91.45h-3.1a1.08,1.08,0,0,0-1.08,1.08v3.1a1.09,1.09,0,0,0,1.08,1.08h.88V94.47h-.75v-1h.75v-.59a1,1,0,0,1,1.09-1.19,3,3,0,0,1,.64,0v.72h-.37c-.37,0-.37.26-.37.52v.5h.8l-.11,1h-.69v2.24h1.23a1.08,1.08,0,0,0,1.08-1.08v-3.1A1.08,1.08,0,0,0,151.63,91.45Z" style="fill:#61008e"/><path d="M156.87,93.45a.63.63,0,1,0,.63.63A.63.63,0,0,0,156.87,93.45Z" style="fill:#61008e"/><path d="M157.63,92.56c-1.65-.08-1.89,0-2.08.2a.8.8,0,0,0-.2.56,9.82,9.82,0,0,0,.06,1.86.62.62,0,0,0,.36.35.89.89,0,0,0,.35.07c1.65.07,2,0,2.21-.42a1,1,0,0,0,.07-.35c.07-1.64,0-1.88-.21-2.07A.8.8,0,0,0,157.63,92.56ZM156.87,95a1,1,0,1,1,1-1A1,1,0,0,1,156.87,95Zm1-1.74a.22.22,0,0,1,0-.44.22.22,0,1,1,0,.44Z" style="fill:#61008e"/><path d="M158.43,91.45h-3.1a1.08,1.08,0,0,0-1.08,1.08v3.1a1.08,1.08,0,0,0,1.08,1.08h3.1a1.09,1.09,0,0,0,1.08-1.08v-3.1A1.08,1.08,0,0,0,158.43,91.45Zm.3,3.4a1.66,1.66,0,0,1-.08.45c-.26.67-.88.71-2.55.63a1.58,1.58,0,0,1-.45-.08,1,1,0,0,1-.55-.55,8.73,8.73,0,0,1-.09-2,1.17,1.17,0,0,1,.3-.79,1.13,1.13,0,0,1,.79-.3c1.83-.08,2.1.07,2.33.3S158.81,93.17,158.73,94.85Z" style="fill:#61008e"/><path d="M165.22,91.45h-3.1A1.08,1.08,0,0,0,161,92.53v3.1a1.09,1.09,0,0,0,1.08,1.08h3.1a1.08,1.08,0,0,0,1.08-1.08v-3.1A1.08,1.08,0,0,0,165.22,91.45ZM164,95.12a1.83,1.83,0,0,1-.6-.2,1.92,1.92,0,0,1-.69,1.33A6,6,0,0,1,163,94c-.25-.42,0-1.27.56-1.06s-.52,1.5.3,1.66,1.17-1.29.64-1.83c-.77-.76-2.3-.11-2.06,1a.45.45,0,0,1-.24.56c-.26-.11-.29-.48-.27-.84a1.65,1.65,0,0,1,1.49-1.5,1.61,1.61,0,0,1,1.92,1.19C165.5,94.08,165,95.2,164,95.12Z" style="fill:#61008e"/><rect x="35.38" y="82.07" width="24.53" height="24.31" rx="2.94" style="fill:#fff"/><path d="M57,82.38A2.64,2.64,0,0,1,59.61,85v18.42A2.64,2.64,0,0,1,57,106.08H38.33a2.65,2.65,0,0,1-2.65-2.64V85a2.65,2.65,0,0,1,2.65-2.64H57m0-.6H38.33A3.24,3.24,0,0,0,35.08,85v18.42a3.24,3.24,0,0,0,3.25,3.24H57a3.24,3.24,0,0,0,3.24-3.24V85A3.24,3.24,0,0,0,57,81.78Z" style="fill:#61008e"/><polyline points="35.45 97.88 41.94 92.5 47.46 96.89 54.26 89.89 59.73 95.92" style="fill:none;stroke:#61008e;stroke-linecap:round;stroke-linejoin:round;stroke-width:0.6000000000000001px"/><circle cx="43.76" cy="88.04" r="3.11" style="fill:none;stroke:#61008e;stroke-miterlimit:10;stroke-width:0.6000000000000001px"/><line x1="70.09" y1="97.69" x2="123.24" y2="97.69" style="fill:none;stroke:#61008e;stroke-linecap:round;stroke-linejoin:round;stroke-width:1.5px"/><line x1="70.09" y1="102.36" x2="139.33" y2="102.36" style="fill:none;stroke:#61008e;stroke-linecap:round;stroke-linejoin:round;stroke-width:1.5px"/><line x1="69.39" y1="89.33" x2="136.61" y2="89.33" style="fill:none;stroke:#61008e;stroke-miterlimit:10;stroke-width:6px"/></svg>