<svg id="Layer_1" data-name="Layer 1" xmlns="http://www.w3.org/2000/svg" xmlns:xlink="http://www.w3.org/1999/xlink" viewBox="0 0 200 130"><defs><clipPath id="clip-path"><path d="M10.64,166.84H89.89A1.13,1.13,0,0,1,91,168V292a1.13,1.13,0,0,1-1.13,1.13H12.31A13.83,13.83,0,0,1-1.52,279.28V179A12.16,12.16,0,0,1,10.64,166.84Z" style="fill:none"/></clipPath></defs><g style="clip-path:url(#clip-path)"><polygon points="38.81 140.13 29.06 131.55 40.78 118.58 50.53 127.16 38.81 140.13" style="fill:#bb9dce;fill-rule:evenodd"/><polygon points="56.87 120.13 47.13 111.55 58.84 98.58 68.59 107.16 56.87 120.13" style="fill:#bb9dce;fill-rule:evenodd"/><polygon points="71.06 132.61 61.31 124.03 73.03 111.06 82.78 119.64 71.06 132.61" style="fill:#bb9dce;fill-rule:evenodd"/><polygon points="102.05 137.19 105.16 139.93 115.98 127.95 102.83 116.38 80.4 141.22 90.44 150.05 102.05 137.19" style="fill:#bb9dce;fill-rule:evenodd"/></g><rect x="0.75" y="0.75" width="198.5" height="128.5" rx="13.4" style="fill:#fff"/><path d="M185.85,1.5A12.66,12.66,0,0,1,198.5,14.15v101.7a12.66,12.66,0,0,1-12.65,12.65H14.15A12.66,12.66,0,0,1,1.5,115.85V14.15A12.66,12.66,0,0,1,14.15,1.5h171.7m0-1.5H14.15A14.14,14.14,0,0,0,0,14.15v101.7A14.14,14.14,0,0,0,14.15,130h171.7A14.14,14.14,0,0,0,200,115.85V14.15A14.14,14.14,0,0,0,185.85,0Z" style="fill:#61008e"/><path d="M118.52,23.08v1.19a2.68,2.68,0,0,1,2.67,2.67V63.1a2.68,2.68,0,0,1-2.67,2.67H82A2.68,2.68,0,0,1,79.3,63.1V26.94A2.68,2.68,0,0,1,82,24.27h36.55V23.08m0,0H82a3.86,3.86,0,0,0-3.86,3.86V63.1A3.86,3.86,0,0,0,82,67h36.55a3.86,3.86,0,0,0,3.86-3.86V26.94a3.86,3.86,0,0,0-3.86-3.86Z" style="fill:#61008e"/><line x1="84.1" y1="72.95" x2="116.92" y2="72.95" style="fill:none;stroke:#61008e;stroke-linecap:round;stroke-linejoin:round;stroke-width:1.5px"/><line x1="84.1" y1="78.95" x2="116.92" y2="78.95" style="fill:none;stroke:#61008e;stroke-linecap:round;stroke-linejoin:round;stroke-width:1.5px"/><path d="M78.75,51.45l10.36-8.6a1.73,1.73,0,0,1,2.16,0l7.43,5.91a1.71,1.71,0,0,0,2.29-.15l9.63-9.9a1.71,1.71,0,0,1,2.49,0L121.54,48" style="fill:none;stroke:#61008e;stroke-linecap:round;stroke-linejoin:round;stroke-width:0.933717804396951px"/><circle cx="93.39" cy="34.11" r="5.47" style="fill:none;stroke:#61008e;stroke-miterlimit:10;stroke-width:0.933717804396951px"/><path d="M95,83.94H91.48a1.23,1.23,0,0,0-1.23,1.23V88.7a1.23,1.23,0,0,0,1.23,1.23h1V87.39h-.85V86.23h.85v-.66a1.19,1.19,0,0,1,1.24-1.36,5.06,5.06,0,0,1,.73,0v.82H94c-.42,0-.43.3-.43.6v.56h.92l-.13,1.16h-.79v2.54H95a1.23,1.23,0,0,0,1.23-1.23V85.17A1.23,1.23,0,0,0,95,83.94Z" style="fill:#61008e"/><path d="M101,86.23a.71.71,0,1,0,0,1.41.71.71,0,1,0,0-1.41Z" style="fill:#61008e"/><path d="M101.83,85.2c-1.88-.08-2.15,0-2.37.24a.9.9,0,0,0-.23.64,10.9,10.9,0,0,0,.08,2.11.66.66,0,0,0,.4.4,1,1,0,0,0,.4.07c1.88.09,2.32,0,2.52-.47a1.24,1.24,0,0,0,.07-.4c.09-1.86,0-2.14-.23-2.35A1,1,0,0,0,101.83,85.2ZM101,88a1.1,1.1,0,1,1,1.09-1.1A1.1,1.1,0,0,1,101,88Zm1.13-2a.26.26,0,0,1-.25-.26.26.26,0,0,1,.51,0A.26.26,0,0,1,102.1,86.06Z" style="fill:#61008e"/><path d="M102.73,83.94H99.21A1.23,1.23,0,0,0,98,85.17V88.7a1.23,1.23,0,0,0,1.23,1.23h3.52A1.23,1.23,0,0,0,104,88.7V85.17A1.23,1.23,0,0,0,102.73,83.94Zm.35,3.87a1.68,1.68,0,0,1-.09.52c-.3.76-1,.8-2.9.72a1.65,1.65,0,0,1-.52-.1,1.08,1.08,0,0,1-.62-.62,10.09,10.09,0,0,1-.1-2.27,1.24,1.24,0,0,1,.34-.89,1.29,1.29,0,0,1,.9-.35c2.08-.09,2.39.08,2.65.35S103.17,85.91,103.08,87.81Z" style="fill:#61008e"/><path d="M110.47,83.94h-3.53a1.23,1.23,0,0,0-1.23,1.23V88.7a1.23,1.23,0,0,0,1.23,1.23h3.53a1.23,1.23,0,0,0,1.23-1.23V85.17A1.23,1.23,0,0,0,110.47,83.94Zm-1.42,4.18a2.12,2.12,0,0,1-.68-.22,2.14,2.14,0,0,1-.78,1.51,6.79,6.79,0,0,1,.38-2.62c-.28-.48,0-1.44.64-1.2.75.29-.59,1.7.35,1.89s1.32-1.48.72-2.08c-.88-.88-2.62-.14-2.35,1.1a.53.53,0,0,1-.26.65c-.3-.13-.33-.55-.32-1a1.88,1.88,0,0,1,1.7-1.71,1.83,1.83,0,0,1,2.19,1.36C110.79,86.94,110.18,88.21,109.05,88.12Z" style="fill:#61008e"/><path d="M66.75,23.08v1.19a2.68,2.68,0,0,1,2.68,2.67V63.1a2.68,2.68,0,0,1-2.68,2.67H30.21a2.68,2.68,0,0,1-2.68-2.67V26.94a2.68,2.68,0,0,1,2.68-2.67H66.75V23.08m0,0H30.21a3.86,3.86,0,0,0-3.87,3.86V63.1A3.86,3.86,0,0,0,30.21,67H66.75a3.86,3.86,0,0,0,3.87-3.86V26.94a3.86,3.86,0,0,0-3.87-3.86Z" style="fill:#61008e"/><line x1="32.33" y1="72.95" x2="65.15" y2="72.95" style="fill:none;stroke:#61008e;stroke-linecap:round;stroke-linejoin:round;stroke-width:1.5px"/><line x1="32.33" y1="78.95" x2="65.15" y2="78.95" style="fill:none;stroke:#61008e;stroke-linecap:round;stroke-linejoin:round;stroke-width:1.5px"/><path d="M27,51.45l10.37-8.6a1.72,1.72,0,0,1,2.15,0l7.44,5.91a1.69,1.69,0,0,0,2.28-.15l9.64-9.9a1.71,1.71,0,0,1,2.49,0L69.78,48" style="fill:none;stroke:#61008e;stroke-linecap:round;stroke-linejoin:round;stroke-width:0.933717804396951px"/><circle cx="41.62" cy="34.11" r="5.47" style="fill:none;stroke:#61008e;stroke-miterlimit:10;stroke-width:0.933717804396951px"/><path d="M43.24,83.94H39.71a1.23,1.23,0,0,0-1.23,1.23V88.7a1.23,1.23,0,0,0,1.23,1.23h1V87.39h-.84V86.23h.84v-.66A1.19,1.19,0,0,1,42,84.21a5,5,0,0,1,.72,0v.82h-.42c-.41,0-.42.3-.42.6v.56h.92l-.13,1.16h-.79v2.54h1.41a1.23,1.23,0,0,0,1.23-1.23V85.17A1.23,1.23,0,0,0,43.24,83.94Z" style="fill:#61008e"/><path d="M49.2,86.23a.71.71,0,1,0,.71.7A.7.7,0,0,0,49.2,86.23Z" style="fill:#61008e"/><path d="M50.06,85.2c-1.87-.08-2.15,0-2.36.24a.9.9,0,0,0-.23.64,10.86,10.86,0,0,0,.07,2.11.68.68,0,0,0,.41.4.92.92,0,0,0,.39.07c1.89.09,2.33,0,2.52-.47a1.18,1.18,0,0,0,.08-.4c.08-1.86,0-2.14-.24-2.35A1,1,0,0,0,50.06,85.2ZM49.2,88a1.1,1.1,0,1,1,1.1-1.1A1.09,1.09,0,0,1,49.2,88Zm1.14-2a.26.26,0,0,1-.26-.26.26.26,0,0,1,.26-.25.25.25,0,0,1,.25.25A.26.26,0,0,1,50.34,86.06Z" style="fill:#61008e"/><path d="M51,83.94H47.45a1.23,1.23,0,0,0-1.24,1.23V88.7a1.23,1.23,0,0,0,1.24,1.23H51A1.23,1.23,0,0,0,52.2,88.7V85.17A1.23,1.23,0,0,0,51,83.94Zm.35,3.87a1.65,1.65,0,0,1-.1.52c-.3.76-1,.8-2.9.72a1.58,1.58,0,0,1-.51-.1,1.13,1.13,0,0,1-.63-.62,10.72,10.72,0,0,1-.1-2.27,1.2,1.2,0,0,1,1.24-1.24c2.08-.09,2.39.08,2.65.35S51.41,85.91,51.32,87.81Z" style="fill:#61008e"/><path d="M58.7,83.94H55.18A1.23,1.23,0,0,0,54,85.17V88.7a1.23,1.23,0,0,0,1.23,1.23H58.7a1.23,1.23,0,0,0,1.23-1.23V85.17A1.23,1.23,0,0,0,58.7,83.94Zm-1.41,4.18a2.12,2.12,0,0,1-.69-.22,2.14,2.14,0,0,1-.78,1.51,7,7,0,0,1,.39-2.62c-.29-.48,0-1.44.64-1.2s-.59,1.7.34,1.89,1.33-1.48.72-2.08c-.87-.88-2.61-.14-2.34,1.1a.53.53,0,0,1-.27.65c-.3-.13-.33-.55-.31-1a1.87,1.87,0,0,1,1.7-1.71,1.82,1.82,0,0,1,2.18,1.36C59,86.94,58.41,88.21,57.29,88.12Z" style="fill:#61008e"/><path d="M133.74,23.08v1.19h36.54A2.68,2.68,0,0,1,173,26.94V63.1a2.68,2.68,0,0,1-2.68,2.67H133.74a2.68,2.68,0,0,1-2.68-2.67V26.94a2.68,2.68,0,0,1,2.68-2.67V23.08m0,0a3.86,3.86,0,0,0-3.87,3.86V63.1A3.86,3.86,0,0,0,133.74,67h36.54a3.86,3.86,0,0,0,3.87-3.86V26.94a3.86,3.86,0,0,0-3.87-3.86Z" style="fill:#61008e"/><line x1="135.86" y1="72.95" x2="168.68" y2="72.95" style="fill:none;stroke:#61008e;stroke-linecap:round;stroke-linejoin:round;stroke-width:1.5px"/><line x1="135.86" y1="78.95" x2="168.68" y2="78.95" style="fill:none;stroke:#61008e;stroke-linecap:round;stroke-linejoin:round;stroke-width:1.5px"/><path d="M130.51,51.45l10.37-8.6a1.72,1.72,0,0,1,2.15,0l7.44,5.91a1.69,1.69,0,0,0,2.28-.15l9.64-9.9a1.71,1.71,0,0,1,2.49,0L173.3,48" style="fill:none;stroke:#61008e;stroke-linecap:round;stroke-linejoin:round;stroke-width:0.933717804396951px"/><circle cx="145.15" cy="34.11" r="5.47" style="fill:none;stroke:#61008e;stroke-miterlimit:10;stroke-width:0.933717804396951px"/><path d="M146.77,83.94h-3.53A1.23,1.23,0,0,0,142,85.17V88.7a1.23,1.23,0,0,0,1.23,1.23h1V87.39h-.84V86.23h.84v-.66a1.19,1.19,0,0,1,1.25-1.36,5,5,0,0,1,.72,0v.82h-.42c-.41,0-.42.3-.42.6v.56h.92l-.13,1.16h-.79v2.54h1.41A1.23,1.23,0,0,0,148,88.7V85.17A1.23,1.23,0,0,0,146.77,83.94Z" style="fill:#61008e"/><path d="M152.73,86.23a.71.71,0,1,0,.71.7A.7.7,0,0,0,152.73,86.23Z" style="fill:#61008e"/><path d="M153.59,85.2c-1.87-.08-2.15,0-2.36.24a.9.9,0,0,0-.23.64,10.84,10.84,0,0,0,.07,2.11.69.69,0,0,0,.4.4,1,1,0,0,0,.4.07c1.89.09,2.33,0,2.52-.47a1.18,1.18,0,0,0,.08-.4c.08-1.86,0-2.14-.24-2.35A1,1,0,0,0,153.59,85.2ZM152.73,88a1.1,1.1,0,1,1,1.1-1.1A1.09,1.09,0,0,1,152.73,88Zm1.14-2a.26.26,0,0,1-.26-.26.26.26,0,0,1,.26-.25.25.25,0,0,1,.25.25A.26.26,0,0,1,153.87,86.06Z" style="fill:#61008e"/><path d="M154.5,83.94H151a1.23,1.23,0,0,0-1.23,1.23V88.7A1.23,1.23,0,0,0,151,89.93h3.53a1.23,1.23,0,0,0,1.23-1.23V85.17A1.23,1.23,0,0,0,154.5,83.94Zm.35,3.87a1.65,1.65,0,0,1-.1.52c-.3.76-1,.8-2.9.72a1.58,1.58,0,0,1-.51-.1,1.1,1.1,0,0,1-.63-.62,10.72,10.72,0,0,1-.1-2.27,1.2,1.2,0,0,1,1.24-1.24c2.08-.09,2.39.08,2.65.35S154.94,85.91,154.85,87.81Z" style="fill:#61008e"/><path d="M162.23,83.94h-3.52a1.23,1.23,0,0,0-1.23,1.24V88.7a1.23,1.23,0,0,0,1.23,1.23h3.52a1.23,1.23,0,0,0,1.23-1.23V85.18A1.23,1.23,0,0,0,162.23,83.94Zm-1.41,4.18a2.12,2.12,0,0,1-.69-.22,2.14,2.14,0,0,1-.78,1.51,7,7,0,0,1,.39-2.62c-.29-.48,0-1.44.64-1.2s-.59,1.7.34,1.89,1.33-1.48.72-2.08c-.87-.88-2.61-.14-2.34,1.1a.53.53,0,0,1-.27.65c-.3-.13-.33-.55-.31-1a1.87,1.87,0,0,1,1.7-1.71,1.82,1.82,0,0,1,2.18,1.36C162.55,86.94,161.94,88.21,160.82,88.12Z" style="fill:#61008e"/><path d="M15.1,39.27l-4.65,4.65a1.59,1.59,0,0,0,0,2.26l4.65,4.65" style="fill:none;stroke:#61008e;stroke-linecap:round;stroke-linejoin:round;stroke-width:1.75130069255829px"/><path d="M185.69,51.83l4.65-4.65a1.59,1.59,0,0,0,0-2.26l-4.65-4.65" style="fill:none;stroke:#61008e;stroke-linecap:round;stroke-linejoin:round;stroke-width:1.75130069255829px"/><circle cx="85.34" cy="113.47" r="3.5" style="fill:#61008e"/><circle cx="100.67" cy="113.47" r="3.5" style="fill:#61008e"/><circle cx="116.01" cy="113.47" r="3.5" style="fill:#61008e"/></svg>