<svg id="Layer_1" data-name="Layer 1" xmlns="http://www.w3.org/2000/svg" xmlns:xlink="http://www.w3.org/1999/xlink" viewBox="0 0 200 130"><defs><clipPath id="clip-path"><path d="M13.2-157.61H92.46a1.13,1.13,0,0,1,1.13,1.13v124a1.13,1.13,0,0,1-1.13,1.13H14.87A13.83,13.83,0,0,1,1-45.18V-145.46A12.16,12.16,0,0,1,13.2-157.61Z" style="fill:none"/></clipPath></defs><g style="clip-path:url(#clip-path)"><polygon points="77.26 7.94 67.51 -0.64 79.23 -13.61 88.98 -5.03 77.26 7.94" style="fill:#bb9dce;fill-rule:evenodd"/><polygon points="91.44 20.42 81.69 11.85 93.41 -1.13 103.16 7.45 91.44 20.42" style="fill:#bb9dce;fill-rule:evenodd"/><polygon points="109.51 0.42 99.76 -8.15 111.48 -21.13 121.23 -12.55 109.51 0.42" style="fill:#bb9dce;fill-rule:evenodd"/><polygon points="130.33 54.65 120.58 46.07 132.3 33.09 142.05 41.67 130.33 54.65" style="fill:#bb9dce;fill-rule:evenodd"/><polygon points="144.51 67.13 134.76 58.55 146.48 45.57 156.23 54.15 144.51 67.13" style="fill:#bb9dce;fill-rule:evenodd"/><polygon points="110.99 37.63 101.24 29.05 112.96 16.07 122.71 24.65 110.99 37.63" style="fill:#bb9dce;fill-rule:evenodd"/><polygon points="162.83 47.34 138.2 25.67 149.92 12.7 174.55 34.37 162.83 47.34" style="fill:#bb9dce;fill-rule:evenodd"/><polygon points="150.99 -6.61 184.98 23.3 205.57 0.51 161.55 -38.23 118.85 9.03 128.89 17.86 150.99 -6.61" style="fill:#bb9dce;fill-rule:evenodd"/></g><rect x="0.75" y="0.75" width="198.5" height="128.5" rx="13.4" style="fill:#fff"/><path d="M185.85,1.5A12.66,12.66,0,0,1,198.5,14.15v101.7a12.66,12.66,0,0,1-12.65,12.65H14.15A12.66,12.66,0,0,1,1.5,115.85V14.15A12.66,12.66,0,0,1,14.15,1.5h171.7m0-1.5H14.15A14.14,14.14,0,0,0,0,14.15v101.7A14.14,14.14,0,0,0,14.15,130h171.7A14.14,14.14,0,0,0,200,115.85V14.15A14.14,14.14,0,0,0,185.85,0Z" style="fill:#61008e"/><path d="M98,84.49a4.25,4.25,0,0,1-3-1.29l-25.69-25a6.09,6.09,0,0,0-8.79,0L26.35,83.54V35.59c0-5.87,3.82-10.64,8.51-10.64H165.63c4.7,0,8.51,4.77,8.51,10.64v44.8L144.87,41a6.48,6.48,0,0,0-5.17-2.77,6.38,6.38,0,0,0-5,2.57L101.4,82.68A4.39,4.39,0,0,1,98,84.49Z" style="fill:#bb9dce"/><path d="M165.63,26c4.14,0,7.51,4.32,7.51,9.64V77.37l-27.47-37a7.19,7.19,0,0,0-11.77-.22L100.62,82.06A3.44,3.44,0,0,1,98,83.49a3.24,3.24,0,0,1-2.27-1L70,57.49a7.09,7.09,0,0,0-10.14,0L27.35,81.56v-46c0-5.32,3.37-9.64,7.51-9.64H165.63m0-2H34.86c-5.25,0-9.51,5.21-9.51,11.64V85.53L61.15,59a5.09,5.09,0,0,1,7.44-.09l25.69,25A5.26,5.26,0,0,0,98,85.49a5.41,5.41,0,0,0,4.23-2.18l33.28-41.93a5.2,5.2,0,0,1,8.6.17l31.08,41.87V35.59c0-6.43-4.26-11.64-9.51-11.64Z" style="fill:#61008e"/><path d="M34.86,101.33a8.52,8.52,0,0,1-8.51-8.51V82.74l35.44-29.4A4.93,4.93,0,0,1,68,53.28L93.66,73.7A7,7,0,0,0,98,75.2a6.84,6.84,0,0,0,5-2.09l33.28-34.23a4.89,4.89,0,0,1,7.14.12l30.82,33.89V92.82a8.52,8.52,0,0,1-8.51,8.51Z" style="fill:#fff"/><path d="M139.7,38.39h0a3.81,3.81,0,0,1,2.88,1.28l30.56,33.61V92.82a7.52,7.52,0,0,1-7.51,7.51H34.86a7.52,7.52,0,0,1-7.51-7.51V83.21l35.08-29.1a4,4,0,0,1,2.49-.89,3.91,3.91,0,0,1,2.43.85L93,74.48a7.9,7.9,0,0,0,10.58-.67L136.9,39.58a3.84,3.84,0,0,1,2.8-1.19m0-2a5.91,5.91,0,0,0-4.24,1.79L102.18,72.41a5.88,5.88,0,0,1-7.9.5L68.59,52.5a5.84,5.84,0,0,0-3.67-1.28,5.91,5.91,0,0,0-3.77,1.35l-35.8,29.7V92.82a9.51,9.51,0,0,0,9.51,9.51H165.63a9.51,9.51,0,0,0,9.51-9.51V72.5L144.06,38.32a5.87,5.87,0,0,0-4.36-1.93Z" style="fill:#61008e"/><line x1="46.22" y1="87.09" x2="85.11" y2="87.09" style="fill:none;stroke:#61008e;stroke-linecap:round;stroke-linejoin:round;stroke-width:1.5px"/><line x1="46.22" y1="93.08" x2="96.89" y2="93.08" style="fill:none;stroke:#61008e;stroke-linecap:round;stroke-linejoin:round;stroke-width:1.5px"/><circle cx="92.31" cy="44.81" r="11.58" style="fill:#fff;stroke:#61008e;stroke-miterlimit:10;stroke-width:2px"/><path d="M143.58,88.74h-3.53A1.24,1.24,0,0,0,138.82,90V93.5a1.23,1.23,0,0,0,1.23,1.23h1V92.19h-.85V91h.85v-.66A1.19,1.19,0,0,1,142.29,89a5.2,5.2,0,0,1,.73,0v.83h-.42c-.42,0-.43.29-.43.59V91h.92L143,92.19h-.79v2.54h1.41a1.23,1.23,0,0,0,1.23-1.23V90A1.24,1.24,0,0,0,143.58,88.74Z" style="fill:#61008e"/><path d="M149.54,91a.71.71,0,0,0-.71.71.71.71,0,1,0,.71-.71Z" style="fill:#61008e"/><path d="M150.4,90c-1.87-.09-2.14,0-2.36.23a.9.9,0,0,0-.23.64,11.66,11.66,0,0,0,.07,2.11.7.7,0,0,0,.41.4,1.1,1.1,0,0,0,.39.08c1.89.08,2.33,0,2.52-.48a1.16,1.16,0,0,0,.08-.39c.08-1.87,0-2.15-.23-2.36A.94.94,0,0,0,150.4,90Zm-.86,2.82a1.1,1.1,0,1,1,1.1-1.09A1.09,1.09,0,0,1,149.54,92.83Zm1.14-2a.26.26,0,0,1-.25-.26.25.25,0,0,1,.25-.25.26.26,0,0,1,.26.25A.26.26,0,0,1,150.68,90.86Z" style="fill:#61008e"/><path d="M151.31,88.74h-3.52A1.24,1.24,0,0,0,146.56,90V93.5a1.23,1.23,0,0,0,1.23,1.23h3.52a1.23,1.23,0,0,0,1.23-1.23V90A1.24,1.24,0,0,0,151.31,88.74Zm.35,3.87a1.41,1.41,0,0,1-.1.52c-.29.76-1,.8-2.89.72a1.59,1.59,0,0,1-.52-.1,1.05,1.05,0,0,1-.62-.62,10.07,10.07,0,0,1-.1-2.27,1.25,1.25,0,0,1,.34-.89,1.27,1.27,0,0,1,.9-.35c2.08-.09,2.38.09,2.65.35S151.75,90.71,151.66,92.61Z" style="fill:#61008e"/><path d="M159,88.74h-3.52A1.24,1.24,0,0,0,154.29,90V93.5a1.23,1.23,0,0,0,1.23,1.23H159a1.23,1.23,0,0,0,1.24-1.23V90A1.24,1.24,0,0,0,159,88.74Zm-1.41,4.18a2,2,0,0,1-.68-.22,2.22,2.22,0,0,1-.78,1.51,6.79,6.79,0,0,1,.38-2.62c-.29-.48,0-1.44.64-1.2.75.29-.59,1.7.34,1.89s1.33-1.48.73-2.08c-.88-.88-2.62-.14-2.35,1.1a.53.53,0,0,1-.26.65c-.3-.13-.33-.55-.32-1a1.89,1.89,0,0,1,1.7-1.71,1.81,1.81,0,0,1,2.18,1.36C159.37,91.74,158.76,93,157.63,92.92Z" style="fill:#61008e"/><line x1="43.86" y1="78.66" x2="93.05" y2="78.66" style="fill:none;stroke:#61008e;stroke-miterlimit:10;stroke-width:6px"/></svg>