<?xml version="1.0" encoding="utf-8"?>
<!-- Generator: Adobe Illustrator 26.0.3, SVG Export Plug-In . SVG Version: 6.00 Build 0)  -->
<svg version="1.1" id="Layer_1" xmlns="http://www.w3.org/2000/svg" xmlns:xlink="http://www.w3.org/1999/xlink" x="0px" y="0px"
	 viewBox="0 0 200 130" style="enable-background:new 0 0 200 130;" xml:space="preserve">
<style type="text/css">
	.st0{fill:#FFFFFF;}
	.st1{fill:#61008E;}
	.st2{fill:none;stroke:#61008E;stroke-linecap:round;stroke-linejoin:round;}
	.st3{fill:#BB9DCE;}
</style>
<path class="st0" d="M14,1.1h171.7c7.4,0,13.4,6,13.4,13.4v101.7c0,7.4-6,13.4-13.4,13.4H14c-7.4,0-13.4-6-13.4-13.4V14.5
	C0.6,7.1,6.6,1.1,14,1.1z"/>
<path class="st1" d="M185.7,1.8c7,0,12.6,5.7,12.6,12.6v101.7c0,7-5.7,12.6-12.6,12.6H14c-7,0-12.6-5.7-12.6-12.6V14.5
	C1.4,7.5,7,1.8,14,1.8H185.7 M185.7,0.3H14C6.2,0.3-0.1,6.7-0.1,14.5v101.7c0,7.8,6.3,14.1,14.1,14.2h171.7
	c7.8,0,14.1-6.3,14.1-14.2V14.5C199.9,6.7,193.5,0.3,185.7,0.3L185.7,0.3z"/>
<path class="st1" d="M74.2,14.7v50H23.7v-50L74.2,14.7 M75.2,13.7H22.7v52h52.4V13.7z"/>
<path class="st2" d="M23.5,47.3l12.3-10.2c0.7-0.6,1.8-0.6,2.5,0l8.8,7c0.8,0.7,2,0.6,2.7-0.2l11.4-11.8c0.7-0.8,2-0.9,2.8-0.1
	c0,0,0.1,0.1,0.1,0.1l10.2,10.6"/>
<path class="st3" d="M40.8,32.8c-2.3,0-4.5-1.4-5.4-3.5c-1.4-3-0.1-6.5,2.9-7.9c3-1.4,6.6-0.1,7.9,2.9c1.4,3,0.1,6.5-2.9,7.9
	C42.5,32.6,41.7,32.8,40.8,32.8z"/>
<path class="st1" d="M40.8,21.3c2.1,0,4.1,1.2,5,3.2c1.3,2.7,0.1,6-2.7,7.3c-0.7,0.3-1.5,0.5-2.3,0.5c-3,0-5.5-2.5-5.5-5.5
	S37.8,21.3,40.8,21.3L40.8,21.3 M40.8,20.3c-0.9,0-1.9,0.2-2.7,0.6c-3.2,1.5-4.6,5.3-3.1,8.6c1.5,3.2,5.3,4.6,8.6,3.1
	c3.2-1.5,4.6-5.3,3.1-8.6C45.6,21.7,43.3,20.3,40.8,20.3z"/>
<path class="st1" d="M125.2,14.7v50H74.8v-50L125.2,14.7 M126.2,13.7H73.8v52h52.4V13.7z"/>
<path class="st2" d="M74.5,47.3l12.3-10.2c0.7-0.6,1.8-0.6,2.6,0l8.8,7c0.8,0.7,2,0.6,2.7-0.2l11.4-11.8c0.7-0.8,2-0.9,2.8-0.1
	c0,0,0.1,0.1,0.1,0.1l10.2,10.6"/>
<path class="st3" d="M91.9,32.8c-2.3,0-4.5-1.4-5.4-3.5c-1.4-3-0.1-6.5,2.9-7.9c3.1-1.2,6.6,0.4,7.7,3.5c1,2.8-0.1,5.9-2.7,7.3
	C93.6,32.6,92.8,32.8,91.9,32.8L91.9,32.8z"/>
<path class="st1" d="M91.9,21.3c2.1,0,4.1,1.2,5,3.2c1.3,2.7,0.1,6-2.7,7.3c0,0,0,0,0,0c-2.8,1.3-6,0.1-7.3-2.7s-0.1-6,2.7-7.3
	C90.3,21.4,91.1,21.3,91.9,21.3 M91.9,20.3c-0.9,0-1.9,0.2-2.7,0.6c-3.2,1.5-4.6,5.3-3.1,8.6c1.5,3.2,5.3,4.6,8.6,3.1
	c3.2-1.5,4.6-5.3,3.1-8.6C96.7,21.7,94.4,20.3,91.9,20.3z"/>
<path class="st1" d="M176.3,14.7v50h-50.4v-50L176.3,14.7 M177.3,13.7h-52.4v52h52.4V13.7z"/>
<path class="st2" d="M125.6,47.3l12.3-10.2c0.7-0.6,1.8-0.6,2.6,0l8.8,7c0.8,0.7,2,0.6,2.7-0.2l11.4-11.8c0.7-0.8,2-0.9,2.8-0.1
	c0,0,0.1,0.1,0.1,0.1l10.2,10.6"/>
<path class="st3" d="M142.9,32.8c-2.3,0-4.5-1.4-5.4-3.5c-1.4-3,0-6.6,3-7.9c0.8-0.4,1.6-0.5,2.5-0.5c3.3,0,6,2.8,5.9,6.1
	c0,2.3-1.4,4.4-3.4,5.3C144.6,32.6,143.8,32.8,142.9,32.8z"/>
<path class="st1" d="M142.9,21.3c3,0,5.5,2.5,5.5,5.5s-2.5,5.5-5.5,5.5s-5.5-2.5-5.5-5.5c0-2.1,1.2-4.1,3.2-5
	C141.4,21.5,142.1,21.3,142.9,21.3 M142.9,20.3c-0.9,0-1.9,0.2-2.7,0.6c-3.2,1.5-4.6,5.3-3.1,8.6s5.3,4.6,8.6,3.1
	c3.2-1.5,4.6-5.3,3.1-8.6C147.7,21.7,145.4,20.3,142.9,20.3z"/>
<path class="st1" d="M74.2,65.3v50H23.7v-50H74.2 M75.2,64.3H22.7v52h52.4V64.3z"/>
<path class="st2" d="M23.5,97.9l12.3-10.2c0.7-0.6,1.8-0.6,2.5,0l8.8,7c0.8,0.7,2,0.6,2.7-0.2l11.4-11.8c0.7-0.8,2-0.9,2.8-0.1
	c0,0,0.1,0.1,0.1,0.1l10.2,10.6"/>
<path class="st3" d="M40.8,83.4c-3.3,0-6-2.7-5.9-6.1c0-2.3,1.4-4.4,3.4-5.4c0.8-0.4,1.6-0.6,2.5-0.6c2.3,0,4.5,1.4,5.4,3.5
	c1.4,3,0.1,6.6-2.9,7.9C42.5,83.2,41.7,83.4,40.8,83.4z"/>
<path class="st1" d="M40.8,71.9c2.1,0,4.1,1.2,5,3.2c1.3,2.7,0.1,6-2.7,7.3c0,0,0,0,0,0c-0.7,0.3-1.5,0.5-2.3,0.5
	c-3,0-5.5-2.5-5.5-5.5S37.8,71.9,40.8,71.9 M40.9,70.9c-3.6,0-6.5,2.9-6.5,6.5s2.9,6.5,6.5,6.5c0.9,0,1.9-0.2,2.7-0.6
	c3.3-1.5,4.7-5.3,3.2-8.6C45.7,72.4,43.4,70.9,40.9,70.9L40.9,70.9z"/>
<path class="st1" d="M125.2,65.3v50H74.8v-50H125.2 M126.2,64.3H73.8v52h52.4V64.3z"/>
<path class="st2" d="M74.5,97.9l12.3-10.2c0.7-0.6,1.8-0.6,2.6,0l8.8,7c0.8,0.7,2,0.6,2.7-0.2l11.4-11.8c0.7-0.8,2-0.9,2.8-0.1
	c0,0,0.1,0.1,0.1,0.1l10.2,10.6"/>
<path class="st3" d="M91.9,83.4c-3.3,0-6-2.8-5.9-6.1c0-2.3,1.4-4.4,3.4-5.3c0.8-0.4,1.6-0.6,2.5-0.6c3.3,0,6,2.7,6,6
	S95.2,83.4,91.9,83.4L91.9,83.4z"/>
<path class="st1" d="M91.9,71.9c3,0,5.5,2.5,5.5,5.5c0,0.6-0.1,1.3-0.3,1.9c-0.5,1.4-1.5,2.5-2.8,3.1c-0.7,0.3-1.5,0.5-2.3,0.5
	c-3,0-5.5-2.4-5.5-5.5c0-2.2,1.2-4.1,3.2-5C90.3,72.1,91.1,71.9,91.9,71.9 M91.8,70.9c-3.6,0-6.5,2.9-6.5,6.5s2.9,6.5,6.5,6.5l0,0
	c0.9,0,1.9-0.2,2.7-0.6c3.3-1.5,4.7-5.3,3.2-8.6C96.7,72.4,94.4,70.9,91.8,70.9L91.8,70.9z"/>
<path class="st1" d="M176.3,65.3v50h-50.4v-50H176.3 M177.3,64.3h-52.4v52h52.4V64.3z"/>
<path class="st2" d="M125.6,97.9l12.3-10.2c0.7-0.6,1.8-0.6,2.6,0l8.8,7c0.8,0.7,2,0.6,2.7-0.2l11.4-11.8c0.7-0.8,2-0.9,2.8-0.1
	c0,0,0.1,0.1,0.1,0.1l10.2,10.6"/>
<path class="st3" d="M142.9,83.4c-3.3,0-6-2.8-5.9-6.1c0-2.3,1.4-4.4,3.4-5.3c0.8-0.4,1.6-0.6,2.5-0.6c3.3,0,6,2.7,6,6
	S146.2,83.4,142.9,83.4L142.9,83.4z"/>
<path class="st1" d="M142.9,71.9c3,0,5.5,2.5,5.5,5.5c0,2.1-1.2,4.1-3.2,5c-0.7,0.3-1.5,0.5-2.3,0.5c-3,0-5.5-2.5-5.5-5.5
	S139.9,71.9,142.9,71.9 M142.9,70.9c-3.6,0-6.5,2.9-6.5,6.5s2.9,6.5,6.5,6.5c0.9,0,1.9-0.2,2.7-0.6c3.3-1.5,4.7-5.3,3.2-8.6
	C147.8,72.4,145.5,70.9,142.9,70.9L142.9,70.9z"/>
</svg>
