<svg id="Layer_1" data-name="Layer 1" xmlns="http://www.w3.org/2000/svg" viewBox="0 0 200 130"><rect x="0.75" y="0.75" width="198.5" height="128.5" rx="13.4" style="fill:#fff"/><path d="M185.85,1.5A12.66,12.66,0,0,1,198.5,14.15v101.7a12.66,12.66,0,0,1-12.65,12.65H14.15A12.66,12.66,0,0,1,1.5,115.85V14.15A12.66,12.66,0,0,1,14.15,1.5h171.7m0-1.5H14.15A14.14,14.14,0,0,0,0,14.15v101.7A14.14,14.14,0,0,0,14.15,130h171.7A14.14,14.14,0,0,0,200,115.85V14.15A14.14,14.14,0,0,0,185.85,0Z" style="fill:#61008e"/><path d="M115,8.22v1a2.24,2.24,0,0,1,2.24,2.24V41.77A2.24,2.24,0,0,1,115,44H84.4a2.24,2.24,0,0,1-2.24-2.24V11.46A2.24,2.24,0,0,1,84.4,9.22H115v-1m0,0H84.4a3.24,3.24,0,0,0-3.24,3.24V41.77A3.24,3.24,0,0,0,84.4,45H115a3.24,3.24,0,0,0,3.24-3.24V11.46A3.24,3.24,0,0,0,115,8.22Z" style="fill:#61008e"/><line x1="86.18" y1="50.03" x2="113.69" y2="50.03" style="fill:none;stroke:#61008e;stroke-linecap:round;stroke-linejoin:round;stroke-width:1.5px"/><line x1="86.18" y1="55.05" x2="113.69" y2="55.05" style="fill:none;stroke:#61008e;stroke-linecap:round;stroke-linejoin:round;stroke-width:1.5px"/><path d="M81.7,32l8.68-7.2a1.44,1.44,0,0,1,1.81,0l6.23,4.95a1.43,1.43,0,0,0,1.92-.12l8.07-8.3a1.43,1.43,0,0,1,2.09,0l7.07,7.78" style="fill:none;stroke:#61008e;stroke-linecap:round;stroke-linejoin:round;stroke-width:0.7827000000000001px"/><circle cx="93.97" cy="17.47" r="4.59" style="fill:none;stroke:#61008e;stroke-miterlimit:10;stroke-width:0.7827000000000001px"/><path d="M95.32,59.24H92.37a1,1,0,0,0-1,1v2.95a1,1,0,0,0,1,1h.83V62.13h-.71v-1h.71V60.6a1,1,0,0,1,1-1.14,3.53,3.53,0,0,1,.61,0v.69H94.5c-.35,0-.36.25-.36.5v.47h.77l-.11,1h-.66v2.13h1.18a1,1,0,0,0,1-1V60.28A1,1,0,0,0,95.32,59.24Z" style="fill:#61008e"/><path d="M100.32,61.16a.59.59,0,0,0,0,1.18.59.59,0,1,0,0-1.18Z" style="fill:#61008e"/><path d="M101,60.3c-1.57-.07-1.8,0-2,.19a.81.81,0,0,0-.19.54,8.88,8.88,0,0,0,.06,1.77.57.57,0,0,0,.34.34,1.12,1.12,0,0,0,.33.06c1.58.07,2,0,2.11-.4a.73.73,0,0,0,.06-.33c.08-1.56,0-1.8-.19-2A.79.79,0,0,0,101,60.3Zm-.72,2.37a.92.92,0,1,1,.92-.92A.92.92,0,0,1,100.32,62.67Zm1-1.66a.21.21,0,1,1,0-.42.21.21,0,1,1,0,.42Z" style="fill:#61008e"/><path d="M101.8,59.24h-3a1,1,0,0,0-1,1v2.95a1,1,0,0,0,1,1h3a1,1,0,0,0,1-1V60.28A1,1,0,0,0,101.8,59.24Zm.3,3.24a1.26,1.26,0,0,1-.09.44c-.25.63-.84.67-2.43.6a1.43,1.43,0,0,1-.43-.08.92.92,0,0,1-.52-.52,8.45,8.45,0,0,1-.08-1.9,1.06,1.06,0,0,1,.28-.75,1,1,0,0,1,.75-.29c1.75-.08,2,.07,2.23.29S102.17,60.89,102.1,62.48Z" style="fill:#61008e"/><path d="M108.28,59.24h-3a1,1,0,0,0-1,1v2.95a1,1,0,0,0,1,1h3a1,1,0,0,0,1-1v-3A1,1,0,0,0,108.28,59.24Zm-1.18,3.51a1.73,1.73,0,0,1-.57-.19,1.83,1.83,0,0,1-.66,1.26,5.8,5.8,0,0,1,.32-2.19c-.24-.4,0-1.21.54-1s-.5,1.43.29,1.58,1.11-1.23.6-1.74c-.73-.73-2.19-.11-2,.93a.44.44,0,0,1-.22.54c-.26-.11-.28-.46-.27-.81a1.58,1.58,0,0,1,1.43-1.43,1.54,1.54,0,0,1,1.83,1.14C108.55,61.76,108,62.82,107.1,62.75Z" style="fill:#61008e"/><path d="M58.66,8.22v1a2.24,2.24,0,0,1,2.24,2.24V41.77A2.24,2.24,0,0,1,58.66,44H28a2.24,2.24,0,0,1-2.24-2.24V11.46A2.24,2.24,0,0,1,28,9.22H58.66v-1m0,0H28a3.24,3.24,0,0,0-3.24,3.24V41.77A3.24,3.24,0,0,0,28,45H58.66a3.24,3.24,0,0,0,3.24-3.24V11.46a3.24,3.24,0,0,0-3.24-3.24Z" style="fill:#61008e"/><line x1="29.81" y1="50.03" x2="57.32" y2="50.03" style="fill:none;stroke:#61008e;stroke-linecap:round;stroke-linejoin:round;stroke-width:1.5px"/><line x1="29.81" y1="55.05" x2="57.32" y2="55.05" style="fill:none;stroke:#61008e;stroke-linecap:round;stroke-linejoin:round;stroke-width:1.5px"/><path d="M25.32,32,34,24.8a1.44,1.44,0,0,1,1.81,0l6.23,4.95A1.43,1.43,0,0,0,44,29.61L52,21.31a1.43,1.43,0,0,1,2.09,0l7.06,7.78" style="fill:none;stroke:#61008e;stroke-linecap:round;stroke-linejoin:round;stroke-width:0.7827000000000001px"/><circle cx="37.59" cy="17.47" r="4.59" style="fill:none;stroke:#61008e;stroke-miterlimit:10;stroke-width:0.7827000000000001px"/><path d="M39,59.24H36a1,1,0,0,0-1,1v2.95a1,1,0,0,0,1,1h.83V62.13h-.7v-1h.7V60.6a1,1,0,0,1,1-1.14,3.65,3.65,0,0,1,.61,0v.69h-.36c-.35,0-.35.25-.35.5v.47h.77l-.11,1h-.66v2.13H39a1,1,0,0,0,1-1V60.28A1,1,0,0,0,39,59.24Z" style="fill:#61008e"/><path d="M44,61.16a.59.59,0,1,0,0,1.18.59.59,0,1,0,0-1.18Z" style="fill:#61008e"/><path d="M44.67,60.3c-1.57-.07-1.8,0-2,.19a.77.77,0,0,0-.2.54,8.91,8.91,0,0,0,.07,1.77.58.58,0,0,0,.33.34,1.3,1.3,0,0,0,.34.06c1.58.07,2,0,2.11-.4a1.2,1.2,0,0,0,.06-.33c.07-1.56,0-1.8-.19-2A.81.81,0,0,0,44.67,60.3ZM44,62.67a.92.92,0,1,1,.92-.92A.92.92,0,0,1,44,62.67ZM44.9,61a.21.21,0,1,1,0-.42.21.21,0,1,1,0,.42Z" style="fill:#61008e"/><path d="M45.43,59.24h-3a1,1,0,0,0-1,1v2.95a1,1,0,0,0,1,1h3a1,1,0,0,0,1-1V60.28A1,1,0,0,0,45.43,59.24Zm.29,3.24a1.58,1.58,0,0,1-.08.44c-.25.63-.84.67-2.43.6a1.43,1.43,0,0,1-.43-.08.89.89,0,0,1-.52-.52,8.51,8.51,0,0,1-.09-1.9,1.11,1.11,0,0,1,.29-.75,1,1,0,0,1,.75-.29c1.75-.08,2,.07,2.22.29S45.8,60.89,45.72,62.48Z" style="fill:#61008e"/><path d="M51.91,59.24H49a1,1,0,0,0-1,1v2.95a1,1,0,0,0,1,1h2.95a1,1,0,0,0,1-1V60.28A1,1,0,0,0,51.91,59.24Zm-1.18,3.51a1.82,1.82,0,0,1-.58-.19,1.78,1.78,0,0,1-.65,1.26,5.8,5.8,0,0,1,.32-2.19c-.24-.4,0-1.21.54-1s-.5,1.43.29,1.58,1.11-1.23.6-1.74c-.73-.73-2.19-.11-2,.93a.43.43,0,0,1-.22.54c-.25-.11-.27-.46-.26-.81a1.58,1.58,0,0,1,1.42-1.43,1.53,1.53,0,0,1,1.83,1.14C52.18,61.76,51.67,62.82,50.73,62.75Z" style="fill:#61008e"/><path d="M115,67.93v1a2.24,2.24,0,0,1,2.24,2.24v30.3a2.24,2.24,0,0,1-2.24,2.24H84.4a2.24,2.24,0,0,1-2.24-2.24V71.17a2.24,2.24,0,0,1,2.24-2.24H115v-1m0,0H84.4a3.24,3.24,0,0,0-3.24,3.24v30.3a3.24,3.24,0,0,0,3.24,3.24H115a3.24,3.24,0,0,0,3.24-3.24V71.17A3.24,3.24,0,0,0,115,67.93Z" style="fill:#61008e"/><line x1="86.18" y1="109.74" x2="113.69" y2="109.74" style="fill:none;stroke:#61008e;stroke-linecap:round;stroke-linejoin:round;stroke-width:1.5px"/><line x1="86.18" y1="114.76" x2="113.69" y2="114.76" style="fill:none;stroke:#61008e;stroke-linecap:round;stroke-linejoin:round;stroke-width:1.5px"/><path d="M81.7,91.71l8.68-7.21a1.44,1.44,0,0,1,1.81,0l6.23,5a1.44,1.44,0,0,0,1.92-.12L108.41,81a1.43,1.43,0,0,1,2.09,0l7.07,7.77" style="fill:none;stroke:#61008e;stroke-linecap:round;stroke-linejoin:round;stroke-width:0.7827000000000001px"/><circle cx="93.97" cy="77.17" r="4.59" style="fill:none;stroke:#61008e;stroke-miterlimit:10;stroke-width:0.7827000000000001px"/><path d="M95.32,119H92.37a1,1,0,0,0-1,1v3a1,1,0,0,0,1,1h.83v-2.14h-.71v-1h.71v-.55a1,1,0,0,1,1-1.14,4.23,4.23,0,0,1,.61,0v.7H94.5c-.35,0-.36.24-.36.49v.47h.77l-.11,1h-.66V124h1.18a1,1,0,0,0,1-1v-3A1,1,0,0,0,95.32,119Z" style="fill:#61008e"/><path d="M100.32,120.86a.6.6,0,0,0,0,1.19.6.6,0,1,0,0-1.19Z" style="fill:#61008e"/><path d="M101,120c-1.57-.08-1.8,0-2,.19a.78.78,0,0,0-.19.54,8.93,8.93,0,0,0,.06,1.77.58.58,0,0,0,.34.33.81.81,0,0,0,.33.07c1.58.07,2,0,2.11-.4a.77.77,0,0,0,.06-.33c.08-1.57,0-1.8-.19-2A.75.75,0,0,0,101,120Zm-.72,2.36a.92.92,0,1,1,.92-.91A.92.92,0,0,1,100.32,122.37Zm1-1.65a.22.22,0,1,1,.22-.22A.22.22,0,0,1,101.27,120.72Z" style="fill:#61008e"/><path d="M101.8,119h-3a1,1,0,0,0-1,1v3a1,1,0,0,0,1,1h3a1,1,0,0,0,1-1v-3A1,1,0,0,0,101.8,119Zm.3,3.24a1.15,1.15,0,0,1-.09.43c-.25.64-.84.68-2.43.61a1.15,1.15,0,0,1-.43-.09.89.89,0,0,1-.52-.52,8.45,8.45,0,0,1-.08-1.9,1.08,1.08,0,0,1,.28-.75,1.13,1.13,0,0,1,.75-.29c1.75-.08,2,.07,2.23.29S102.17,120.6,102.1,122.19Z" style="fill:#61008e"/><path d="M108.28,119h-3a1,1,0,0,0-1,1v3a1,1,0,0,0,1,1h3a1,1,0,0,0,1-1v-3A1,1,0,0,0,108.28,119Zm-1.18,3.5a1.73,1.73,0,0,1-.57-.19,1.87,1.87,0,0,1-.66,1.27,5.89,5.89,0,0,1,.32-2.2c-.24-.4,0-1.2.54-1s-.5,1.42.29,1.58,1.11-1.24.6-1.74c-.73-.74-2.19-.12-2,.92a.44.44,0,0,1-.22.54c-.26-.1-.28-.46-.27-.8a1.57,1.57,0,0,1,1.43-1.43,1.53,1.53,0,0,1,1.83,1.14C108.55,121.46,108,122.52,107.1,122.45Z" style="fill:#61008e"/><path d="M140.77,8.22v1H171.4a2.25,2.25,0,0,1,2.25,2.24V41.77A2.25,2.25,0,0,1,171.4,44H140.77a2.25,2.25,0,0,1-2.24-2.24V11.46a2.25,2.25,0,0,1,2.24-2.24v-1m0,0a3.24,3.24,0,0,0-3.24,3.24V41.77A3.24,3.24,0,0,0,140.77,45H171.4a3.24,3.24,0,0,0,3.25-3.24V11.46a3.24,3.24,0,0,0-3.25-3.24Z" style="fill:#61008e"/><line x1="142.55" y1="50.03" x2="170.06" y2="50.03" style="fill:none;stroke:#61008e;stroke-linecap:round;stroke-linejoin:round;stroke-width:1.5px"/><line x1="142.55" y1="55.05" x2="170.06" y2="55.05" style="fill:none;stroke:#61008e;stroke-linecap:round;stroke-linejoin:round;stroke-width:1.5px"/><path d="M138.07,32l8.69-7.2a1.43,1.43,0,0,1,1.8,0l6.23,4.95a1.43,1.43,0,0,0,1.92-.12l8.08-8.3a1.42,1.42,0,0,1,2.08,0l7.07,7.78" style="fill:none;stroke:#61008e;stroke-linecap:round;stroke-linejoin:round;stroke-width:0.7827000000000001px"/><circle cx="150.34" cy="17.47" r="4.59" style="fill:none;stroke:#61008e;stroke-miterlimit:10;stroke-width:0.7827000000000001px"/><path d="M151.69,59.24h-2.95a1,1,0,0,0-1,1v2.95a1,1,0,0,0,1,1h.83V62.13h-.71v-1h.71V60.6a1,1,0,0,1,1-1.14,3.53,3.53,0,0,1,.61,0v.69h-.35c-.35,0-.36.25-.36.5v.47h.77l-.11,1h-.66v2.13h1.18a1,1,0,0,0,1-1V60.28A1,1,0,0,0,151.69,59.24Z" style="fill:#61008e"/><path d="M156.69,61.16a.59.59,0,0,0,0,1.18.59.59,0,1,0,0-1.18Z" style="fill:#61008e"/><path d="M157.41,60.3c-1.57-.07-1.8,0-2,.19a.81.81,0,0,0-.19.54,8.88,8.88,0,0,0,.06,1.77.57.57,0,0,0,.34.34,1.2,1.2,0,0,0,.33.06c1.58.07,1.95,0,2.12-.4a1.2,1.2,0,0,0,.06-.33c.07-1.56,0-1.8-.2-2A.78.78,0,0,0,157.41,60.3Zm-.72,2.37a.92.92,0,1,1,.92-.92A.92.92,0,0,1,156.69,62.67Zm1-1.66a.21.21,0,1,1,0-.42.21.21,0,1,1,0,.42Z" style="fill:#61008e"/><path d="M158.18,59.24h-3a1,1,0,0,0-1,1v2.95a1,1,0,0,0,1,1h3a1,1,0,0,0,1-1V60.28A1,1,0,0,0,158.18,59.24Zm.29,3.24a1.26,1.26,0,0,1-.09.44c-.24.63-.83.67-2.42.6a1.58,1.58,0,0,1-.44-.08.92.92,0,0,1-.52-.52,8.45,8.45,0,0,1-.08-1.9,1,1,0,0,1,.29-.75A1,1,0,0,1,156,60c1.74-.08,2,.07,2.22.29S158.54,60.89,158.47,62.48Z" style="fill:#61008e"/><path d="M164.66,59.24h-3a1,1,0,0,0-1,1v2.95a1,1,0,0,0,1,1h3a1,1,0,0,0,1-1V60.28A1,1,0,0,0,164.66,59.24Zm-1.19,3.51a1.73,1.73,0,0,1-.57-.19,1.83,1.83,0,0,1-.66,1.27,5.85,5.85,0,0,1,.33-2.2c-.24-.4,0-1.21.53-1s-.49,1.43.29,1.58,1.11-1.23.61-1.74c-.74-.73-2.2-.11-2,.93a.44.44,0,0,1-.22.54c-.25-.11-.28-.46-.27-.81A1.58,1.58,0,0,1,163,59.69a1.54,1.54,0,0,1,1.83,1.14C164.93,61.76,164.42,62.82,163.47,62.75Z" style="fill:#61008e"/><path d="M140.77,67.93v1h30.64a2.24,2.24,0,0,1,2.24,2.24v30.3a2.24,2.24,0,0,1-2.24,2.24H140.77a2.24,2.24,0,0,1-2.24-2.24V71.17a2.24,2.24,0,0,1,2.24-2.24v-1m0,0a3.24,3.24,0,0,0-3.24,3.24v30.3a3.24,3.24,0,0,0,3.24,3.24h30.64a3.24,3.24,0,0,0,3.24-3.24V71.17a3.24,3.24,0,0,0-3.24-3.24Z" style="fill:#61008e"/><line x1="142.55" y1="109.74" x2="170.06" y2="109.74" style="fill:none;stroke:#61008e;stroke-linecap:round;stroke-linejoin:round;stroke-width:1.5px"/><line x1="142.55" y1="114.76" x2="170.06" y2="114.76" style="fill:none;stroke:#61008e;stroke-linecap:round;stroke-linejoin:round;stroke-width:1.5px"/><path d="M138.07,91.71l8.69-7.21a1.43,1.43,0,0,1,1.8,0l6.23,5a1.44,1.44,0,0,0,1.92-.12L164.79,81a1.42,1.42,0,0,1,2.08,0l7.07,7.77" style="fill:none;stroke:#61008e;stroke-linecap:round;stroke-linejoin:round;stroke-width:0.7827000000000001px"/><circle cx="150.34" cy="77.17" r="4.59" style="fill:none;stroke:#61008e;stroke-miterlimit:10;stroke-width:0.7827000000000001px"/><path d="M151.69,119h-2.95a1,1,0,0,0-1,1v3a1,1,0,0,0,1,1h.83v-2.14h-.71v-1h.71v-.55a1,1,0,0,1,1-1.14,4.23,4.23,0,0,1,.61,0v.7h-.35c-.35,0-.36.24-.36.49v.47h.77l-.11,1h-.66V124h1.18a1,1,0,0,0,1-1v-3A1,1,0,0,0,151.69,119Z" style="fill:#61008e"/><path d="M156.69,120.86a.6.6,0,0,0,0,1.19.6.6,0,1,0,0-1.19Z" style="fill:#61008e"/><path d="M157.41,120c-1.57-.08-1.8,0-2,.19a.78.78,0,0,0-.19.54,8.93,8.93,0,0,0,.06,1.77.58.58,0,0,0,.34.33.86.86,0,0,0,.33.07c1.58.07,1.95,0,2.12-.4a1.3,1.3,0,0,0,.06-.33c.07-1.57,0-1.8-.2-2A.73.73,0,0,0,157.41,120Zm-.72,2.36a.92.92,0,1,1,.92-.91A.91.91,0,0,1,156.69,122.37Zm1-1.65a.22.22,0,1,1,0-.43.22.22,0,0,1,0,.43Z" style="fill:#61008e"/><path d="M158.18,119h-3a1,1,0,0,0-1,1v3a1,1,0,0,0,1,1h3a1,1,0,0,0,1-1v-3A1,1,0,0,0,158.18,119Zm.29,3.24a1.15,1.15,0,0,1-.09.43c-.24.64-.83.68-2.42.61a1.26,1.26,0,0,1-.44-.09.89.89,0,0,1-.52-.52,8.45,8.45,0,0,1-.08-1.9,1,1,0,0,1,.29-.75,1.09,1.09,0,0,1,.75-.29c1.74-.08,2,.07,2.22.29S158.54,120.6,158.47,122.19Z" style="fill:#61008e"/><path d="M164.66,119h-3a1,1,0,0,0-1,1v3a1,1,0,0,0,1,1h3a1,1,0,0,0,1-1v-3A1,1,0,0,0,164.66,119Zm-1.19,3.5a1.73,1.73,0,0,1-.57-.19,1.83,1.83,0,0,1-.66,1.27,5.88,5.88,0,0,1,.33-2.2c-.24-.4,0-1.2.53-1s-.49,1.42.29,1.58,1.11-1.24.61-1.74c-.74-.74-2.2-.12-2,.92a.44.44,0,0,1-.22.54c-.25-.1-.28-.45-.27-.8A1.57,1.57,0,0,1,163,119.4a1.53,1.53,0,0,1,1.83,1.14C164.93,121.46,164.42,122.52,163.47,122.45Z" style="fill:#61008e"/><path d="M58.66,67.93v1a2.24,2.24,0,0,1,2.24,2.24v30.3a2.24,2.24,0,0,1-2.24,2.24H28a2.24,2.24,0,0,1-2.24-2.24V71.17A2.24,2.24,0,0,1,28,68.93H58.66v-1m0,0H28a3.24,3.24,0,0,0-3.24,3.24v30.3A3.24,3.24,0,0,0,28,104.71H58.66a3.24,3.24,0,0,0,3.24-3.24V71.17a3.24,3.24,0,0,0-3.24-3.24Z" style="fill:#61008e"/><line x1="29.81" y1="109.74" x2="57.32" y2="109.74" style="fill:none;stroke:#61008e;stroke-linecap:round;stroke-linejoin:round;stroke-width:1.5px"/><line x1="29.81" y1="114.76" x2="57.32" y2="114.76" style="fill:none;stroke:#61008e;stroke-linecap:round;stroke-linejoin:round;stroke-width:1.5px"/><path d="M25.32,91.71,34,84.5a1.44,1.44,0,0,1,1.81,0l6.23,5A1.44,1.44,0,0,0,44,89.32L52,81a1.43,1.43,0,0,1,2.09,0l7.06,7.77" style="fill:none;stroke:#61008e;stroke-linecap:round;stroke-linejoin:round;stroke-width:0.7827000000000001px"/><circle cx="37.59" cy="77.17" r="4.59" style="fill:none;stroke:#61008e;stroke-miterlimit:10;stroke-width:0.7827000000000001px"/><path d="M39,119H36a1,1,0,0,0-1,1v3a1,1,0,0,0,1,1h.83v-2.14h-.7v-1h.7v-.55a1,1,0,0,1,1-1.14,4.36,4.36,0,0,1,.61,0v.7h-.36c-.35,0-.35.24-.35.49v.47h.77l-.11,1h-.66V124H39a1,1,0,0,0,1-1v-3A1,1,0,0,0,39,119Z" style="fill:#61008e"/><path d="M44,120.86a.6.6,0,1,0,0,1.19.6.6,0,0,0,0-1.19Z" style="fill:#61008e"/><path d="M44.67,120c-1.57-.08-1.8,0-2,.19a.74.74,0,0,0-.2.54,9,9,0,0,0,.07,1.77.59.59,0,0,0,.33.33.92.92,0,0,0,.34.07c1.58.07,2,0,2.11-.4a1.3,1.3,0,0,0,.06-.33c.07-1.57,0-1.8-.19-2A.76.76,0,0,0,44.67,120ZM44,122.37a.92.92,0,1,1,.91-.91A.92.92,0,0,1,44,122.37Zm.95-1.65a.21.21,0,0,1-.21-.22.21.21,0,0,1,.21-.21.22.22,0,1,1,0,.43Z" style="fill:#61008e"/><path d="M45.43,119h-3a1,1,0,0,0-1,1v3a1,1,0,0,0,1,1h3a1,1,0,0,0,1-1v-3A1,1,0,0,0,45.43,119Zm.29,3.24a1.43,1.43,0,0,1-.08.43c-.25.64-.84.68-2.43.61a1.15,1.15,0,0,1-.43-.09.86.86,0,0,1-.52-.52,8.51,8.51,0,0,1-.09-1.9,1,1,0,0,1,1-1c1.75-.08,2,.07,2.22.29S45.8,120.6,45.72,122.19Z" style="fill:#61008e"/><path d="M51.91,119H49a1,1,0,0,0-1,1v3a1,1,0,0,0,1,1h2.95a1,1,0,0,0,1-1v-3A1,1,0,0,0,51.91,119Zm-1.18,3.5a1.82,1.82,0,0,1-.58-.19,1.83,1.83,0,0,1-.65,1.27,5.89,5.89,0,0,1,.32-2.2c-.24-.4,0-1.2.54-1s-.5,1.42.29,1.58,1.11-1.24.6-1.74c-.73-.74-2.19-.12-2,.92a.43.43,0,0,1-.22.54c-.25-.1-.27-.45-.26-.8a1.57,1.57,0,0,1,1.42-1.43,1.52,1.52,0,0,1,1.83,1.14C52.18,121.46,51.67,122.52,50.73,122.45Z" style="fill:#61008e"/></svg>