<svg id="Layer_1" data-name="Layer 1" xmlns="http://www.w3.org/2000/svg" xmlns:xlink="http://www.w3.org/1999/xlink" viewBox="0 0 200 130"><defs><clipPath id="clip-path"><path d="M13.64,2.06H92.89A1.13,1.13,0,0,1,94,3.19v124a1.13,1.13,0,0,1-1.13,1.13H15.31A13.83,13.83,0,0,1,1.48,114.5V14.21A12.16,12.16,0,0,1,13.64,2.06Z" style="fill:none"/></clipPath></defs><rect x="0.75" y="0.75" width="198.5" height="128.5" rx="13.4" style="fill:#fff"/><path d="M185.85,1.5A12.66,12.66,0,0,1,198.5,14.15v101.7a12.66,12.66,0,0,1-12.65,12.65H14.15A12.66,12.66,0,0,1,1.5,115.85V14.15A12.66,12.66,0,0,1,14.15,1.5h171.7m0-1.5H14.15A14.14,14.14,0,0,0,0,14.15v101.7A14.14,14.14,0,0,0,14.15,130h171.7A14.14,14.14,0,0,0,200,115.85V14.15A14.14,14.14,0,0,0,185.85,0Z" style="fill:#61008e"/><path d="M144,10.41a2.25,2.25,0,0,1,2.25,2.25V43A2.24,2.24,0,0,1,144,45.2H113.37A2.24,2.24,0,0,1,111.13,43V12.66a2.25,2.25,0,0,1,2.24-2.25H144m0-1H113.37a3.25,3.25,0,0,0-3.24,3.25V43a3.24,3.24,0,0,0,3.24,3.24H144A3.24,3.24,0,0,0,147.25,43V12.66A3.25,3.25,0,0,0,144,9.41Z" style="fill:#61008e"/><line x1="115.15" y1="51.23" x2="142.66" y2="51.23" style="fill:none;stroke:#61008e;stroke-linecap:round;stroke-linejoin:round;stroke-width:1.5px"/><line x1="115.15" y1="56.25" x2="142.66" y2="56.25" style="fill:none;stroke:#61008e;stroke-linecap:round;stroke-linejoin:round;stroke-width:1.5px"/><path d="M110.67,33.2,119.36,26a1.43,1.43,0,0,1,1.8,0l6.23,5a1.44,1.44,0,0,0,1.92-.12l8.08-8.31a1.42,1.42,0,0,1,2.08,0l7.07,7.77" style="fill:none;stroke:#61008e;stroke-linecap:round;stroke-linejoin:round;stroke-width:0.7827000000000001px"/><circle cx="122.94" cy="18.66" r="4.59" style="fill:none;stroke:#61008e;stroke-miterlimit:10;stroke-width:0.7827000000000001px"/><path d="M124.29,60.44h-3a1,1,0,0,0-1,1v3a1,1,0,0,0,1,1h.83V63.32h-.71v-1h.71V61.8a1,1,0,0,1,1-1.14,4.23,4.23,0,0,1,.61,0v.69h-.35c-.35,0-.36.25-.36.5v.47h.77l-.11,1h-.66v2.14h1.18a1,1,0,0,0,1-1v-3A1,1,0,0,0,124.29,60.44Z" style="fill:#61008e"/><path d="M129.29,62.35a.6.6,0,0,0,0,1.19.6.6,0,1,0,0-1.19Z" style="fill:#61008e"/><path d="M130,61.49c-1.57-.07-1.8,0-2,.2a.77.77,0,0,0-.19.53A9,9,0,0,0,127.9,64a.58.58,0,0,0,.34.33.73.73,0,0,0,.33.06c1.58.08,2,0,2.11-.39a.92.92,0,0,0,.07-.34c.07-1.56,0-1.79-.2-2A.78.78,0,0,0,130,61.49Zm-.72,2.37a.92.92,0,1,1,.92-.92A.92.92,0,0,1,129.29,63.86Zm1-1.65a.22.22,0,1,1,0-.43.22.22,0,0,1,0,.43Z" style="fill:#61008e"/><path d="M130.77,60.44h-3a1,1,0,0,0-1,1v3a1,1,0,0,0,1,1h3a1,1,0,0,0,1-1v-3A1,1,0,0,0,130.77,60.44Zm.3,3.24a1.15,1.15,0,0,1-.09.43c-.24.64-.83.68-2.42.61a1.26,1.26,0,0,1-.44-.09.89.89,0,0,1-.52-.52,8.45,8.45,0,0,1-.08-1.9,1,1,0,0,1,.29-.75,1.09,1.09,0,0,1,.75-.29c1.74-.08,2,.07,2.22.29S131.14,62.08,131.07,63.68Z" style="fill:#61008e"/><path d="M137.26,60.44h-3a1,1,0,0,0-1,1v3a1,1,0,0,0,1,1h3a1,1,0,0,0,1-1v-3A1,1,0,0,0,137.26,60.44Zm-1.19,3.5a1.73,1.73,0,0,1-.57-.19,1.83,1.83,0,0,1-.66,1.27,5.69,5.69,0,0,1,.33-2.2c-.25-.4,0-1.2.53-1s-.49,1.42.29,1.58,1.11-1.24.61-1.74c-.74-.74-2.2-.12-2,.92a.44.44,0,0,1-.22.54c-.25-.1-.28-.46-.27-.8a1.57,1.57,0,0,1,1.43-1.43A1.53,1.53,0,0,1,137.4,62C137.53,63,137,64,136.07,63.94Z" style="fill:#61008e"/><path d="M144,69.12v1a2.25,2.25,0,0,1,2.25,2.24v30.31a2.25,2.25,0,0,1-2.25,2.24H113.37a2.25,2.25,0,0,1-2.24-2.24V72.36a2.25,2.25,0,0,1,2.24-2.24H144v-1m0,0H113.37a3.24,3.24,0,0,0-3.24,3.24v30.31a3.24,3.24,0,0,0,3.24,3.24H144a3.24,3.24,0,0,0,3.25-3.24V72.36A3.24,3.24,0,0,0,144,69.12Z" style="fill:#61008e"/><line x1="115.15" y1="110.93" x2="142.66" y2="110.93" style="fill:none;stroke:#61008e;stroke-linecap:round;stroke-linejoin:round;stroke-width:1.5px"/><line x1="115.15" y1="115.95" x2="142.66" y2="115.95" style="fill:none;stroke:#61008e;stroke-linecap:round;stroke-linejoin:round;stroke-width:1.5px"/><path d="M110.67,92.9l8.68-7.2a1.44,1.44,0,0,1,1.81,0l6.23,4.95a1.43,1.43,0,0,0,1.92-.12l8.08-8.31a1.43,1.43,0,0,1,2.08,0L146.54,90" style="fill:none;stroke:#61008e;stroke-linecap:round;stroke-linejoin:round;stroke-width:0.7827000000000001px"/><circle cx="122.94" cy="78.37" r="4.59" style="fill:none;stroke:#61008e;stroke-miterlimit:10;stroke-width:0.7827000000000001px"/><path d="M124.29,120.14h-3a1,1,0,0,0-1,1v3a1,1,0,0,0,1,1h.83V123h-.71v-1h.71v-.56a1,1,0,0,1,1-1.14,3.53,3.53,0,0,1,.61,0v.69h-.35c-.35,0-.36.25-.36.5v.47h.77l-.11,1h-.66v2.13h1.18a1,1,0,0,0,1-1v-3A1,1,0,0,0,124.29,120.14Z" style="fill:#61008e"/><path d="M129.29,122.06a.59.59,0,1,0,0,1.18.59.59,0,1,0,0-1.18Z" style="fill:#61008e"/><path d="M130,121.2c-1.57-.07-1.8,0-2,.19a.81.81,0,0,0-.19.54,8.88,8.88,0,0,0,.06,1.77.57.57,0,0,0,.34.34,1.2,1.2,0,0,0,.33.06c1.58.07,2,0,2.11-.4a.86.86,0,0,0,.07-.33c.07-1.57,0-1.8-.2-2A.78.78,0,0,0,130,121.2Zm-.72,2.36a.91.91,0,1,1,.92-.91A.91.91,0,0,1,129.29,123.56Zm1-1.65a.21.21,0,1,1,0-.42.21.21,0,1,1,0,.42Z" style="fill:#61008e"/><path d="M130.77,120.14h-3a1,1,0,0,0-1,1v3a1,1,0,0,0,1,1h3a1,1,0,0,0,1-1v-3A1,1,0,0,0,130.77,120.14Zm.3,3.24a1.26,1.26,0,0,1-.09.44c-.24.63-.83.67-2.42.6a1.58,1.58,0,0,1-.44-.08.92.92,0,0,1-.52-.52,8.45,8.45,0,0,1-.08-1.9,1,1,0,0,1,.29-.75,1,1,0,0,1,.75-.29c1.74-.08,2,.07,2.22.29S131.14,121.79,131.07,123.38Z" style="fill:#61008e"/><path d="M137.26,120.14h-3a1,1,0,0,0-1,1v3a1,1,0,0,0,1,1h3a1,1,0,0,0,1-1v-3A1,1,0,0,0,137.26,120.14Zm-1.19,3.51a1.73,1.73,0,0,1-.57-.19,1.79,1.79,0,0,1-.66,1.26,5.61,5.61,0,0,1,.33-2.19c-.25-.4,0-1.21.53-1s-.49,1.43.29,1.58,1.11-1.23.61-1.74c-.74-.73-2.2-.11-2,.93a.44.44,0,0,1-.22.54c-.25-.11-.28-.46-.27-.81a1.58,1.58,0,0,1,1.43-1.43,1.54,1.54,0,0,1,1.83,1.14C137.53,122.66,137,123.72,136.07,123.65Z" style="fill:#61008e"/><path d="M187.4,10.41a2.25,2.25,0,0,1,2.24,2.25V43a2.24,2.24,0,0,1-2.24,2.24H156.76A2.24,2.24,0,0,1,154.52,43V12.66a2.25,2.25,0,0,1,2.24-2.25H187.4m0-1H156.76a3.25,3.25,0,0,0-3.24,3.25V43a3.24,3.24,0,0,0,3.24,3.24H187.4A3.24,3.24,0,0,0,190.64,43V12.66a3.25,3.25,0,0,0-3.24-3.25Z" style="fill:#61008e"/><line x1="158.54" y1="51.23" x2="186.05" y2="51.23" style="fill:none;stroke:#61008e;stroke-linecap:round;stroke-linejoin:round;stroke-width:1.5px"/><line x1="158.54" y1="56.25" x2="186.05" y2="56.25" style="fill:none;stroke:#61008e;stroke-linecap:round;stroke-linejoin:round;stroke-width:1.5px"/><path d="M154.06,33.2,162.75,26a1.43,1.43,0,0,1,1.8,0l6.24,5a1.43,1.43,0,0,0,1.91-.12l8.08-8.31a1.43,1.43,0,0,1,2.09,0l7.06,7.77" style="fill:none;stroke:#61008e;stroke-linecap:round;stroke-linejoin:round;stroke-width:0.7827000000000001px"/><circle cx="166.33" cy="18.66" r="4.59" style="fill:none;stroke:#61008e;stroke-miterlimit:10;stroke-width:0.7827000000000001px"/><path d="M167.69,60.44h-3a1,1,0,0,0-1,1v3a1,1,0,0,0,1,1h.83V63.32h-.71v-1h.71V61.8a1,1,0,0,1,1-1.14,4.23,4.23,0,0,1,.61,0v.7h-.35c-.35,0-.35.24-.35.49v.47h.77l-.11,1h-.66v2.14h1.18a1,1,0,0,0,1-1v-3A1,1,0,0,0,167.69,60.44Z" style="fill:#61008e"/><path d="M172.68,62.35a.6.6,0,1,0,.6.59A.6.6,0,0,0,172.68,62.35Z" style="fill:#61008e"/><path d="M173.41,61.49c-1.57-.07-1.81,0-2,.2a.73.73,0,0,0-.2.53,9.84,9.84,0,0,0,.06,1.78.58.58,0,0,0,.34.33.86.86,0,0,0,.33.07c1.58.07,2,0,2.12-.4a1.3,1.3,0,0,0,.06-.34c.07-1.56,0-1.79-.2-2A.78.78,0,0,0,173.41,61.49Zm-.73,2.37a.92.92,0,1,1,.92-.92A.92.92,0,0,1,172.68,63.86Zm1-1.65a.22.22,0,1,1,0-.43.21.21,0,0,1,.21.21A.21.21,0,0,1,173.64,62.21Z" style="fill:#61008e"/><path d="M174.17,60.44h-3a1,1,0,0,0-1,1v3a1,1,0,0,0,1,1h3a1,1,0,0,0,1-1v-3A1,1,0,0,0,174.17,60.44Zm.29,3.24a1.43,1.43,0,0,1-.08.43c-.25.64-.84.68-2.43.61a1.15,1.15,0,0,1-.43-.09.91.91,0,0,1-.53-.52,8.45,8.45,0,0,1-.08-1.9,1,1,0,0,1,.29-.75,1.11,1.11,0,0,1,.75-.29c1.74-.08,2,.07,2.22.29S174.53,62.08,174.46,63.68Z" style="fill:#61008e"/><path d="M180.65,60.44h-3a1,1,0,0,0-1,1v3a1,1,0,0,0,1,1h3a1,1,0,0,0,1-1v-3A1,1,0,0,0,180.65,60.44Zm-1.19,3.5a1.83,1.83,0,0,1-.57-.19,1.83,1.83,0,0,1-.65,1.27,5.69,5.69,0,0,1,.32-2.2c-.24-.4,0-1.2.54-1s-.5,1.42.28,1.58,1.12-1.24.61-1.74c-.74-.74-2.2-.12-2,.92a.44.44,0,0,1-.22.54c-.25-.1-.28-.46-.26-.8A1.56,1.56,0,0,1,179,60.89,1.52,1.52,0,0,1,180.79,62C180.92,63,180.41,64,179.46,63.94Z" style="fill:#61008e"/><path d="M156.76,69.12v1H187.4a2.25,2.25,0,0,1,2.24,2.24v30.31a2.25,2.25,0,0,1-2.24,2.24H156.76a2.25,2.25,0,0,1-2.24-2.24V72.36a2.25,2.25,0,0,1,2.24-2.24v-1m0,0a3.24,3.24,0,0,0-3.24,3.24v30.31a3.24,3.24,0,0,0,3.24,3.24H187.4a3.24,3.24,0,0,0,3.24-3.24V72.36a3.24,3.24,0,0,0-3.24-3.24Z" style="fill:#61008e"/><line x1="158.54" y1="110.93" x2="186.05" y2="110.93" style="fill:none;stroke:#61008e;stroke-linecap:round;stroke-linejoin:round;stroke-width:1.5px"/><line x1="158.54" y1="115.95" x2="186.05" y2="115.95" style="fill:none;stroke:#61008e;stroke-linecap:round;stroke-linejoin:round;stroke-width:1.5px"/><path d="M154.06,92.9l8.69-7.2a1.43,1.43,0,0,1,1.8,0l6.24,4.95a1.42,1.42,0,0,0,1.91-.12l8.08-8.31a1.44,1.44,0,0,1,2.09,0L189.93,90" style="fill:none;stroke:#61008e;stroke-linecap:round;stroke-linejoin:round;stroke-width:0.7827000000000001px"/><circle cx="166.33" cy="78.37" r="4.59" style="fill:none;stroke:#61008e;stroke-miterlimit:10;stroke-width:0.7827000000000001px"/><path d="M167.69,120.14h-3a1,1,0,0,0-1,1v3a1,1,0,0,0,1,1h.83V123h-.71v-1h.71v-.56a1,1,0,0,1,1-1.14,3.53,3.53,0,0,1,.61,0v.69h-.35c-.35,0-.35.25-.35.5v.47h.77l-.11,1h-.66v2.13h1.18a1,1,0,0,0,1-1v-3A1,1,0,0,0,167.69,120.14Z" style="fill:#61008e"/><path d="M172.68,122.06a.59.59,0,1,0,.6.59A.59.59,0,0,0,172.68,122.06Z" style="fill:#61008e"/><path d="M173.41,121.2c-1.57-.07-1.81,0-2,.19a.77.77,0,0,0-.2.54,9.7,9.7,0,0,0,.06,1.77.57.57,0,0,0,.34.34,1.2,1.2,0,0,0,.33.06c1.58.07,2,0,2.12-.4a1.2,1.2,0,0,0,.06-.33c.07-1.57,0-1.8-.2-2A.77.77,0,0,0,173.41,121.2Zm-.73,2.36a.91.91,0,1,1,.92-.91A.91.91,0,0,1,172.68,123.56Zm1-1.65a.21.21,0,1,1,0-.42.21.21,0,0,1,0,.42Z" style="fill:#61008e"/><path d="M174.17,120.14h-3a1,1,0,0,0-1,1v3a1,1,0,0,0,1,1h3a1,1,0,0,0,1-1v-3A1,1,0,0,0,174.17,120.14Zm.29,3.24a1.58,1.58,0,0,1-.08.44c-.25.63-.84.67-2.43.6a1.43,1.43,0,0,1-.43-.08.93.93,0,0,1-.53-.52,8.45,8.45,0,0,1-.08-1.9,1,1,0,0,1,1-1c1.74-.08,2,.07,2.22.29S174.53,121.79,174.46,123.38Z" style="fill:#61008e"/><path d="M180.65,120.14h-3a1,1,0,0,0-1,1v3a1,1,0,0,0,1,1h3a1,1,0,0,0,1-1v-3A1,1,0,0,0,180.65,120.14Zm-1.19,3.51a1.83,1.83,0,0,1-.57-.19,1.78,1.78,0,0,1-.65,1.26,5.61,5.61,0,0,1,.32-2.19c-.24-.4,0-1.21.54-1s-.5,1.43.28,1.58,1.12-1.23.61-1.74c-.74-.73-2.2-.11-2,.93a.44.44,0,0,1-.22.54c-.25-.11-.28-.46-.26-.81a1.57,1.57,0,0,1,1.42-1.43,1.53,1.53,0,0,1,1.83,1.14C180.92,122.66,180.41,123.72,179.46,123.65Z" style="fill:#61008e"/><g style="clip-path:url(#clip-path)"><polygon points="113.69 126.81 103.94 118.23 128.22 91.35 137.97 99.93 113.69 126.81" style="fill:#bb9dce;fill-rule:evenodd"/><polygon points="127.87 139.29 118.13 130.71 142.41 103.83 152.15 112.41 127.87 139.29" style="fill:#bb9dce;fill-rule:evenodd"/><polygon points="94.88 22.05 85.13 13.47 96.85 0.5 106.6 9.07 94.88 22.05" style="fill:#bb9dce;fill-rule:evenodd"/><polygon points="109.06 34.53 99.31 25.95 111.03 12.98 120.78 21.55 109.06 34.53" style="fill:#bb9dce;fill-rule:evenodd"/><polygon points="75.54 5.03 65.79 -3.55 77.51 -16.52 87.26 -7.95 75.54 5.03" style="fill:#bb9dce;fill-rule:evenodd"/><polygon points="30.8 54.55 21.05 45.98 32.77 33 42.52 41.58 30.8 54.55" style="fill:#bb9dce;fill-rule:evenodd"/><polygon points="11.5 37.57 -13.13 15.9 -1.41 2.92 23.22 24.6 11.5 37.57" style="fill:#bb9dce;fill-rule:evenodd"/><polygon points="127.38 14.75 102.75 -6.93 114.47 -19.9 139.1 1.77 127.38 14.75" style="fill:#bb9dce;fill-rule:evenodd"/><polygon points="48.35 35.12 38.6 26.54 60.54 2.26 70.29 10.84 48.35 35.12" style="fill:#bb9dce;fill-rule:evenodd"/><polygon points="18.38 1 23.78 -4.99 38.28 7.77 50.9 -6.2 26.8 -27.41 4.86 -3.13 28.96 18.08 32.87 13.76 18.38 1" style="fill:#bb9dce;fill-rule:evenodd"/><polygon points="75.21 32.66 81.28 37.99 68.36 52.3 82.51 64.75 104 40.97 79.39 19.32 57.91 43.1 62.29 46.96 75.21 32.66" style="fill:#bb9dce;fill-rule:evenodd"/><polygon points="196.19 121.44 205.94 130.02 194.22 142.99 184.47 134.41 196.19 121.44" style="fill:#bb9dce;fill-rule:evenodd"/><polygon points="157.3 87.22 167.05 95.8 155.33 108.77 145.58 100.19 157.3 87.22" style="fill:#bb9dce;fill-rule:evenodd"/><polygon points="143.12 74.74 152.87 83.32 141.15 96.29 131.4 87.71 143.12 74.74" style="fill:#bb9dce;fill-rule:evenodd"/><polygon points="176.65 104.24 186.39 112.82 174.67 125.79 164.93 117.21 176.65 104.24" style="fill:#bb9dce;fill-rule:evenodd"/><polygon points="48.5 82.08 58.25 90.65 46.53 103.63 36.78 95.05 48.5 82.08" style="fill:#bb9dce;fill-rule:evenodd"/><polygon points="34.32 69.6 44.07 78.17 32.35 91.15 22.6 82.57 34.32 69.6" style="fill:#bb9dce;fill-rule:evenodd"/><polygon points="-4.57 35.37 5.18 43.95 -6.54 56.93 -16.29 48.35 -4.57 35.37" style="fill:#bb9dce;fill-rule:evenodd"/><polygon points="14.77 52.39 24.52 60.97 12.8 73.94 3.05 65.37 14.77 52.39" style="fill:#bb9dce;fill-rule:evenodd"/><polygon points="20.54 113.03 30.29 121.61 18.57 134.58 8.82 126 20.54 113.03" style="fill:#bb9dce;fill-rule:evenodd"/><polygon points="6.36 100.55 16.11 109.13 4.39 122.1 -5.36 113.52 6.36 100.55" style="fill:#bb9dce;fill-rule:evenodd"/><polygon points="161.75 27.43 153.06 37.05 139.91 25.49 148.6 15.87 161.75 27.43" style="fill:#bb9dce;fill-rule:evenodd"/><polygon points="144.54 46.48 135.85 56.1 122.71 44.53 131.4 34.91 144.54 46.48" style="fill:#bb9dce;fill-rule:evenodd"/><polygon points="129.6 63.02 109.18 85.63 96.03 74.06 116.45 51.46 129.6 63.02" style="fill:#bb9dce;fill-rule:evenodd"/><polygon points="84.86 112.55 43.56 158.26 30.42 146.69 71.71 100.98 84.86 112.55" style="fill:#bb9dce;fill-rule:evenodd"/><polygon points="174.39 13.43 165.7 23.05 152.56 11.49 161.25 1.87 174.39 13.43" style="fill:#bb9dce;fill-rule:evenodd"/><polygon points="191.82 -5.86 183.13 3.76 169.99 -7.81 178.68 -17.43 191.82 -5.86" style="fill:#bb9dce;fill-rule:evenodd"/><polygon points="203.83 74.14 213.58 82.72 191.64 107.01 181.89 98.43 203.83 74.14" style="fill:#bb9dce;fill-rule:evenodd"/><polygon points="176.97 76.61 170.91 71.27 205.34 33.16 191.18 20.7 148.18 68.3 172.79 89.95 194.28 66.16 189.89 62.31 176.97 76.61" style="fill:#bb9dce;fill-rule:evenodd"/><polygon points="72.59 73.54 75.36 70.48 51.59 49.56 39.87 62.53 89.16 105.9 98.1 96 72.59 73.54" style="fill:#bb9dce;fill-rule:evenodd"/><polygon points="95.76 147.62 86.01 139.04 97.73 126.06 107.48 134.64 95.76 147.62" style="fill:#bb9dce;fill-rule:evenodd"/><polygon points="151.43 153.07 185.41 182.97 206.01 160.18 161.98 121.44 119.29 168.7 129.32 177.54 151.43 153.07" style="fill:#bb9dce;fill-rule:evenodd"/></g><rect x="13.21" y="14.06" width="30.93" height="45.47" rx="2.88" style="fill:#fff"/><path d="M41.26,14.56a2.38,2.38,0,0,1,2.38,2.38V56.65A2.37,2.37,0,0,1,41.26,59H16.09a2.38,2.38,0,0,1-2.38-2.38V16.94a2.39,2.39,0,0,1,2.38-2.38H41.26m0-1H16.09a3.38,3.38,0,0,0-3.38,3.38V56.65A3.38,3.38,0,0,0,16.09,60H41.26a3.38,3.38,0,0,0,3.38-3.38V16.94a3.38,3.38,0,0,0-3.38-3.38Z" style="fill:#61008e"/><path d="M39.32,17.63a1.75,1.75,0,0,1,1.75,1.75V40.44a1.75,1.75,0,0,1-1.75,1.75H18a1.75,1.75,0,0,1-1.76-1.75V19.38A1.76,1.76,0,0,1,18,17.63H39.32m0-.5H18a2.26,2.26,0,0,0-2.26,2.25V40.44A2.25,2.25,0,0,0,18,42.69H39.32a2.24,2.24,0,0,0,2.25-2.25V19.38a2.25,2.25,0,0,0-2.25-2.25Z" style="fill:#61008e"/><line x1="18.26" y1="47.93" x2="39.43" y2="47.93" style="fill:none;stroke:#61008e;stroke-linecap:round;stroke-linejoin:round;stroke-width:1.5px"/><line x1="18.26" y1="51.8" x2="39.43" y2="51.8" style="fill:none;stroke:#61008e;stroke-linecap:round;stroke-linejoin:round;stroke-width:1.5px"/><path d="M16.16,33.66l6-5a1,1,0,0,1,1.26,0l4.33,3.44A1,1,0,0,0,29.11,32l5.61-5.77a1,1,0,0,1,1.45,0l4.91,5.4" style="fill:none;stroke:#61008e;stroke-linecap:round;stroke-linejoin:round;stroke-width:0.602362201885932px"/><circle cx="24.68" cy="23.56" r="3.19" style="fill:none;stroke:#61008e;stroke-miterlimit:10;stroke-width:0.602362201885932px"/><path d="M25.3,53.73H23a.79.79,0,0,0-.79.8V56.8a.79.79,0,0,0,.79.8h.64V56h-.54v-.74h.54v-.43a.77.77,0,0,1,.8-.88,2.51,2.51,0,0,1,.47,0v.53h-.27c-.27,0-.27.19-.27.38v.37H25L24.9,56h-.51V57.6h.91a.79.79,0,0,0,.79-.8V54.53A.79.79,0,0,0,25.3,53.73Z" style="fill:#61008e"/><path d="M29.14,55.21a.46.46,0,1,0,.46.45A.45.45,0,0,0,29.14,55.21Z" style="fill:#61008e"/><path d="M29.7,54.55c-1.21-.06-1.39,0-1.52.15a.51.51,0,0,0-.15.41,7,7,0,0,0,0,1.36.47.47,0,0,0,.26.26.82.82,0,0,0,.26.05c1.21,0,1.5,0,1.63-.31a.9.9,0,0,0,0-.25c.06-1.21,0-1.39-.15-1.52A.55.55,0,0,0,29.7,54.55Zm-.56,1.82a.7.7,0,0,1-.7-.71.7.7,0,0,1,.7-.7.7.7,0,0,1,.71.7A.71.71,0,0,1,29.14,56.37Zm.74-1.27a.18.18,0,0,1-.17-.17.17.17,0,0,1,.17-.16.16.16,0,0,1,.16.16A.17.17,0,0,1,29.88,55.1Z" style="fill:#61008e"/><path d="M30.28,53.73H28a.79.79,0,0,0-.79.8V56.8a.79.79,0,0,0,.79.8h2.27a.8.8,0,0,0,.8-.8V54.53A.8.8,0,0,0,30.28,53.73Zm.23,2.5a1.3,1.3,0,0,1-.06.33c-.2.49-.65.52-1.87.47a1,1,0,0,1-.34-.07.69.69,0,0,1-.4-.4,6.2,6.2,0,0,1-.06-1.46.82.82,0,0,1,.22-.58.85.85,0,0,1,.58-.22c1.34-.06,1.54.05,1.71.22S30.57,55,30.51,56.23Z" style="fill:#61008e"/><path d="M35.27,53.73H33a.8.8,0,0,0-.8.8V56.8a.8.8,0,0,0,.8.8h2.27a.8.8,0,0,0,.8-.8V54.53A.8.8,0,0,0,35.27,53.73Zm-.91,2.7a1.43,1.43,0,0,1-.44-.15,1.45,1.45,0,0,1-.5,1,4.52,4.52,0,0,1,.24-1.69c-.18-.31,0-.93.42-.78s-.38,1.1.22,1.22.85-.95.46-1.34c-.56-.56-1.68-.09-1.51.71a.34.34,0,0,1-.17.42c-.19-.08-.21-.35-.2-.62A1.21,1.21,0,0,1,34,54.08a1.18,1.18,0,0,1,1.41.88C35.48,55.67,35.09,56.49,34.36,56.43Z" style="fill:#61008e"/><path d="M36.12,90.39a7.4,7.4,0,0,0-7.3,7.5c0,4.15,3.66,7.51,7.3,11.26,3.65-3.75,7.3-7.11,7.3-11.26A7.4,7.4,0,0,0,36.12,90.39Zm0,10.43a3.13,3.13,0,1,1,3.13-3.13A3.12,3.12,0,0,1,36.12,100.82Z" style="fill:#fff;stroke:#61008e;stroke-linecap:round;stroke-linejoin:round;stroke-width:0.911639421541882px"/><circle cx="36.12" cy="97.69" r="3.13" style="fill:#fff;stroke:#61008e;stroke-linecap:round;stroke-linejoin:round;stroke-width:0.911639421541882px"/><circle cx="36.12" cy="97.69" r="3.13" style="fill:#fff;stroke:#61008e;stroke-linecap:round;stroke-linejoin:round;stroke-width:0.911639421541882px"/><path d="M76.21,37.2a7.4,7.4,0,0,0-7.3,7.5c0,4.15,3.66,7.51,7.3,11.26,3.65-3.75,7.3-7.11,7.3-11.26A7.4,7.4,0,0,0,76.21,37.2Zm0,10.43a3.13,3.13,0,1,1,3.13-3.13A3.13,3.13,0,0,1,76.21,47.63Z" style="fill:#fff;stroke:#61008e;stroke-linecap:round;stroke-linejoin:round;stroke-width:0.911639421541882px"/><circle cx="76.21" cy="44.5" r="3.13" style="fill:#fff;stroke:#61008e;stroke-linecap:round;stroke-linejoin:round;stroke-width:0.911639421541882px"/><circle cx="76.21" cy="44.5" r="3.13" style="fill:#fff;stroke:#61008e;stroke-linecap:round;stroke-linejoin:round;stroke-width:0.911639421541882px"/><line x1="95.32" y1="0.46" x2="95.32" y2="129.56" style="fill:none;stroke:#61008e;stroke-miterlimit:10;stroke-width:1.98720631841685px"/></svg>