<svg id="Layer_1" data-name="Layer 1" xmlns="http://www.w3.org/2000/svg" xmlns:xlink="http://www.w3.org/1999/xlink" viewBox="0 0 200 130"><defs><clipPath id="clip-path"><rect x="230.99" y="0.44" width="196.67" height="127.01" rx="13.87" style="fill:none"/></clipPath></defs><g style="clip-path:url(#clip-path)"><polygon points="180.5 73.78 170.76 65.15 195.02 38.11 204.76 46.74 180.5 73.78" style="fill:#bb9dce;fill-rule:evenodd"/><polygon points="194.67 86.33 184.93 77.7 209.19 50.67 218.93 59.29 194.67 86.33" style="fill:#bb9dce;fill-rule:evenodd"/><polygon points="209.91 21.4 219.65 30.03 207.94 43.08 198.2 34.45 209.91 21.4" style="fill:#bb9dce;fill-rule:evenodd"/></g><rect x="0.75" y="0.75" width="198.5" height="128.5" rx="13.4" style="fill:#fff"/><path d="M185.85,1.5A12.66,12.66,0,0,1,198.5,14.15v101.7a12.66,12.66,0,0,1-12.65,12.65H14.15A12.66,12.66,0,0,1,1.5,115.85V14.15A12.66,12.66,0,0,1,14.15,1.5h171.7m0-1.5H14.15A14.14,14.14,0,0,0,0,14.15v101.7A14.14,14.14,0,0,0,14.15,130h171.7A14.14,14.14,0,0,0,200,115.85V14.15A14.14,14.14,0,0,0,185.85,0Z" style="fill:#61008e"/><line x1="72.81" y1="37.28" x2="173.26" y2="37.28" style="fill:none;stroke:#61008e;stroke-linecap:round;stroke-linejoin:round;stroke-width:1.5px"/><line x1="72.81" y1="44.59" x2="156.17" y2="44.59" style="fill:none;stroke:#61008e;stroke-linecap:round;stroke-linejoin:round;stroke-width:1.5px"/><line x1="71.81" y1="28.35" x2="113.32" y2="28.35" style="fill:none;stroke:#61008e;stroke-miterlimit:10;stroke-width:6px"/><path d="M63.93,23.69v18.4l-7.77-8.52a1.44,1.44,0,0,0-2.09,0L46,41.84a1.43,1.43,0,0,1-1.92.12l-6.23-5A1.43,1.43,0,0,0,36,37l-9.22,7.56V23.69a3.24,3.24,0,0,1,3.24-3.24H60.69A3.24,3.24,0,0,1,63.93,23.69Z" style="fill:#bb9dce"/><circle cx="39.63" cy="29.7" r="4.59" style="fill:#fff;stroke:#61008e;stroke-miterlimit:10;stroke-width:0.7827000000000001px"/><path d="M55.1,34.1a.45.45,0,0,1,.33.15l7.5,8.23V54a2.24,2.24,0,0,1-2.24,2.25H30.06A2.24,2.24,0,0,1,27.82,54V45.06l8.86-7.26a.42.42,0,0,1,.28-.1.38.38,0,0,1,.27.1l6.23,5a2.46,2.46,0,0,0,1.52.53,2.36,2.36,0,0,0,1.74-.74l8.07-8.3a.43.43,0,0,1,.31-.14m0-1a1.49,1.49,0,0,0-1,.43L46,41.84a1.39,1.39,0,0,1-1,.44,1.42,1.42,0,0,1-.9-.32l-6.23-5A1.42,1.42,0,0,0,37,36.7,1.49,1.49,0,0,0,36,37l-9.22,7.56V54a3.25,3.25,0,0,0,3.24,3.25H60.69A3.25,3.25,0,0,0,63.93,54V42.09l-7.77-8.52a1.43,1.43,0,0,0-1.06-.47Z" style="fill:#61008e"/><path d="M30.06,20.45v1H60.69a2.24,2.24,0,0,1,2.24,2.25V54a2.24,2.24,0,0,1-2.24,2.24H30.06A2.24,2.24,0,0,1,27.82,54V23.7a2.24,2.24,0,0,1,2.24-2.25v-1m0,0a3.25,3.25,0,0,0-3.24,3.25V54a3.24,3.24,0,0,0,3.24,3.24H60.69A3.24,3.24,0,0,0,63.93,54V23.7a3.25,3.25,0,0,0-3.24-3.25Z" style="fill:#61008e"/><path d="M76,52.47H73a1,1,0,0,0-1,1v3a1,1,0,0,0,1,1h.83V55.36h-.71v-1h.71v-.56a1,1,0,0,1,1-1.14,3.53,3.53,0,0,1,.61,0v.69h-.35c-.35,0-.36.25-.36.5v.47h.77l-.1,1h-.67v2.13H76a1,1,0,0,0,1-1v-3A1,1,0,0,0,76,52.47Z" style="fill:#61008e"/><path d="M81,54.39a.59.59,0,1,0,.6.59A.59.59,0,0,0,81,54.39Z" style="fill:#61008e"/><path d="M81.7,53.53c-1.58-.07-1.81,0-2,.19a.76.76,0,0,0-.2.54A9.7,9.7,0,0,0,79.58,56a.57.57,0,0,0,.34.34,1.2,1.2,0,0,0,.33.06c1.58.07,2,0,2.12-.4a1.2,1.2,0,0,0,.06-.33c.07-1.57,0-1.8-.2-2A.77.77,0,0,0,81.7,53.53ZM81,55.89a.92.92,0,1,1,.92-.91A.91.91,0,0,1,81,55.89Zm1-1.65a.21.21,0,0,1-.22-.21.22.22,0,0,1,.22-.22.21.21,0,0,1,.21.22A.21.21,0,0,1,81.93,54.24Z" style="fill:#61008e"/><path d="M82.46,52.47h-3a1,1,0,0,0-1,1v3a1,1,0,0,0,1,1h3a1,1,0,0,0,1-1v-3A1,1,0,0,0,82.46,52.47Zm.29,3.24a1.58,1.58,0,0,1-.08.44c-.25.63-.84.67-2.43.6a1.58,1.58,0,0,1-.44-.08,1,1,0,0,1-.52-.52,8.52,8.52,0,0,1-.08-1.91,1,1,0,0,1,1-1c1.74-.08,2,.07,2.22.29S82.82,54.12,82.75,55.71Z" style="fill:#61008e"/><path d="M88.94,52.47H86a1,1,0,0,0-1,1v3a1,1,0,0,0,1,1h3a1,1,0,0,0,1-1v-3A1,1,0,0,0,88.94,52.47ZM87.75,56a1.83,1.83,0,0,1-.57-.19,1.79,1.79,0,0,1-.66,1.26,5.8,5.8,0,0,1,.33-2.19c-.24-.4,0-1.21.54-1s-.5,1.43.28,1.58,1.11-1.23.61-1.74c-.74-.73-2.2-.11-2,.93a.44.44,0,0,1-.22.54c-.25-.11-.28-.46-.26-.81a1.56,1.56,0,0,1,1.42-1.43,1.54,1.54,0,0,1,1.83,1.14C89.21,55,88.7,56.05,87.75,56Z" style="fill:#61008e"/><line x1="72.81" y1="89.87" x2="173.26" y2="89.87" style="fill:none;stroke:#61008e;stroke-linecap:round;stroke-linejoin:round;stroke-width:1.5px"/><line x1="72.81" y1="97.18" x2="156.17" y2="97.18" style="fill:none;stroke:#61008e;stroke-linecap:round;stroke-linejoin:round;stroke-width:1.5px"/><line x1="71.81" y1="80.95" x2="113.32" y2="80.95" style="fill:none;stroke:#61008e;stroke-miterlimit:10;stroke-width:6px"/><path d="M63.93,76.29v18.4l-7.77-8.52a1.44,1.44,0,0,0-2.09,0L46,94.44a1.43,1.43,0,0,1-1.92.12l-6.23-5a1.43,1.43,0,0,0-1.81,0l-9.22,7.56V76.29a3.24,3.24,0,0,1,3.24-3.24H60.69A3.24,3.24,0,0,1,63.93,76.29Z" style="fill:#bb9dce"/><circle cx="39.63" cy="82.29" r="4.59" style="fill:#fff;stroke:#61008e;stroke-miterlimit:10;stroke-width:0.7827000000000001px"/><path d="M55.1,86.7a.47.47,0,0,1,.33.14l7.5,8.23v11.52a2.24,2.24,0,0,1-2.24,2.25H30.06a2.25,2.25,0,0,1-2.24-2.25V97.65l8.86-7.26a.42.42,0,0,1,.28-.1.43.43,0,0,1,.27.1l6.23,5a2.46,2.46,0,0,0,1.52.53,2.36,2.36,0,0,0,1.74-.74l8.07-8.3a.41.41,0,0,1,.31-.13m0-1a1.45,1.45,0,0,0-1,.43L46,94.44a1.41,1.41,0,0,1-1,.43,1.47,1.47,0,0,1-.9-.31l-6.23-5a1.37,1.37,0,0,0-.89-.32,1.44,1.44,0,0,0-.92.33l-9.22,7.56v9.41a3.25,3.25,0,0,0,3.24,3.25H60.69a3.25,3.25,0,0,0,3.24-3.25V94.69l-7.77-8.52a1.39,1.39,0,0,0-1.06-.47Z" style="fill:#61008e"/><path d="M30.06,73.05v1H60.69a2.24,2.24,0,0,1,2.24,2.24v30.3a2.24,2.24,0,0,1-2.24,2.25H30.06a2.24,2.24,0,0,1-2.24-2.25V76.29a2.24,2.24,0,0,1,2.24-2.24v-1m0,0a3.24,3.24,0,0,0-3.24,3.24v30.3a3.25,3.25,0,0,0,3.24,3.25H60.69a3.25,3.25,0,0,0,3.24-3.25V76.29a3.24,3.24,0,0,0-3.24-3.24Z" style="fill:#61008e"/><path d="M76,105.06H73a1,1,0,0,0-1,1v3a1,1,0,0,0,1,1h.83V108h-.71v-1h.71v-.56a1,1,0,0,1,1-1.13,4.23,4.23,0,0,1,.61,0V106h-.35c-.35,0-.36.25-.36.5V107h.77l-.1,1h-.67v2.13H76a1,1,0,0,0,1-1v-3A1,1,0,0,0,76,105.06Z" style="fill:#61008e"/><path d="M81,107a.59.59,0,0,0-.59.59.6.6,0,1,0,1.19,0A.59.59,0,0,0,81,107Z" style="fill:#61008e"/><path d="M81.7,106.12c-1.58-.07-1.81,0-2,.2a.73.73,0,0,0-.2.53,9.7,9.7,0,0,0,.06,1.77.57.57,0,0,0,.34.34,1.2,1.2,0,0,0,.33.06c1.58.07,2,0,2.12-.4a1.12,1.12,0,0,0,.06-.33c.07-1.56,0-1.8-.2-2A.73.73,0,0,0,81.7,106.12ZM81,108.49a.92.92,0,1,1,.92-.92A.92.92,0,0,1,81,108.49Zm1-1.66a.21.21,0,1,1,0-.42.21.21,0,0,1,0,.42Z" style="fill:#61008e"/><path d="M82.46,105.06h-3a1,1,0,0,0-1,1v3a1,1,0,0,0,1,1h3a1,1,0,0,0,1-1v-3A1,1,0,0,0,82.46,105.06Zm.29,3.25a1.43,1.43,0,0,1-.08.43c-.25.64-.84.67-2.43.6a1.58,1.58,0,0,1-.44-.08.92.92,0,0,1-.52-.52,8.45,8.45,0,0,1-.08-1.9,1,1,0,0,1,.29-.75,1.07,1.07,0,0,1,.75-.29c1.74-.08,2,.07,2.22.29S82.82,106.71,82.75,108.31Z" style="fill:#61008e"/><path d="M88.94,105.06H86a1,1,0,0,0-1,1v3a1,1,0,0,0,1,1h3a1,1,0,0,0,1-1v-3A1,1,0,0,0,88.94,105.06Zm-1.19,3.51a1.83,1.83,0,0,1-.57-.19,1.83,1.83,0,0,1-.66,1.27,5.85,5.85,0,0,1,.33-2.2c-.24-.4,0-1.21.54-1s-.5,1.43.28,1.59,1.11-1.24.61-1.75c-.74-.73-2.2-.11-2,.93a.44.44,0,0,1-.22.54c-.25-.1-.28-.46-.26-.8a1.54,1.54,0,0,1,1.42-1.43,1.52,1.52,0,0,1,1.83,1.13C89.21,107.58,88.7,108.64,87.75,108.57Z" style="fill:#61008e"/></svg>