<svg id="Layer_1" data-name="Layer 1" xmlns="http://www.w3.org/2000/svg" xmlns:xlink="http://www.w3.org/1999/xlink" viewBox="0 0 200 130"><defs><clipPath id="clip-path"><path d="M-220.38,5.79h79.26A1.13,1.13,0,0,1-140,6.91v124a1.13,1.13,0,0,1-1.13,1.13h-77.59a13.83,13.83,0,0,1-13.83-13.83V17.94A12.16,12.16,0,0,1-220.38,5.79Z" style="fill:none"/></clipPath><clipPath id="clip-path-2"><polygon points="199.87 129.33 21.55 129.02 105.42 74.42 199.62 15.9 199.87 129.33" style="fill:none"/></clipPath><clipPath id="clip-path-3"><polygon points="74.82 69.02 3.36 114.25 5.07 6.57 177.75 4.86 74.82 69.02" style="fill:none"/></clipPath></defs><rect x="0.75" y="0.75" width="198.5" height="128.5" rx="13.4" style="fill:#fff"/><path d="M185.85,1.5A12.66,12.66,0,0,1,198.5,14.15v101.7a12.66,12.66,0,0,1-12.65,12.65H14.15A12.66,12.66,0,0,1,1.5,115.85V14.15A12.66,12.66,0,0,1,14.15,1.5h171.7m0-1.5H14.15A14.14,14.14,0,0,0,0,14.15v101.7A14.14,14.14,0,0,0,14.15,130h171.7A14.14,14.14,0,0,0,200,115.85V14.15A14.14,14.14,0,0,0,185.85,0Z" style="fill:#61008e"/><g style="clip-path:url(#clip-path)"><polygon points="-0.21 111.99 -5.62 117.98 -20.11 105.23 -32.74 119.2 -8.64 140.41 13.3 116.12 -10.8 94.92 -14.71 99.24 -0.21 111.99" style="fill:#bb9dce;fill-rule:evenodd"/></g><g style="clip-path:url(#clip-path-2)"><path d="M137,8.22v1a2.24,2.24,0,0,1,2.24,2.24V41.77A2.24,2.24,0,0,1,137,44H106.38a2.24,2.24,0,0,1-2.24-2.24V11.46a2.24,2.24,0,0,1,2.24-2.24H137v-1m0,0H106.38a3.24,3.24,0,0,0-3.24,3.24V41.77A3.24,3.24,0,0,0,106.38,45H137a3.24,3.24,0,0,0,3.24-3.24V11.46A3.24,3.24,0,0,0,137,8.22Z" style="fill:#61008e"/><line x1="108.16" y1="50.03" x2="135.67" y2="50.03" style="fill:none;stroke:#61008e;stroke-linecap:round;stroke-linejoin:round;stroke-width:1.5px"/><line x1="108.16" y1="55.05" x2="135.67" y2="55.05" style="fill:none;stroke:#61008e;stroke-linecap:round;stroke-linejoin:round;stroke-width:1.5px"/><path d="M103.68,32l8.68-7.2a1.44,1.44,0,0,1,1.81,0l6.23,4.95a1.43,1.43,0,0,0,1.92-.12l8.07-8.3a1.43,1.43,0,0,1,2.09,0l7.07,7.78" style="fill:none;stroke:#61008e;stroke-linecap:round;stroke-linejoin:round;stroke-width:0.7827000000000001px"/><circle cx="115.95" cy="17.47" r="4.59" style="fill:none;stroke:#61008e;stroke-miterlimit:10;stroke-width:0.7827000000000001px"/><path d="M117.3,59.24h-3a1,1,0,0,0-1,1v2.95a1,1,0,0,0,1,1h.83V62.13h-.71v-1h.71V60.6a1,1,0,0,1,1-1.14,3.53,3.53,0,0,1,.61,0v.69h-.35c-.35,0-.36.25-.36.5v.47h.77l-.11,1h-.66v2.13h1.18a1,1,0,0,0,1-1V60.28A1,1,0,0,0,117.3,59.24Z" style="fill:#61008e"/><path d="M122.3,61.16a.59.59,0,0,0,0,1.18.59.59,0,1,0,0-1.18Z" style="fill:#61008e"/><path d="M123,60.3c-1.57-.07-1.8,0-2,.19a.81.81,0,0,0-.19.54,8.88,8.88,0,0,0,.06,1.77.57.57,0,0,0,.34.34,1.12,1.12,0,0,0,.33.06c1.58.07,2,0,2.11-.4a.73.73,0,0,0,.06-.33c.08-1.56,0-1.8-.19-2A.79.79,0,0,0,123,60.3Zm-.72,2.37a.92.92,0,1,1,.92-.92A.92.92,0,0,1,122.3,62.67Zm1-1.66a.21.21,0,1,1,0-.42.21.21,0,1,1,0,.42Z" style="fill:#61008e"/><path d="M123.78,59.24h-3a1,1,0,0,0-1,1v2.95a1,1,0,0,0,1,1h3a1,1,0,0,0,1-1V60.28A1,1,0,0,0,123.78,59.24Zm.3,3.24a1.26,1.26,0,0,1-.09.44c-.25.63-.84.67-2.43.6a1.43,1.43,0,0,1-.43-.08.92.92,0,0,1-.52-.52,8.45,8.45,0,0,1-.08-1.9,1.06,1.06,0,0,1,.28-.75,1,1,0,0,1,.75-.29c1.75-.08,2,.07,2.23.29S124.15,60.89,124.08,62.48Z" style="fill:#61008e"/><path d="M130.26,59.24h-2.95a1,1,0,0,0-1,1v2.95a1,1,0,0,0,1,1h2.95a1,1,0,0,0,1-1V60.28A1,1,0,0,0,130.26,59.24Zm-1.18,3.51a1.73,1.73,0,0,1-.57-.19,1.83,1.83,0,0,1-.66,1.26,5.8,5.8,0,0,1,.32-2.19c-.24-.4,0-1.21.54-1s-.5,1.43.29,1.58,1.11-1.23.6-1.74c-.73-.73-2.19-.11-2,.93a.44.44,0,0,1-.22.54c-.26-.11-.28-.46-.27-.81a1.58,1.58,0,0,1,1.43-1.43,1.54,1.54,0,0,1,1.83,1.14C130.53,61.76,130,62.82,129.08,62.75Z" style="fill:#61008e"/><path d="M137,67.93v1a2.24,2.24,0,0,1,2.24,2.24v30.3a2.24,2.24,0,0,1-2.24,2.24H106.38a2.24,2.24,0,0,1-2.24-2.24V71.17a2.24,2.24,0,0,1,2.24-2.24H137v-1m0,0H106.38a3.24,3.24,0,0,0-3.24,3.24v30.3a3.24,3.24,0,0,0,3.24,3.24H137a3.24,3.24,0,0,0,3.24-3.24V71.17A3.24,3.24,0,0,0,137,67.93Z" style="fill:#61008e"/><line x1="108.16" y1="109.74" x2="135.67" y2="109.74" style="fill:none;stroke:#61008e;stroke-linecap:round;stroke-linejoin:round;stroke-width:1.5px"/><line x1="108.16" y1="114.76" x2="135.67" y2="114.76" style="fill:none;stroke:#61008e;stroke-linecap:round;stroke-linejoin:round;stroke-width:1.5px"/><path d="M103.68,91.71l8.68-7.21a1.44,1.44,0,0,1,1.81,0l6.23,5a1.44,1.44,0,0,0,1.92-.12L130.39,81a1.43,1.43,0,0,1,2.09,0l7.07,7.77" style="fill:none;stroke:#61008e;stroke-linecap:round;stroke-linejoin:round;stroke-width:0.7827000000000001px"/><circle cx="115.95" cy="77.17" r="4.59" style="fill:none;stroke:#61008e;stroke-miterlimit:10;stroke-width:0.7827000000000001px"/><path d="M117.3,119h-3a1,1,0,0,0-1,1v3a1,1,0,0,0,1,1h.83v-2.14h-.71v-1h.71v-.55a1,1,0,0,1,1-1.14,4.23,4.23,0,0,1,.61,0v.7h-.35c-.35,0-.36.24-.36.49v.47h.77l-.11,1h-.66V124h1.18a1,1,0,0,0,1-1v-3A1,1,0,0,0,117.3,119Z" style="fill:#61008e"/><path d="M122.3,120.86a.6.6,0,0,0,0,1.19.6.6,0,1,0,0-1.19Z" style="fill:#61008e"/><path d="M123,120c-1.57-.08-1.8,0-2,.19a.78.78,0,0,0-.19.54,8.93,8.93,0,0,0,.06,1.77.58.58,0,0,0,.34.33.81.81,0,0,0,.33.07c1.58.07,2,0,2.11-.4a.77.77,0,0,0,.06-.33c.08-1.57,0-1.8-.19-2A.75.75,0,0,0,123,120Zm-.72,2.36a.92.92,0,1,1,.92-.91A.92.92,0,0,1,122.3,122.37Zm1-1.65a.22.22,0,1,1,.22-.22A.22.22,0,0,1,123.25,120.72Z" style="fill:#61008e"/><path d="M123.78,119h-3a1,1,0,0,0-1,1v3a1,1,0,0,0,1,1h3a1,1,0,0,0,1-1v-3A1,1,0,0,0,123.78,119Zm.3,3.24a1.15,1.15,0,0,1-.09.43c-.25.64-.84.68-2.43.61a1.15,1.15,0,0,1-.43-.09.89.89,0,0,1-.52-.52,8.45,8.45,0,0,1-.08-1.9,1.08,1.08,0,0,1,.28-.75,1.13,1.13,0,0,1,.75-.29c1.75-.08,2,.07,2.23.29S124.15,120.6,124.08,122.19Z" style="fill:#61008e"/><path d="M130.26,119h-2.95a1,1,0,0,0-1,1v3a1,1,0,0,0,1,1h2.95a1,1,0,0,0,1-1v-3A1,1,0,0,0,130.26,119Zm-1.18,3.5a1.82,1.82,0,0,1-.58-.19,1.83,1.83,0,0,1-.65,1.27,5.89,5.89,0,0,1,.32-2.2c-.24-.4,0-1.2.54-1s-.5,1.42.29,1.58,1.11-1.24.6-1.74c-.73-.74-2.19-.12-2,.92a.44.44,0,0,1-.22.54c-.26-.1-.28-.46-.27-.8a1.57,1.57,0,0,1,1.43-1.43,1.53,1.53,0,0,1,1.83,1.14C130.53,121.46,130,122.52,129.08,122.45Z" style="fill:#61008e"/><path d="M180.4,9.22a2.25,2.25,0,0,1,2.25,2.24V41.77A2.25,2.25,0,0,1,180.4,44H149.77a2.25,2.25,0,0,1-2.24-2.24V11.46a2.25,2.25,0,0,1,2.24-2.24H180.4m0-1H149.77a3.24,3.24,0,0,0-3.24,3.24V41.77A3.24,3.24,0,0,0,149.77,45H180.4a3.24,3.24,0,0,0,3.25-3.24V11.46a3.24,3.24,0,0,0-3.25-3.24Z" style="fill:#61008e"/><line x1="151.55" y1="50.03" x2="179.06" y2="50.03" style="fill:none;stroke:#61008e;stroke-linecap:round;stroke-linejoin:round;stroke-width:1.5px"/><line x1="151.55" y1="55.05" x2="179.06" y2="55.05" style="fill:none;stroke:#61008e;stroke-linecap:round;stroke-linejoin:round;stroke-width:1.5px"/><path d="M147.07,32l8.69-7.2a1.43,1.43,0,0,1,1.8,0l6.23,4.95a1.43,1.43,0,0,0,1.92-.12l8.08-8.3a1.42,1.42,0,0,1,2.08,0l7.07,7.78" style="fill:none;stroke:#61008e;stroke-linecap:round;stroke-linejoin:round;stroke-width:0.7827000000000001px"/><circle cx="159.34" cy="17.47" r="4.59" style="fill:none;stroke:#61008e;stroke-miterlimit:10;stroke-width:0.7827000000000001px"/><path d="M160.69,59.24h-2.95a1,1,0,0,0-1,1v2.95a1,1,0,0,0,1,1h.83V62.13h-.71v-1h.71V60.6a1,1,0,0,1,1-1.14,3.53,3.53,0,0,1,.61,0v.69h-.35c-.35,0-.36.25-.36.5v.47h.77l-.11,1h-.66v2.13h1.18a1,1,0,0,0,1-1V60.28A1,1,0,0,0,160.69,59.24Z" style="fill:#61008e"/><path d="M165.69,61.16a.59.59,0,0,0,0,1.18.59.59,0,1,0,0-1.18Z" style="fill:#61008e"/><path d="M166.41,60.3c-1.57-.07-1.8,0-2,.19a.81.81,0,0,0-.19.54,8.88,8.88,0,0,0,.06,1.77.57.57,0,0,0,.34.34,1.2,1.2,0,0,0,.33.06c1.58.07,1.95,0,2.12-.4a1.2,1.2,0,0,0,.06-.33c.07-1.56,0-1.8-.2-2A.78.78,0,0,0,166.41,60.3Zm-.72,2.37a.92.92,0,1,1,.92-.92A.92.92,0,0,1,165.69,62.67Zm1-1.66a.21.21,0,1,1,0-.42.21.21,0,1,1,0,.42Z" style="fill:#61008e"/><path d="M167.18,59.24h-3a1,1,0,0,0-1,1v2.95a1,1,0,0,0,1,1h3a1,1,0,0,0,1-1V60.28A1,1,0,0,0,167.18,59.24Zm.29,3.24a1.26,1.26,0,0,1-.09.44c-.24.63-.83.67-2.42.6a1.58,1.58,0,0,1-.44-.08.92.92,0,0,1-.52-.52,8.45,8.45,0,0,1-.08-1.9,1,1,0,0,1,.29-.75A1,1,0,0,1,165,60c1.74-.08,2,.07,2.22.29S167.54,60.89,167.47,62.48Z" style="fill:#61008e"/><path d="M173.66,59.24h-3a1,1,0,0,0-1,1v2.95a1,1,0,0,0,1,1h3a1,1,0,0,0,1-1V60.28A1,1,0,0,0,173.66,59.24Zm-1.19,3.51a1.73,1.73,0,0,1-.57-.19,1.83,1.83,0,0,1-.66,1.27,5.85,5.85,0,0,1,.33-2.2c-.24-.4,0-1.21.53-1s-.49,1.43.29,1.58,1.11-1.23.61-1.74c-.74-.73-2.2-.11-2,.93a.44.44,0,0,1-.22.54c-.25-.11-.28-.46-.27-.81A1.58,1.58,0,0,1,172,59.69a1.54,1.54,0,0,1,1.83,1.14C173.93,61.76,173.42,62.82,172.47,62.75Z" style="fill:#61008e"/><path d="M180.41,68.93a2.24,2.24,0,0,1,2.24,2.24v30.3a2.24,2.24,0,0,1-2.24,2.24H149.77a2.24,2.24,0,0,1-2.24-2.24V71.17a2.24,2.24,0,0,1,2.24-2.24h30.64m0-1H149.77a3.24,3.24,0,0,0-3.24,3.24v30.3a3.24,3.24,0,0,0,3.24,3.24h30.64a3.24,3.24,0,0,0,3.24-3.24V71.17a3.24,3.24,0,0,0-3.24-3.24Z" style="fill:#61008e"/><line x1="151.55" y1="109.74" x2="179.06" y2="109.74" style="fill:none;stroke:#61008e;stroke-linecap:round;stroke-linejoin:round;stroke-width:1.5px"/><line x1="151.55" y1="114.76" x2="179.06" y2="114.76" style="fill:none;stroke:#61008e;stroke-linecap:round;stroke-linejoin:round;stroke-width:1.5px"/><path d="M147.07,91.71l8.69-7.21a1.43,1.43,0,0,1,1.8,0l6.23,5a1.44,1.44,0,0,0,1.92-.12L173.79,81a1.42,1.42,0,0,1,2.08,0l7.07,7.77" style="fill:none;stroke:#61008e;stroke-linecap:round;stroke-linejoin:round;stroke-width:0.7827000000000001px"/><circle cx="159.34" cy="77.17" r="4.59" style="fill:none;stroke:#61008e;stroke-miterlimit:10;stroke-width:0.7827000000000001px"/><path d="M160.69,119h-2.95a1,1,0,0,0-1,1v3a1,1,0,0,0,1,1h.83v-2.14h-.71v-1h.71v-.55a1,1,0,0,1,1-1.14,4.23,4.23,0,0,1,.61,0v.7h-.35c-.35,0-.36.24-.36.49v.47h.77l-.11,1h-.66V124h1.18a1,1,0,0,0,1-1v-3A1,1,0,0,0,160.69,119Z" style="fill:#61008e"/><path d="M165.69,120.86a.6.6,0,0,0,0,1.19.6.6,0,1,0,0-1.19Z" style="fill:#61008e"/><path d="M166.41,120c-1.57-.08-1.8,0-2,.19a.78.78,0,0,0-.19.54,8.93,8.93,0,0,0,.06,1.77.58.58,0,0,0,.34.33.86.86,0,0,0,.33.07c1.58.07,1.95,0,2.12-.4a1.3,1.3,0,0,0,.06-.33c.07-1.57,0-1.8-.2-2A.73.73,0,0,0,166.41,120Zm-.72,2.36a.92.92,0,1,1,.92-.91A.91.91,0,0,1,165.69,122.37Zm1-1.65a.22.22,0,1,1,0-.43.22.22,0,0,1,0,.43Z" style="fill:#61008e"/><path d="M167.18,119h-3a1,1,0,0,0-1,1v3a1,1,0,0,0,1,1h3a1,1,0,0,0,1-1v-3A1,1,0,0,0,167.18,119Zm.29,3.24a1.43,1.43,0,0,1-.08.43c-.25.64-.84.68-2.43.61a1.26,1.26,0,0,1-.44-.09.89.89,0,0,1-.52-.52,8.45,8.45,0,0,1-.08-1.9,1,1,0,0,1,.29-.75,1.09,1.09,0,0,1,.75-.29c1.74-.08,2,.07,2.22.29S167.54,120.6,167.47,122.19Z" style="fill:#61008e"/><path d="M173.66,119h-3a1,1,0,0,0-1,1v3a1,1,0,0,0,1,1h3a1,1,0,0,0,1-1v-3A1,1,0,0,0,173.66,119Zm-1.19,3.5a1.73,1.73,0,0,1-.57-.19,1.83,1.83,0,0,1-.66,1.27,5.88,5.88,0,0,1,.33-2.2c-.24-.4,0-1.2.53-1s-.49,1.42.29,1.58,1.11-1.24.61-1.74c-.74-.74-2.2-.12-2,.92a.44.44,0,0,1-.22.54c-.25-.1-.28-.45-.27-.8A1.57,1.57,0,0,1,172,119.4a1.53,1.53,0,0,1,1.83,1.14C173.93,121.46,173.42,122.52,172.47,122.45Z" style="fill:#61008e"/><path d="M93.62,67.93v1a2.24,2.24,0,0,1,2.24,2.24v30.3a2.24,2.24,0,0,1-2.24,2.24H63a2.24,2.24,0,0,1-2.24-2.24V71.17A2.24,2.24,0,0,1,63,68.93H93.62v-1m0,0H63a3.24,3.24,0,0,0-3.24,3.24v30.3A3.24,3.24,0,0,0,63,104.71H93.62a3.24,3.24,0,0,0,3.24-3.24V71.17a3.24,3.24,0,0,0-3.24-3.24Z" style="fill:#61008e"/><line x1="64.77" y1="109.74" x2="92.28" y2="109.74" style="fill:none;stroke:#61008e;stroke-linecap:round;stroke-linejoin:round;stroke-width:1.5px"/><line x1="64.77" y1="114.76" x2="92.28" y2="114.76" style="fill:none;stroke:#61008e;stroke-linecap:round;stroke-linejoin:round;stroke-width:1.5px"/><path d="M60.28,91.71,69,84.5a1.44,1.44,0,0,1,1.81,0l6.23,5a1.44,1.44,0,0,0,1.92-.12L87,81a1.43,1.43,0,0,1,2.09,0l7.06,7.77" style="fill:none;stroke:#61008e;stroke-linecap:round;stroke-linejoin:round;stroke-width:0.7827000000000001px"/><circle cx="72.55" cy="77.17" r="4.59" style="fill:none;stroke:#61008e;stroke-miterlimit:10;stroke-width:0.7827000000000001px"/><path d="M73.91,119H71a1,1,0,0,0-1,1v3a1,1,0,0,0,1,1h.83v-2.14h-.7v-1h.7v-.55a1,1,0,0,1,1-1.14,4.36,4.36,0,0,1,.61,0v.7h-.36c-.35,0-.35.24-.35.49v.47h.77l-.11,1h-.66V124h1.18a1,1,0,0,0,1-1v-3A1,1,0,0,0,73.91,119Z" style="fill:#61008e"/><path d="M78.91,120.86a.6.6,0,1,0,0,1.19.6.6,0,0,0,0-1.19Z" style="fill:#61008e"/><path d="M79.63,120c-1.57-.08-1.8,0-2,.19a.74.74,0,0,0-.2.54,9,9,0,0,0,.07,1.77.59.59,0,0,0,.33.33.92.92,0,0,0,.34.07c1.58.07,2,0,2.11-.4a1.3,1.3,0,0,0,.06-.33c.07-1.57,0-1.8-.19-2A.76.76,0,0,0,79.63,120Zm-.72,2.36a.92.92,0,1,1,.91-.91A.92.92,0,0,1,78.91,122.37Zm1-1.65a.21.21,0,0,1-.21-.22.21.21,0,0,1,.21-.21.22.22,0,1,1,0,.43Z" style="fill:#61008e"/><path d="M80.39,119h-3a1,1,0,0,0-1,1v3a1,1,0,0,0,1,1h3a1,1,0,0,0,1-1v-3A1,1,0,0,0,80.39,119Zm.29,3.24a1.43,1.43,0,0,1-.08.43c-.25.64-.84.68-2.43.61a1.15,1.15,0,0,1-.43-.09.86.86,0,0,1-.52-.52,8.51,8.51,0,0,1-.09-1.9,1,1,0,0,1,1-1c1.75-.08,2,.07,2.22.29S80.76,120.6,80.68,122.19Z" style="fill:#61008e"/><path d="M86.87,119h-3a1,1,0,0,0-1,1v3a1,1,0,0,0,1,1h3a1,1,0,0,0,1-1v-3A1,1,0,0,0,86.87,119Zm-1.18,3.5a1.82,1.82,0,0,1-.58-.19,1.83,1.83,0,0,1-.65,1.27,5.89,5.89,0,0,1,.32-2.2c-.24-.4,0-1.2.54-1s-.5,1.42.29,1.58,1.11-1.24.6-1.74c-.73-.74-2.19-.12-2,.92a.43.43,0,0,1-.22.54c-.25-.1-.27-.45-.26-.8a1.57,1.57,0,0,1,1.42-1.43A1.52,1.52,0,0,1,87,120.54C87.14,121.46,86.63,122.52,85.69,122.45Z" style="fill:#61008e"/><path d="M50.23,68.93a2.24,2.24,0,0,1,2.24,2.24v30.3a2.24,2.24,0,0,1-2.24,2.24H19.6a2.24,2.24,0,0,1-2.25-2.24V71.17a2.24,2.24,0,0,1,2.25-2.24H50.23m0-1H19.6a3.24,3.24,0,0,0-3.25,3.24v30.3a3.24,3.24,0,0,0,3.25,3.24H50.23a3.24,3.24,0,0,0,3.24-3.24V71.17a3.24,3.24,0,0,0-3.24-3.24Z" style="fill:#61008e"/><line x1="21.37" y1="109.74" x2="48.88" y2="109.74" style="fill:none;stroke:#61008e;stroke-linecap:round;stroke-linejoin:round;stroke-width:1.5px"/><line x1="21.37" y1="114.76" x2="48.88" y2="114.76" style="fill:none;stroke:#61008e;stroke-linecap:round;stroke-linejoin:round;stroke-width:1.5px"/><path d="M16.89,91.71l8.69-7.21a1.43,1.43,0,0,1,1.8,0l6.24,5a1.43,1.43,0,0,0,1.91-.12L43.61,81a1.43,1.43,0,0,1,2.09,0l7.06,7.77" style="fill:none;stroke:#61008e;stroke-linecap:round;stroke-linejoin:round;stroke-width:0.7827000000000001px"/><circle cx="29.16" cy="77.17" r="4.59" style="fill:none;stroke:#61008e;stroke-miterlimit:10;stroke-width:0.7827000000000001px"/><path d="M30.52,119h-3a1,1,0,0,0-1,1v3a1,1,0,0,0,1,1h.83v-2.14h-.71v-1h.71v-.55a1,1,0,0,1,1-1.14,4.23,4.23,0,0,1,.61,0v.7h-.35c-.35,0-.35.24-.35.49v.47h.77l-.11,1h-.66V124h1.18a1,1,0,0,0,1-1v-3A1,1,0,0,0,30.52,119Z" style="fill:#61008e"/><path d="M35.52,120.86a.6.6,0,1,0,.59.6A.6.6,0,0,0,35.52,120.86Z" style="fill:#61008e"/><path d="M36.24,120c-1.57-.08-1.8,0-2,.19a.74.74,0,0,0-.2.54,9.76,9.76,0,0,0,.06,1.77.58.58,0,0,0,.34.33.91.91,0,0,0,.33.07c1.58.07,2,0,2.12-.4a1.3,1.3,0,0,0,.06-.33c.07-1.57,0-1.8-.2-2A.72.72,0,0,0,36.24,120Zm-.72,2.36a.92.92,0,1,1,.91-.91A.92.92,0,0,1,35.52,122.37Zm.95-1.65a.22.22,0,1,1,0-.43.21.21,0,0,1,.21.21A.21.21,0,0,1,36.47,120.72Z" style="fill:#61008e"/><path d="M37,119H34a1,1,0,0,0-1,1v3a1,1,0,0,0,1,1h3a1,1,0,0,0,1-1v-3A1,1,0,0,0,37,119Zm.29,3.24a1.43,1.43,0,0,1-.08.43c-.25.64-.84.68-2.43.61a1.15,1.15,0,0,1-.43-.09.91.91,0,0,1-.53-.52,8.45,8.45,0,0,1-.08-1.9A1,1,0,0,1,34,120a1.11,1.11,0,0,1,.75-.29c1.74-.08,2,.07,2.22.29S37.36,120.6,37.29,122.19Z" style="fill:#61008e"/><path d="M43.48,119H40.53a1,1,0,0,0-1,1v3a1,1,0,0,0,1,1h2.95a1,1,0,0,0,1-1v-3A1,1,0,0,0,43.48,119Zm-1.19,3.5a1.83,1.83,0,0,1-.57-.19,1.83,1.83,0,0,1-.65,1.27,5.69,5.69,0,0,1,.32-2.2c-.24-.4,0-1.2.54-1s-.5,1.42.28,1.58,1.12-1.24.61-1.74c-.73-.74-2.2-.12-2,.92a.44.44,0,0,1-.22.54c-.25-.1-.28-.46-.26-.8a1.56,1.56,0,0,1,1.42-1.43,1.52,1.52,0,0,1,1.83,1.14C43.75,121.46,43.24,122.52,42.29,122.45Z" style="fill:#61008e"/></g><g style="clip-path:url(#clip-path-3)"><line x1="58.73" y1="27.57" x2="159.18" y2="27.57" style="fill:none;stroke:#61008e;stroke-linecap:round;stroke-linejoin:round;stroke-width:1.5px"/><line x1="58.73" y1="34.89" x2="142.09" y2="34.89" style="fill:none;stroke:#61008e;stroke-linecap:round;stroke-linejoin:round;stroke-width:1.5px"/><line x1="57.73" y1="18.65" x2="99.24" y2="18.65" style="fill:none;stroke:#61008e;stroke-miterlimit:10;stroke-width:6px"/><path d="M49.85,14v18.4l-7.77-8.52a1.44,1.44,0,0,0-2.09,0l-8.07,8.31a1.43,1.43,0,0,1-1.92.12l-6.23-4.95a1.43,1.43,0,0,0-1.81,0l-9.22,7.56V14A3.24,3.24,0,0,1,16,10.75H46.61A3.24,3.24,0,0,1,49.85,14Z" style="fill:#bb9dce"/><circle cx="25.55" cy="20" r="4.59" style="fill:#fff;stroke:#61008e;stroke-miterlimit:10;stroke-width:0.7827000000000001px"/><path d="M41,24.4a.45.45,0,0,1,.33.15l7.5,8.23V44.29a2.25,2.25,0,0,1-2.25,2.25H16a2.25,2.25,0,0,1-2.24-2.25V35.36l8.86-7.27a.47.47,0,0,1,.28-.09.38.38,0,0,1,.27.1l6.23,4.95a2.46,2.46,0,0,0,1.52.53,2.4,2.4,0,0,0,1.74-.74l8.07-8.31A.45.45,0,0,1,41,24.4m0-1a1.49,1.49,0,0,0-1,.43l-8.07,8.31a1.39,1.39,0,0,1-1,.44,1.48,1.48,0,0,1-.9-.32l-6.23-4.95a1.42,1.42,0,0,0-.89-.31,1.49,1.49,0,0,0-.92.32l-9.22,7.56v9.41A3.25,3.25,0,0,0,16,47.54H46.61a3.26,3.26,0,0,0,3.25-3.25V32.39l-7.77-8.52A1.43,1.43,0,0,0,41,23.4Z" style="fill:#61008e"/><path d="M46.61,11.75A2.24,2.24,0,0,1,48.85,14V44.3a2.24,2.24,0,0,1-2.24,2.24H16a2.24,2.24,0,0,1-2.24-2.24V14A2.24,2.24,0,0,1,16,11.75H46.61m0-1H16A3.24,3.24,0,0,0,12.74,14V44.3A3.24,3.24,0,0,0,16,47.54H46.61a3.24,3.24,0,0,0,3.24-3.24V14a3.24,3.24,0,0,0-3.24-3.25Z" style="fill:#61008e"/><path d="M61.89,42.77h-3a1,1,0,0,0-1,1v3a1,1,0,0,0,1,1h.83V45.66h-.71v-1h.71v-.56a1,1,0,0,1,1-1.14,2.66,2.66,0,0,1,.61,0v.69h-.35c-.35,0-.36.25-.36.49v.48h.77l-.1,1h-.67v2.13h1.18a1,1,0,0,0,1-1v-3A1,1,0,0,0,61.89,42.77Z" style="fill:#61008e"/><path d="M66.89,44.68a.6.6,0,0,0-.59.6.6.6,0,0,0,1.19,0A.6.6,0,0,0,66.89,44.68Z" style="fill:#61008e"/><path d="M67.62,43.83c-1.57-.07-1.81,0-2,.19a.76.76,0,0,0-.2.54,9.7,9.7,0,0,0,.06,1.77.57.57,0,0,0,.34.34,1.2,1.2,0,0,0,.33.06c1.58.07,2,0,2.12-.4a1.2,1.2,0,0,0,.06-.33c.07-1.57,0-1.8-.2-2A.77.77,0,0,0,67.62,43.83Zm-.73,2.36a.92.92,0,1,1,.92-.91A.91.91,0,0,1,66.89,46.19Zm1-1.65a.22.22,0,1,1,0-.43.21.21,0,0,1,.21.22A.21.21,0,0,1,67.85,44.54Z" style="fill:#61008e"/><path d="M68.38,42.77h-3a1,1,0,0,0-1,1v3a1,1,0,0,0,1,1h3a1,1,0,0,0,1-1v-3A1,1,0,0,0,68.38,42.77ZM68.67,46a1.43,1.43,0,0,1-.08.43c-.25.64-.84.68-2.43.61a1.58,1.58,0,0,1-.44-.08.93.93,0,0,1-.52-.53,8.43,8.43,0,0,1-.08-1.9,1,1,0,0,1,.29-.74,1,1,0,0,1,.75-.29c1.74-.08,2,.07,2.22.29S68.74,44.42,68.67,46Z" style="fill:#61008e"/><path d="M74.86,42.77h-3a1,1,0,0,0-1,1v3a1,1,0,0,0,1,1h3a1,1,0,0,0,1-1v-3A1,1,0,0,0,74.86,42.77Zm-1.19,3.5a1.83,1.83,0,0,1-.57-.19,1.8,1.8,0,0,1-.65,1.27,5.69,5.69,0,0,1,.32-2.2c-.24-.4,0-1.2.54-1s-.5,1.43.28,1.58S74.7,44.5,74.2,44c-.74-.73-2.2-.11-2,.93a.42.42,0,0,1-.22.53c-.25-.1-.28-.45-.26-.8a1.57,1.57,0,0,1,1.42-1.43A1.52,1.52,0,0,1,75,44.36C75.13,45.28,74.62,46.35,73.67,46.27Z" style="fill:#61008e"/><line x1="58.73" y1="80.17" x2="159.18" y2="80.17" style="fill:none;stroke:#61008e;stroke-linecap:round;stroke-linejoin:round;stroke-width:1.5px"/><line x1="58.73" y1="87.48" x2="142.09" y2="87.48" style="fill:none;stroke:#61008e;stroke-linecap:round;stroke-linejoin:round;stroke-width:1.5px"/><line x1="57.73" y1="71.25" x2="99.24" y2="71.25" style="fill:none;stroke:#61008e;stroke-miterlimit:10;stroke-width:6px"/><path d="M49.85,66.59V85l-7.77-8.52a1.44,1.44,0,0,0-2.09,0l-8.07,8.31a1.43,1.43,0,0,1-1.92.12l-6.23-5a1.42,1.42,0,0,0-1.8,0l-9.23,7.56V66.59A3.24,3.24,0,0,1,16,63.35H46.61A3.24,3.24,0,0,1,49.85,66.59Z" style="fill:#bb9dce"/><circle cx="25.55" cy="72.59" r="4.59" style="fill:#fff;stroke:#61008e;stroke-miterlimit:10;stroke-width:0.7827000000000001px"/><path d="M41,77a.43.43,0,0,1,.33.14l7.5,8.23V96.89a2.24,2.24,0,0,1-2.24,2.25H16a2.25,2.25,0,0,1-2.24-2.25V88l8.86-7.26a.42.42,0,0,1,.28-.1.38.38,0,0,1,.27.1l6.23,5a2.46,2.46,0,0,0,1.52.53,2.36,2.36,0,0,0,1.74-.74l8.07-8.3A.41.41,0,0,1,41,77m0-1a1.45,1.45,0,0,0-1,.43l-8.07,8.31a1.41,1.41,0,0,1-1,.43,1.47,1.47,0,0,1-.9-.31l-6.23-5a1.37,1.37,0,0,0-.89-.32,1.44,1.44,0,0,0-.92.33l-9.22,7.56v9.41A3.25,3.25,0,0,0,16,100.14H46.61a3.25,3.25,0,0,0,3.24-3.25V85l-7.77-8.52A1.39,1.39,0,0,0,41,76Z" style="fill:#61008e"/><path d="M46.61,64.35a2.24,2.24,0,0,1,2.24,2.24v30.3a2.24,2.24,0,0,1-2.24,2.25H16a2.24,2.24,0,0,1-2.24-2.25V66.59A2.24,2.24,0,0,1,16,64.35H46.61m0-1H16a3.24,3.24,0,0,0-3.24,3.24v30.3A3.25,3.25,0,0,0,16,100.14H46.61a3.25,3.25,0,0,0,3.24-3.25V66.59a3.24,3.24,0,0,0-3.24-3.24Z" style="fill:#61008e"/><path d="M61.89,95.36h-3a1,1,0,0,0-1,1v3a1,1,0,0,0,1,1h.83V98.25h-.71v-1h.71v-.56a1,1,0,0,1,1-1.14,3.53,3.53,0,0,1,.61,0v.69h-.35c-.35,0-.36.25-.36.5v.47h.77l-.1,1h-.67v2.13h1.18a1,1,0,0,0,1-1v-3A1,1,0,0,0,61.89,95.36Z" style="fill:#61008e"/><path d="M66.89,97.28a.59.59,0,1,0,.6.59A.59.59,0,0,0,66.89,97.28Z" style="fill:#61008e"/><path d="M67.62,96.42c-1.57-.07-1.81,0-2,.19a.77.77,0,0,0-.2.54,9.7,9.7,0,0,0,.06,1.77.57.57,0,0,0,.34.34,1.2,1.2,0,0,0,.33.06c1.58.07,2,0,2.12-.4a1.2,1.2,0,0,0,.06-.33c.07-1.56,0-1.8-.2-2A.77.77,0,0,0,67.62,96.42Zm-.73,2.37a.92.92,0,1,1,.92-.92A.92.92,0,0,1,66.89,98.79Zm1-1.66a.21.21,0,1,1,0-.42.21.21,0,1,1,0,.42Z" style="fill:#61008e"/><path d="M68.38,95.36h-3a1,1,0,0,0-1,1v3a1,1,0,0,0,1,1h3a1,1,0,0,0,1-1v-3A1,1,0,0,0,68.38,95.36Zm.29,3.24a1.58,1.58,0,0,1-.08.44c-.25.63-.84.67-2.43.6a1.58,1.58,0,0,1-.44-.08A1,1,0,0,1,65.2,99a8.45,8.45,0,0,1-.08-1.9,1,1,0,0,1,1-1c1.74-.08,2,.07,2.22.29S68.74,97,68.67,98.6Z" style="fill:#61008e"/><path d="M74.86,95.36h-3a1,1,0,0,0-1,1v3a1,1,0,0,0,1,1h3a1,1,0,0,0,1-1v-3A1,1,0,0,0,74.86,95.36Zm-1.19,3.51a1.83,1.83,0,0,1-.57-.19,1.78,1.78,0,0,1-.65,1.26,5.61,5.61,0,0,1,.32-2.19c-.24-.4,0-1.21.54-1s-.5,1.43.28,1.58,1.12-1.23.61-1.74c-.74-.73-2.2-.11-2,.93a.44.44,0,0,1-.22.54c-.25-.11-.28-.46-.26-.81a1.57,1.57,0,0,1,1.42-1.43A1.53,1.53,0,0,1,75,97C75.13,97.88,74.62,98.94,73.67,98.87Z" style="fill:#61008e"/></g><line x1="196.1" y1="5" x2="4.78" y2="125.87" style="fill:none;stroke:#61008e;stroke-miterlimit:10;stroke-width:1.98720631841685px"/></svg>