<svg id="Layer_1" data-name="Layer 1" xmlns="http://www.w3.org/2000/svg" viewBox="0 0 200 130"><rect x="0.75" y="0.75" width="198.5" height="128.5" rx="13.4" style="fill:#fff"/><path d="M185.85,1.5A12.66,12.66,0,0,1,198.5,14.15v101.7a12.66,12.66,0,0,1-12.65,12.65H14.15A12.66,12.66,0,0,1,1.5,115.85V14.15A12.66,12.66,0,0,1,14.15,1.5h171.7m0-1.5H14.15A14.14,14.14,0,0,0,0,14.15v101.7A14.14,14.14,0,0,0,14.15,130h171.7A14.14,14.14,0,0,0,200,115.85V14.15A14.14,14.14,0,0,0,185.85,0Z" style="fill:#61008e"/><path d="M128.6,73.93v1h30.63a2.24,2.24,0,0,1,2.24,2.24v30.3a2.24,2.24,0,0,1-2.24,2.24H128.6a2.24,2.24,0,0,1-2.25-2.24V77.17a2.24,2.24,0,0,1,2.25-2.24v-1m0,0a3.25,3.25,0,0,0-3.25,3.24v30.3a3.25,3.25,0,0,0,3.25,3.24h30.63a3.24,3.24,0,0,0,3.24-3.24V77.17a3.24,3.24,0,0,0-3.24-3.24Z" style="fill:#61008e"/><line x1="130.38" y1="115.74" x2="157.89" y2="115.74" style="fill:none;stroke:#61008e;stroke-linecap:round;stroke-linejoin:round;stroke-width:1.5px"/><path d="M125.89,97.71l8.69-7.21a1.43,1.43,0,0,1,1.8,0l6.24,5a1.44,1.44,0,0,0,1.92-.12L152.61,87a1.43,1.43,0,0,1,2.09,0l7.06,7.77" style="fill:none;stroke:#61008e;stroke-linecap:round;stroke-linejoin:round;stroke-width:0.7827000000000001px"/><circle cx="138.16" cy="83.17" r="4.59" style="fill:none;stroke:#61008e;stroke-miterlimit:10;stroke-width:0.7827000000000001px"/><path d="M139.52,120h-3a1,1,0,0,0-1,1v3a1,1,0,0,0,1,1h.83v-2.14h-.71v-1h.71v-.55a1,1,0,0,1,1-1.14,4.23,4.23,0,0,1,.61,0v.7h-.35c-.35,0-.35.24-.35.49v.47h.77l-.11,1h-.66V125h1.18a1,1,0,0,0,1-1v-3A1,1,0,0,0,139.52,120Z" style="fill:#61008e"/><path d="M144.52,121.86a.6.6,0,1,0,0,1.19.6.6,0,0,0,0-1.19Z" style="fill:#61008e"/><path d="M145.24,121c-1.57-.08-1.8,0-2,.19a.74.74,0,0,0-.2.54,9.76,9.76,0,0,0,.06,1.77.61.61,0,0,0,.34.33.91.91,0,0,0,.33.07c1.59.07,2,0,2.12-.4a1.3,1.3,0,0,0,.06-.33c.07-1.57,0-1.8-.19-2A.76.76,0,0,0,145.24,121Zm-.72,2.36a.92.92,0,1,1,.91-.91A.92.92,0,0,1,144.52,123.37Zm.95-1.65a.21.21,0,0,1-.21-.22.21.21,0,0,1,.42,0A.21.21,0,0,1,145.47,121.72Z" style="fill:#61008e"/><path d="M146,120h-3a1,1,0,0,0-1,1v3a1,1,0,0,0,1,1h3a1,1,0,0,0,1-1v-3A1,1,0,0,0,146,120Zm.29,3.24a1.43,1.43,0,0,1-.08.43c-.25.64-.84.68-2.43.61a1.15,1.15,0,0,1-.43-.09.91.91,0,0,1-.53-.52,8.45,8.45,0,0,1-.08-1.9A1,1,0,0,1,143,121a1.11,1.11,0,0,1,.75-.29c1.74-.08,2,.07,2.22.29S146.36,121.6,146.29,123.19Z" style="fill:#61008e"/><path d="M152.48,120h-2.95a1,1,0,0,0-1,1v3a1,1,0,0,0,1,1h2.95a1,1,0,0,0,1-1v-3A1,1,0,0,0,152.48,120Zm-1.19,3.5a1.83,1.83,0,0,1-.57-.19,1.83,1.83,0,0,1-.65,1.27,5.69,5.69,0,0,1,.32-2.2c-.24-.4,0-1.2.54-1s-.5,1.42.28,1.58,1.12-1.24.61-1.74c-.73-.74-2.2-.12-2,.92a.44.44,0,0,1-.22.54c-.25-.1-.27-.46-.26-.8a1.56,1.56,0,0,1,1.42-1.43,1.52,1.52,0,0,1,1.83,1.14C152.75,122.46,152.24,123.52,151.29,123.45Z" style="fill:#61008e"/><path d="M115.11,74.93a2.24,2.24,0,0,1,2.24,2.24v30.3a2.24,2.24,0,0,1-2.24,2.24H84.48a2.24,2.24,0,0,1-2.24-2.24V77.17a2.24,2.24,0,0,1,2.24-2.24h30.63m0-1H84.48a3.24,3.24,0,0,0-3.24,3.24v30.3a3.24,3.24,0,0,0,3.24,3.24h30.63a3.24,3.24,0,0,0,3.24-3.24V77.17a3.24,3.24,0,0,0-3.24-3.24Z" style="fill:#61008e"/><line x1="86.26" y1="115.74" x2="113.77" y2="115.74" style="fill:none;stroke:#61008e;stroke-linecap:round;stroke-linejoin:round;stroke-width:1.5px"/><path d="M81.77,97.71l8.69-7.21a1.44,1.44,0,0,1,1.81,0l6.23,5a1.44,1.44,0,0,0,1.92-.12L108.49,87a1.43,1.43,0,0,1,2.09,0l7.06,7.77" style="fill:none;stroke:#61008e;stroke-linecap:round;stroke-linejoin:round;stroke-width:0.7827000000000001px"/><circle cx="94.04" cy="83.17" r="4.59" style="fill:none;stroke:#61008e;stroke-miterlimit:10;stroke-width:0.7827000000000001px"/><path d="M95.4,120h-3a1,1,0,0,0-1,1v3a1,1,0,0,0,1,1h.84v-2.14h-.71v-1h.71v-.55a1,1,0,0,1,1-1.14,4.36,4.36,0,0,1,.61,0v.7h-.36c-.34,0-.35.24-.35.49v.47H95l-.11,1h-.66V125H95.4a1,1,0,0,0,1-1v-3A1,1,0,0,0,95.4,120Z" style="fill:#61008e"/><path d="M100.4,121.86a.6.6,0,1,0,0,1.19.6.6,0,0,0,0-1.19Z" style="fill:#61008e"/><path d="M101.12,121c-1.57-.08-1.8,0-2,.19a.78.78,0,0,0-.2.54,9.81,9.81,0,0,0,.07,1.77.58.58,0,0,0,.34.33.81.81,0,0,0,.33.07c1.58.07,1.95,0,2.11-.4a1,1,0,0,0,.06-.33c.07-1.57,0-1.8-.19-2A.75.75,0,0,0,101.12,121Zm-.72,2.36a.92.92,0,1,1,.92-.91A.92.92,0,0,1,100.4,123.37Zm.95-1.65a.21.21,0,0,1-.21-.22.21.21,0,0,1,.21-.21.22.22,0,1,1,0,.43Z" style="fill:#61008e"/><path d="M101.88,120H98.93a1,1,0,0,0-1,1v3a1,1,0,0,0,1,1h2.95a1,1,0,0,0,1-1v-3A1,1,0,0,0,101.88,120Zm.29,3.24a1.17,1.17,0,0,1-.08.43c-.25.64-.84.68-2.43.61a1.15,1.15,0,0,1-.43-.09.89.89,0,0,1-.52-.52,9.16,9.16,0,0,1-.09-1.9,1,1,0,0,1,1-1c1.75-.08,2,.07,2.22.29S102.25,121.6,102.17,123.19Z" style="fill:#61008e"/><path d="M108.36,120h-3a1,1,0,0,0-1,1v3a1,1,0,0,0,1,1h3a1,1,0,0,0,1-1v-3A1,1,0,0,0,108.36,120Zm-1.18,3.5a1.82,1.82,0,0,1-.58-.19,1.83,1.83,0,0,1-.65,1.27,5.89,5.89,0,0,1,.32-2.2c-.24-.4,0-1.2.54-1s-.5,1.42.29,1.58,1.11-1.24.6-1.74c-.73-.74-2.19-.12-2,.92a.43.43,0,0,1-.22.54c-.25-.1-.27-.45-.26-.8a1.57,1.57,0,0,1,1.43-1.43,1.51,1.51,0,0,1,1.82,1.14C108.63,122.46,108.12,123.52,107.18,123.45Z" style="fill:#61008e"/><path d="M40.36,73.93v1H71a2.24,2.24,0,0,1,2.25,2.24v30.3A2.24,2.24,0,0,1,71,109.71H40.36a2.24,2.24,0,0,1-2.24-2.24V77.17a2.24,2.24,0,0,1,2.24-2.24v-1m0,0a3.24,3.24,0,0,0-3.24,3.24v30.3a3.24,3.24,0,0,0,3.24,3.24H71a3.25,3.25,0,0,0,3.25-3.24V77.17A3.25,3.25,0,0,0,71,73.93Z" style="fill:#61008e"/><line x1="42.14" y1="115.74" x2="69.65" y2="115.74" style="fill:none;stroke:#61008e;stroke-linecap:round;stroke-linejoin:round;stroke-width:1.5px"/><path d="M37.66,97.71l8.68-7.21a1.44,1.44,0,0,1,1.81,0l6.23,5a1.44,1.44,0,0,0,1.92-.12L64.38,87a1.42,1.42,0,0,1,2.08,0l7.07,7.77" style="fill:none;stroke:#61008e;stroke-linecap:round;stroke-linejoin:round;stroke-width:0.7827000000000001px"/><circle cx="49.93" cy="83.17" r="4.59" style="fill:none;stroke:#61008e;stroke-miterlimit:10;stroke-width:0.7827000000000001px"/><path d="M51.28,120h-3a1,1,0,0,0-1,1v3a1,1,0,0,0,1,1h.83v-2.14h-.71v-1h.71v-.55a1,1,0,0,1,1-1.14,4.23,4.23,0,0,1,.61,0v.7h-.35c-.35,0-.36.24-.36.49v.47h.77l-.11,1H50.1V125h1.18a1,1,0,0,0,1-1v-3A1,1,0,0,0,51.28,120Z" style="fill:#61008e"/><path d="M56.28,121.86a.6.6,0,0,0,0,1.19.6.6,0,1,0,0-1.19Z" style="fill:#61008e"/><path d="M57,121c-1.57-.08-1.8,0-2,.19a.78.78,0,0,0-.19.54,8.93,8.93,0,0,0,.06,1.77.58.58,0,0,0,.34.33.86.86,0,0,0,.33.07c1.58.07,1.95,0,2.11-.4a.77.77,0,0,0,.06-.33c.08-1.57,0-1.8-.19-2A.73.73,0,0,0,57,121Zm-.72,2.36a.92.92,0,1,1,.92-.91A.92.92,0,0,1,56.28,123.37Zm.95-1.65a.22.22,0,1,1,.22-.22A.22.22,0,0,1,57.23,121.72Z" style="fill:#61008e"/><path d="M57.76,120H54.81a1,1,0,0,0-1,1v3a1,1,0,0,0,1,1h2.95a1,1,0,0,0,1-1v-3A1,1,0,0,0,57.76,120Zm.3,3.24a1.15,1.15,0,0,1-.09.43c-.25.64-.83.68-2.43.61a1.15,1.15,0,0,1-.43-.09.89.89,0,0,1-.52-.52,8.45,8.45,0,0,1-.08-1.9,1.08,1.08,0,0,1,.28-.75,1.13,1.13,0,0,1,.75-.29c1.75-.08,2,.07,2.23.29S58.13,121.6,58.06,123.19Z" style="fill:#61008e"/><path d="M64.25,120h-3a1,1,0,0,0-1,1v3a1,1,0,0,0,1,1h3a1,1,0,0,0,1-1v-3A1,1,0,0,0,64.25,120Zm-1.19,3.5a1.73,1.73,0,0,1-.57-.19,1.83,1.83,0,0,1-.66,1.27,5.89,5.89,0,0,1,.32-2.2c-.24-.4,0-1.2.54-1s-.49,1.42.29,1.58,1.11-1.24.6-1.74c-.73-.74-2.19-.12-2,.92a.44.44,0,0,1-.22.54c-.26-.1-.28-.46-.27-.8a1.57,1.57,0,0,1,1.43-1.43,1.53,1.53,0,0,1,1.83,1.14C64.52,122.46,64,123.52,63.06,123.45Z" style="fill:#61008e"/><path d="M128.6,19.22v1h30.63a2.25,2.25,0,0,1,2.24,2.24V52.77A2.25,2.25,0,0,1,159.23,55H128.6a2.25,2.25,0,0,1-2.25-2.24V22.46a2.25,2.25,0,0,1,2.25-2.24v-1m0,0a3.25,3.25,0,0,0-3.25,3.24V52.77A3.25,3.25,0,0,0,128.6,56h30.63a3.24,3.24,0,0,0,3.24-3.24V22.46a3.24,3.24,0,0,0-3.24-3.24Z" style="fill:#61008e"/><line x1="130.38" y1="61.03" x2="157.89" y2="61.03" style="fill:none;stroke:#61008e;stroke-linecap:round;stroke-linejoin:round;stroke-width:1.5px"/><path d="M125.89,43l8.69-7.2a1.42,1.42,0,0,1,1.8,0l6.24,4.95a1.43,1.43,0,0,0,1.92-.12l8.07-8.31a1.44,1.44,0,0,1,2.09,0l7.06,7.78" style="fill:none;stroke:#61008e;stroke-linecap:round;stroke-linejoin:round;stroke-width:0.7827000000000001px"/><circle cx="138.16" cy="28.47" r="4.59" style="fill:none;stroke:#61008e;stroke-miterlimit:10;stroke-width:0.7827000000000001px"/><path d="M139.52,65.24h-3a1,1,0,0,0-1,1v3a1,1,0,0,0,1,1h.83V68.13h-.71v-1h.71V66.6a1,1,0,0,1,1-1.14,3.53,3.53,0,0,1,.61,0v.69h-.35c-.35,0-.35.25-.35.5v.47h.77l-.11,1h-.66v2.13h1.18a1,1,0,0,0,1-1v-3A1,1,0,0,0,139.52,65.24Z" style="fill:#61008e"/><path d="M144.52,67.16a.59.59,0,1,0,0,1.18.59.59,0,0,0,0-1.18Z" style="fill:#61008e"/><path d="M145.24,66.3c-1.57-.07-1.8,0-2,.19a.77.77,0,0,0-.2.54,9.7,9.7,0,0,0,.06,1.77.6.6,0,0,0,.34.34,1.3,1.3,0,0,0,.33.06c1.59.07,2,0,2.12-.4a1.2,1.2,0,0,0,.06-.33c.07-1.57,0-1.8-.19-2A.81.81,0,0,0,145.24,66.3Zm-.72,2.36a.92.92,0,1,1,.91-.91A.92.92,0,0,1,144.52,68.66Zm.95-1.65a.21.21,0,0,1-.21-.21.21.21,0,1,1,.42,0A.21.21,0,0,1,145.47,67Z" style="fill:#61008e"/><path d="M146,65.24h-3a1,1,0,0,0-1,1v3a1,1,0,0,0,1,1h3a1,1,0,0,0,1-1v-3A1,1,0,0,0,146,65.24Zm.29,3.24a1.58,1.58,0,0,1-.08.44c-.25.63-.84.67-2.43.6a1.43,1.43,0,0,1-.43-.08.93.93,0,0,1-.53-.52,8.45,8.45,0,0,1-.08-1.9,1,1,0,0,1,1-1c1.74-.08,2,.07,2.22.29S146.36,66.89,146.29,68.48Z" style="fill:#61008e"/><path d="M152.48,65.24h-2.95a1,1,0,0,0-1,1v3a1,1,0,0,0,1,1h2.95a1,1,0,0,0,1-1v-3A1,1,0,0,0,152.48,65.24Zm-1.19,3.51a1.83,1.83,0,0,1-.57-.19,1.78,1.78,0,0,1-.65,1.26,5.61,5.61,0,0,1,.32-2.19c-.24-.4,0-1.21.54-1s-.5,1.43.29,1.58,1.11-1.23.6-1.74c-.73-.73-2.2-.11-2,.93a.44.44,0,0,1-.22.54c-.25-.11-.27-.46-.26-.81a1.57,1.57,0,0,1,1.42-1.43,1.53,1.53,0,0,1,1.83,1.14C152.75,67.76,152.24,68.82,151.29,68.75Z" style="fill:#61008e"/><path d="M84.48,19.22v1h30.63a2.24,2.24,0,0,1,2.24,2.24V52.77A2.24,2.24,0,0,1,115.11,55H84.48a2.24,2.24,0,0,1-2.24-2.24V22.46a2.24,2.24,0,0,1,2.24-2.24v-1m0,0a3.24,3.24,0,0,0-3.24,3.24V52.77A3.24,3.24,0,0,0,84.48,56h30.63a3.24,3.24,0,0,0,3.24-3.24V22.46a3.24,3.24,0,0,0-3.24-3.24Z" style="fill:#61008e"/><line x1="86.26" y1="61.03" x2="113.77" y2="61.03" style="fill:none;stroke:#61008e;stroke-linecap:round;stroke-linejoin:round;stroke-width:1.5px"/><path d="M81.77,43l8.69-7.2a1.43,1.43,0,0,1,1.81,0l6.23,4.95a1.43,1.43,0,0,0,1.92-.12l8.07-8.31a1.44,1.44,0,0,1,2.09,0l7.06,7.78" style="fill:none;stroke:#61008e;stroke-linecap:round;stroke-linejoin:round;stroke-width:0.7827000000000001px"/><circle cx="94.04" cy="28.47" r="4.59" style="fill:none;stroke:#61008e;stroke-miterlimit:10;stroke-width:0.7827000000000001px"/><path d="M95.4,65.24h-3a1,1,0,0,0-1,1v3a1,1,0,0,0,1,1h.84V68.13h-.71v-1h.71V66.6a1,1,0,0,1,1-1.14,3.65,3.65,0,0,1,.61,0v.69h-.36c-.34,0-.35.25-.35.5v.47H95l-.11,1h-.66v2.13H95.4a1,1,0,0,0,1-1v-3A1,1,0,0,0,95.4,65.24Z" style="fill:#61008e"/><path d="M100.4,67.16a.59.59,0,1,0,0,1.18.59.59,0,1,0,0-1.18Z" style="fill:#61008e"/><path d="M101.12,66.3c-1.57-.07-1.8,0-2,.19a.82.82,0,0,0-.2.54A9.74,9.74,0,0,0,99,68.8a.57.57,0,0,0,.34.34,1.12,1.12,0,0,0,.33.06c1.58.07,1.95,0,2.11-.4a.91.91,0,0,0,.06-.33c.07-1.57,0-1.8-.19-2A.79.79,0,0,0,101.12,66.3Zm-.72,2.36a.92.92,0,1,1,.92-.91A.92.92,0,0,1,100.4,68.66Zm.95-1.65a.21.21,0,0,1-.21-.21.21.21,0,0,1,.21-.22.22.22,0,0,1,.22.22A.21.21,0,0,1,101.35,67Z" style="fill:#61008e"/><path d="M101.88,65.24H98.93a1,1,0,0,0-1,1v3a1,1,0,0,0,1,1h2.95a1,1,0,0,0,1-1v-3A1,1,0,0,0,101.88,65.24Zm.29,3.24a1.28,1.28,0,0,1-.08.44c-.25.63-.84.67-2.43.6a1.43,1.43,0,0,1-.43-.08.92.92,0,0,1-.52-.52,9.16,9.16,0,0,1-.09-1.9,1.11,1.11,0,0,1,.29-.75,1,1,0,0,1,.75-.29c1.75-.08,2,.07,2.22.29S102.25,66.89,102.17,68.48Z" style="fill:#61008e"/><path d="M108.36,65.24h-3a1,1,0,0,0-1,1v3a1,1,0,0,0,1,1h3a1,1,0,0,0,1-1v-3A1,1,0,0,0,108.36,65.24Zm-1.18,3.51a1.82,1.82,0,0,1-.58-.19,1.78,1.78,0,0,1-.65,1.26,5.8,5.8,0,0,1,.32-2.19c-.24-.4,0-1.21.54-1s-.5,1.43.29,1.58,1.11-1.23.6-1.74c-.73-.73-2.19-.11-2,.93a.43.43,0,0,1-.22.54c-.25-.11-.27-.46-.26-.81a1.58,1.58,0,0,1,1.43-1.43,1.52,1.52,0,0,1,1.82,1.14C108.63,67.76,108.12,68.82,107.18,68.75Z" style="fill:#61008e"/><path d="M71,20.22a2.25,2.25,0,0,1,2.25,2.24V52.77A2.25,2.25,0,0,1,71,55H40.36a2.24,2.24,0,0,1-2.24-2.24V22.46a2.24,2.24,0,0,1,2.24-2.24H71m0-1H40.36a3.24,3.24,0,0,0-3.24,3.24V52.77A3.24,3.24,0,0,0,40.36,56H71a3.25,3.25,0,0,0,3.25-3.24V22.46A3.25,3.25,0,0,0,71,19.22Z" style="fill:#61008e"/><line x1="42.14" y1="61.03" x2="69.65" y2="61.03" style="fill:none;stroke:#61008e;stroke-linecap:round;stroke-linejoin:round;stroke-width:1.5px"/><path d="M37.66,43l8.68-7.2a1.43,1.43,0,0,1,1.81,0l6.23,4.95a1.43,1.43,0,0,0,1.92-.12l8.08-8.31a1.43,1.43,0,0,1,2.08,0l7.07,7.78" style="fill:none;stroke:#61008e;stroke-linecap:round;stroke-linejoin:round;stroke-width:0.7827000000000001px"/><circle cx="49.93" cy="28.47" r="4.59" style="fill:none;stroke:#61008e;stroke-miterlimit:10;stroke-width:0.7827000000000001px"/><path d="M51.28,65.24h-3a1,1,0,0,0-1,1v3a1,1,0,0,0,1,1h.83V68.13h-.71v-1h.71V66.6a1,1,0,0,1,1-1.14,3.53,3.53,0,0,1,.61,0v.69h-.35c-.35,0-.36.25-.36.5v.47h.77l-.11,1H50.1v2.13h1.18a1,1,0,0,0,1-1v-3A1,1,0,0,0,51.28,65.24Z" style="fill:#61008e"/><path d="M56.28,67.16a.59.59,0,0,0,0,1.18.59.59,0,1,0,0-1.18Z" style="fill:#61008e"/><path d="M57,66.3c-1.57-.07-1.8,0-2,.19a.79.79,0,0,0-.19.54,8.88,8.88,0,0,0,.06,1.77.57.57,0,0,0,.34.34,1.2,1.2,0,0,0,.33.06c1.58.07,1.95,0,2.11-.4a.73.73,0,0,0,.06-.33c.08-1.57,0-1.8-.19-2A.78.78,0,0,0,57,66.3Zm-.72,2.36a.92.92,0,1,1,.92-.91A.92.92,0,0,1,56.28,68.66ZM57.23,67A.21.21,0,0,1,57,66.8a.22.22,0,1,1,.43,0A.21.21,0,0,1,57.23,67Z" style="fill:#61008e"/><path d="M57.76,65.24H54.81a1,1,0,0,0-1,1v3a1,1,0,0,0,1,1h2.95a1,1,0,0,0,1-1v-3A1,1,0,0,0,57.76,65.24Zm.3,3.24a1.26,1.26,0,0,1-.09.44c-.25.63-.83.67-2.43.6a1.43,1.43,0,0,1-.43-.08.92.92,0,0,1-.52-.52,8.45,8.45,0,0,1-.08-1.9,1.06,1.06,0,0,1,.28-.75,1,1,0,0,1,.75-.29c1.75-.08,2,.07,2.23.29S58.13,66.89,58.06,68.48Z" style="fill:#61008e"/><path d="M64.25,65.24h-3a1,1,0,0,0-1,1v3a1,1,0,0,0,1,1h3a1,1,0,0,0,1-1v-3A1,1,0,0,0,64.25,65.24Zm-1.19,3.51a1.73,1.73,0,0,1-.57-.19,1.79,1.79,0,0,1-.66,1.26,5.8,5.8,0,0,1,.32-2.19c-.24-.4,0-1.21.54-1s-.49,1.43.29,1.58,1.11-1.23.6-1.74c-.73-.73-2.19-.11-2,.93a.44.44,0,0,1-.22.54c-.26-.11-.28-.46-.27-.81a1.58,1.58,0,0,1,1.43-1.43,1.54,1.54,0,0,1,1.83,1.14C64.52,67.76,64,68.82,63.06,68.75Z" style="fill:#61008e"/><rect x="57.02" y="6.25" width="18.72" height="5.24" rx="2.62" style="fill:#61008e"/><rect x="79.11" y="6.25" width="18.72" height="5.24" rx="2.62" style="fill:#61008e"/><rect x="101.2" y="6.25" width="18.72" height="5.24" rx="2.62" style="fill:#61008e"/><rect x="123.28" y="6.25" width="18.72" height="5.24" rx="2.62" style="fill:#61008e"/></svg>