<svg id="Layer_1" data-name="Layer 1" xmlns="http://www.w3.org/2000/svg" viewBox="0 0 200 130"><rect x="0.75" y="0.75" width="198.5" height="128.5" rx="13.4" style="fill:#fff"/><path d="M185.85,1.5A12.66,12.66,0,0,1,198.5,14.15v101.7a12.66,12.66,0,0,1-12.65,12.65H14.15A12.66,12.66,0,0,1,1.5,115.85V14.15A12.66,12.66,0,0,1,14.15,1.5h171.7m0-1.5H14.15A14.14,14.14,0,0,0,0,14.15v101.7A14.14,14.14,0,0,0,14.15,130h171.7A14.14,14.14,0,0,0,200,115.85V14.15A14.14,14.14,0,0,0,185.85,0Z" style="fill:#61008e"/><rect x="62.27" y="8.97" width="37.68" height="37.35" style="fill:#61008e"/><line x1="66.41" y1="24.42" x2="95.24" y2="24.42" style="fill:none;stroke:#fff;stroke-linecap:round;stroke-linejoin:round;stroke-width:2.11810559034348px"/><line x1="66.41" y1="30.88" x2="82.69" y2="30.88" style="fill:none;stroke:#fff;stroke-linecap:round;stroke-linejoin:round;stroke-width:2.11810559034348px"/><line x1="65.68" y1="14.97" x2="96.16" y2="14.97" style="fill:none;stroke:#fff;stroke-miterlimit:10;stroke-width:5.64828157424927px"/><path d="M61.32,10V45.32H25.63V10H61.32m1-1H24.63V46.32H62.32V9Z" style="fill:#61008e"/><path d="M25.18,33.12,34,25.8a1.46,1.46,0,0,1,1.83,0l6.33,5a1.46,1.46,0,0,0,2-.13l8.19-8.43a1.46,1.46,0,0,1,2.12,0l2.71,3" style="fill:none;stroke:#61008e;stroke-linecap:round;stroke-linejoin:round"/><circle cx="37.64" cy="18.36" r="4.66" style="fill:none;stroke:#61008e;stroke-miterlimit:10"/><path d="M69.47,36.51h-3a1,1,0,0,0-1,1.05v3a1,1,0,0,0,1,1h.85V39.44H66.6v-1h.72v-.57c0-.75.4-1.16,1.05-1.16a3.71,3.71,0,0,1,.62,0v.7h-.36c-.35,0-.36.25-.36.51v.48h.79l-.11,1h-.68v2.17h1.2a1,1,0,0,0,1-1v-3A1,1,0,0,0,69.47,36.51Z" style="fill:#fff"/><path d="M74.55,38.45a.61.61,0,1,0,.6.61A.61.61,0,0,0,74.55,38.45Z" style="fill:#fff"/><path d="M75.28,37.58c-1.59-.07-1.83,0-2,.2a.77.77,0,0,0-.2.54,10,10,0,0,0,.06,1.8.67.67,0,0,0,.35.35,1.22,1.22,0,0,0,.34.06c1.6.07,2,0,2.14-.41a.73.73,0,0,0,.06-.33c.08-1.59,0-1.83-.19-2A.78.78,0,0,0,75.28,37.58ZM74.55,40a.93.93,0,1,1,.93-.92A.92.92,0,0,1,74.55,40Zm1-1.67a.22.22,0,0,1,0-.44.22.22,0,0,1,0,.44Z" style="fill:#fff"/><path d="M76.05,36.51h-3a1,1,0,0,0-1,1.05v3a1,1,0,0,0,1,1h3a1,1,0,0,0,1-1v-3A1,1,0,0,0,76.05,36.51Zm.3,3.29a1.51,1.51,0,0,1-.08.44c-.26.65-.85.69-2.47.61a1.58,1.58,0,0,1-.44-.08.92.92,0,0,1-.53-.53,8.71,8.71,0,0,1-.08-1.93,1.06,1.06,0,0,1,.29-.76,1,1,0,0,1,.76-.29c1.77-.08,2,.07,2.26.29S76.42,38.18,76.35,39.8Z" style="fill:#fff"/><path d="M82.63,36.51h-3a1,1,0,0,0-1,1.05v3a1,1,0,0,0,1,1h3a1,1,0,0,0,1.05-1v-3A1,1,0,0,0,82.63,36.51Zm-1.2,3.56a1.74,1.74,0,0,1-.58-.2,1.83,1.83,0,0,1-.67,1.29,6,6,0,0,1,.33-2.23c-.24-.41,0-1.22.55-1s-.51,1.45.29,1.61,1.13-1.26.61-1.77c-.74-.75-2.23-.12-2,.94a.44.44,0,0,1-.23.54c-.25-.1-.28-.46-.27-.81A1.59,1.59,0,0,1,80.92,37a1.55,1.55,0,0,1,1.86,1.15C82.91,39.06,82.39,40.14,81.43,40.07Z" style="fill:#fff"/><path d="M61.35,24.25,58,27.55A1,1,0,0,0,58,29l3.31,3.31" style="fill:#61008e"/><path d="M99,47.32V82.68H63.32V47.32H99m1-1H62.32V83.68H100V46.32Z" style="fill:#61008e"/><path d="M69,65.36l2.66-2.2a1.46,1.46,0,0,1,1.84,0l6.32,5a1.46,1.46,0,0,0,2-.13L90,59.61a1.45,1.45,0,0,1,2.12,0l7.13,7.4" style="fill:none;stroke:#61008e;stroke-linecap:round;stroke-linejoin:round"/><circle cx="75.32" cy="55.71" r="4.66" style="fill:none;stroke:#61008e;stroke-miterlimit:10"/><rect x="24.63" y="46.32" width="37.68" height="37.35" style="fill:#61008e"/><line x1="28.77" y1="61.77" x2="57.6" y2="61.77" style="fill:none;stroke:#fff;stroke-linecap:round;stroke-linejoin:round;stroke-width:2.11810559034348px"/><line x1="28.77" y1="68.23" x2="45.05" y2="68.23" style="fill:none;stroke:#fff;stroke-linecap:round;stroke-linejoin:round;stroke-width:2.11810559034348px"/><line x1="28.04" y1="52.32" x2="58.52" y2="52.32" style="fill:none;stroke:#fff;stroke-miterlimit:10;stroke-width:5.64828157424927px"/><path d="M31.83,73.86h-3a1,1,0,0,0-1,1v3a1,1,0,0,0,1,1h.85V76.79H29v-1h.72v-.57a1,1,0,0,1,1.05-1.15,4.43,4.43,0,0,1,.62,0v.7H31c-.35,0-.36.25-.36.51v.48h.79l-.11,1h-.68V79h1.2a1,1,0,0,0,1.05-1v-3A1,1,0,0,0,31.83,73.86Z" style="fill:#fff"/><path d="M36.91,75.8a.61.61,0,1,0,.6.61A.61.61,0,0,0,36.91,75.8Z" style="fill:#fff"/><path d="M37.64,74.93c-1.59-.07-1.83,0-2,.2a.78.78,0,0,0-.2.55,9.92,9.92,0,0,0,.06,1.79.67.67,0,0,0,.35.35,1.22,1.22,0,0,0,.34.06c1.6.07,2,0,2.14-.41a.73.73,0,0,0,.06-.33c.08-1.59,0-1.83-.19-2A.83.83,0,0,0,37.64,74.93Zm-.73,2.41a.93.93,0,1,1,.93-.93A.93.93,0,0,1,36.91,77.34Zm1-1.68a.22.22,0,0,1,0-.44.22.22,0,0,1,0,.44Z" style="fill:#fff"/><path d="M38.41,73.86h-3a1,1,0,0,0-1,1v3a1,1,0,0,0,1,1h3a1,1,0,0,0,1.05-1v-3A1,1,0,0,0,38.41,73.86Zm.3,3.29a1.44,1.44,0,0,1-.08.44c-.26.65-.85.69-2.47.61a1.08,1.08,0,0,1-.44-.08.92.92,0,0,1-.53-.53,8.71,8.71,0,0,1-.08-1.93,1.06,1.06,0,0,1,.29-.76,1.09,1.09,0,0,1,.76-.29c1.77-.08,2,.07,2.26.29S38.78,75.53,38.71,77.15Z" style="fill:#fff"/><path d="M45,73.86H42a1,1,0,0,0-1,1v3a1,1,0,0,0,1,1h3a1,1,0,0,0,1-1v-3A1,1,0,0,0,45,73.86Zm-1.2,3.56a1.82,1.82,0,0,1-.58-.19,1.83,1.83,0,0,1-.67,1.28,6,6,0,0,1,.33-2.23c-.24-.4,0-1.22.55-1s-.51,1.45.29,1.61,1.13-1.26.61-1.77c-.74-.75-2.23-.12-2,.94a.45.45,0,0,1-.23.55c-.25-.11-.28-.47-.27-.82a1.59,1.59,0,0,1,1.45-1.45,1.55,1.55,0,0,1,1.86,1.16C45.27,76.41,44.75,77.49,43.79,77.42Z" style="fill:#fff"/><path d="M63.26,69.67l3.31-3.31a1,1,0,0,0,0-1.45L63.26,61.6" style="fill:#61008e"/><path d="M174.37,47.32V82.68H138.68V47.32h35.69m1-1H137.68V83.68h37.69V46.32Z" style="fill:#61008e"/><path d="M144.39,65.36l2.66-2.2a1.45,1.45,0,0,1,1.83,0l6.33,5a1.46,1.46,0,0,0,1.95-.13l8.2-8.43a1.45,1.45,0,0,1,2.12,0l7.13,7.4" style="fill:none;stroke:#61008e;stroke-linecap:round;stroke-linejoin:round"/><circle cx="150.69" cy="55.71" r="4.66" style="fill:none;stroke:#61008e;stroke-miterlimit:10"/><rect x="100" y="46.32" width="37.68" height="37.35" style="fill:#61008e"/><line x1="104.14" y1="61.77" x2="132.97" y2="61.77" style="fill:none;stroke:#fff;stroke-linecap:round;stroke-linejoin:round;stroke-width:2.11810559034348px"/><line x1="104.14" y1="68.23" x2="120.42" y2="68.23" style="fill:none;stroke:#fff;stroke-linecap:round;stroke-linejoin:round;stroke-width:2.11810559034348px"/><line x1="103.41" y1="52.32" x2="133.89" y2="52.32" style="fill:none;stroke:#fff;stroke-miterlimit:10;stroke-width:5.64828157424927px"/><path d="M107.2,73.86h-3a1,1,0,0,0-1,1v3a1,1,0,0,0,1,1H105V76.79h-.72v-1H105v-.57a1,1,0,0,1,1.06-1.15,4.43,4.43,0,0,1,.62,0v.7h-.36c-.35,0-.36.25-.36.51v.48h.78l-.11,1H106V79h1.2a1,1,0,0,0,1-1v-3A1,1,0,0,0,107.2,73.86Z" style="fill:#fff"/><path d="M112.28,75.8a.61.61,0,1,0,.6.61A.61.61,0,0,0,112.28,75.8Z" style="fill:#fff"/><path d="M113,74.93c-1.6-.07-1.83,0-2,.2a.78.78,0,0,0-.2.55,9.08,9.08,0,0,0,.06,1.79.63.63,0,0,0,.35.35,1.2,1.2,0,0,0,.33.06c1.61.07,2,0,2.15-.41a1.2,1.2,0,0,0,.06-.33c.08-1.59,0-1.83-.2-2A.78.78,0,0,0,113,74.93Zm-.73,2.41a.93.93,0,1,1,.93-.93A.93.93,0,0,1,112.28,77.34Zm1-1.68a.22.22,0,0,1,0-.44.22.22,0,1,1,0,.44Z" style="fill:#fff"/><path d="M113.78,73.86h-3a1,1,0,0,0-1,1v3a1,1,0,0,0,1,1h3a1,1,0,0,0,1-1v-3A1,1,0,0,0,113.78,73.86Zm.3,3.29a1.16,1.16,0,0,1-.09.44c-.25.65-.85.69-2.46.61a1,1,0,0,1-.44-.08.9.9,0,0,1-.53-.53,9.44,9.44,0,0,1-.09-1.93,1.12,1.12,0,0,1,.3-.76,1.07,1.07,0,0,1,.76-.29c1.77-.08,2,.07,2.25.29S114.15,75.53,114.08,77.15Z" style="fill:#fff"/><path d="M120.36,73.86h-3a1,1,0,0,0-1,1v3a1,1,0,0,0,1,1h3a1,1,0,0,0,1-1v-3A1,1,0,0,0,120.36,73.86Zm-1.2,3.56a1.82,1.82,0,0,1-.58-.19,1.87,1.87,0,0,1-.67,1.28,6,6,0,0,1,.33-2.23c-.25-.4,0-1.22.55-1s-.51,1.45.29,1.61,1.13-1.26.61-1.77c-.74-.75-2.23-.12-2,.94a.44.44,0,0,1-.22.55c-.26-.11-.28-.47-.27-.82a1.59,1.59,0,0,1,1.45-1.45,1.55,1.55,0,0,1,1.86,1.16C120.64,76.41,120.12,77.49,119.16,77.42Z" style="fill:#fff"/><path d="M138.63,69.67l3.31-3.31a1,1,0,0,0,0-1.45l-3.31-3.31" style="fill:#61008e"/><rect x="137.6" y="8.97" width="37.68" height="37.35" style="fill:#61008e"/><line x1="141.74" y1="24.42" x2="170.57" y2="24.42" style="fill:none;stroke:#fff;stroke-linecap:round;stroke-linejoin:round;stroke-width:2.11810559034348px"/><line x1="141.74" y1="30.88" x2="158.02" y2="30.88" style="fill:none;stroke:#fff;stroke-linecap:round;stroke-linejoin:round;stroke-width:2.11810559034348px"/><line x1="141" y1="14.97" x2="171.49" y2="14.97" style="fill:none;stroke:#fff;stroke-miterlimit:10;stroke-width:5.64828157424927px"/><path d="M136.64,10V45.32H101V10h35.68m1-1H100V46.32h37.68V9Z" style="fill:#61008e"/><path d="M100.5,33.12l8.82-7.32a1.47,1.47,0,0,1,1.84,0l6.32,5a1.46,1.46,0,0,0,2-.13l8.2-8.43a1.46,1.46,0,0,1,2.12,0l2.7,3" style="fill:none;stroke:#61008e;stroke-linecap:round;stroke-linejoin:round"/><circle cx="112.96" cy="18.36" r="4.66" style="fill:none;stroke:#61008e;stroke-miterlimit:10"/><path d="M144.8,36.51h-3a1,1,0,0,0-1.05,1.05v3a1,1,0,0,0,1.05,1h.84V39.44h-.72v-1h.72v-.57a1,1,0,0,1,1.06-1.16,3.71,3.71,0,0,1,.62,0v.7H144c-.36,0-.36.25-.36.51v.48h.78l-.11,1h-.67v2.17h1.2a1,1,0,0,0,1-1v-3A1,1,0,0,0,144.8,36.51Z" style="fill:#fff"/><path d="M149.87,38.45a.61.61,0,1,0,.61.61A.6.6,0,0,0,149.87,38.45Z" style="fill:#fff"/><path d="M150.6,37.58c-1.59-.07-1.82,0-2,.2a.81.81,0,0,0-.19.54,9.16,9.16,0,0,0,.06,1.8.62.62,0,0,0,.34.35,1.3,1.3,0,0,0,.34.06c1.6.07,2,0,2.15-.41a1.2,1.2,0,0,0,.06-.33c.07-1.59,0-1.83-.2-2A.78.78,0,0,0,150.6,37.58Zm-.73,2.4a.93.93,0,1,1,.93-.92A.93.93,0,0,1,149.87,40Zm1-1.67a.22.22,0,1,1,.22-.22A.22.22,0,0,1,150.84,38.31Z" style="fill:#fff"/><path d="M151.38,36.51h-3a1,1,0,0,0-1,1.05v3a1,1,0,0,0,1,1h3a1,1,0,0,0,1.05-1v-3A1,1,0,0,0,151.38,36.51Zm.29,3.29a1.23,1.23,0,0,1-.08.44c-.25.65-.85.69-2.47.61a1.58,1.58,0,0,1-.44-.08,1,1,0,0,1-.53-.53,8.71,8.71,0,0,1-.08-1.93,1,1,0,0,1,1.05-1.05c1.78-.08,2,.07,2.26.29S151.75,38.18,151.67,39.8Z" style="fill:#fff"/><path d="M158,36.51h-3a1,1,0,0,0-1.05,1.05v3a1,1,0,0,0,1.05,1h3a1,1,0,0,0,1-1v-3A1,1,0,0,0,158,36.51Zm-1.21,3.56a1.74,1.74,0,0,1-.58-.2,1.86,1.86,0,0,1-.66,1.29,5.66,5.66,0,0,1,.33-2.23c-.25-.41,0-1.22.54-1s-.5,1.45.29,1.61,1.13-1.26.62-1.77c-.75-.75-2.23-.12-2,.94a.44.44,0,0,1-.22.54c-.26-.1-.29-.46-.27-.81A1.59,1.59,0,0,1,156.24,37a1.55,1.55,0,0,1,1.86,1.15C158.23,39.06,157.71,40.14,156.75,40.07Z" style="fill:#fff"/><path d="M136.71,24.25l-3.31,3.3a1,1,0,0,0,0,1.46l3.31,3.31" style="fill:#61008e"/><rect x="62.27" y="83.68" width="37.68" height="37.35" style="fill:#61008e"/><line x1="66.41" y1="99.12" x2="95.24" y2="99.12" style="fill:none;stroke:#fff;stroke-linecap:round;stroke-linejoin:round;stroke-width:2.11810559034348px"/><line x1="66.41" y1="105.58" x2="82.69" y2="105.58" style="fill:none;stroke:#fff;stroke-linecap:round;stroke-linejoin:round;stroke-width:2.11810559034348px"/><line x1="65.68" y1="89.67" x2="96.16" y2="89.67" style="fill:none;stroke:#fff;stroke-miterlimit:10;stroke-width:5.64828157424927px"/><path d="M61.32,84.68V120H25.63V84.68H61.32m1-1H24.63V121H62.32V83.68Z" style="fill:#61008e"/><path d="M25.18,107.82,34,100.51a1.45,1.45,0,0,1,1.83,0l6.33,5a1.46,1.46,0,0,0,2-.13L52.3,97a1.46,1.46,0,0,1,2.12,0l2.71,3" style="fill:none;stroke:#61008e;stroke-linecap:round;stroke-linejoin:round"/><circle cx="37.64" cy="93.06" r="4.66" style="fill:none;stroke:#61008e;stroke-miterlimit:10"/><path d="M69.47,111.21h-3a1,1,0,0,0-1,1.05v3a1,1,0,0,0,1,1h.85v-2.17H66.6v-1h.72v-.57a1,1,0,0,1,1.05-1.15,4.43,4.43,0,0,1,.62,0v.7h-.36c-.35,0-.36.26-.36.51v.48h.79l-.11,1h-.68v2.17h1.2a1,1,0,0,0,1-1v-3A1,1,0,0,0,69.47,111.21Z" style="fill:#fff"/><path d="M74.55,113.16a.6.6,0,1,0,.6.6A.6.6,0,0,0,74.55,113.16Z" style="fill:#fff"/><path d="M75.28,112.29c-1.59-.08-1.83,0-2,.19a.78.78,0,0,0-.2.55,10.06,10.06,0,0,0,.06,1.8.62.62,0,0,0,.35.34,1.22,1.22,0,0,0,.34.06c1.6.07,2,0,2.14-.4a.79.79,0,0,0,.06-.34c.08-1.59,0-1.83-.19-2A.82.82,0,0,0,75.28,112.29Zm-.73,2.4a.93.93,0,1,1,.93-.93A.93.93,0,0,1,74.55,114.69Zm1-1.68a.22.22,0,0,1-.22-.22.21.21,0,0,1,.22-.21.21.21,0,0,1,.21.21A.21.21,0,0,1,75.52,113Z" style="fill:#fff"/><path d="M76.05,111.21h-3a1,1,0,0,0-1,1.05v3a1,1,0,0,0,1,1h3a1,1,0,0,0,1-1v-3A1,1,0,0,0,76.05,111.21Zm.3,3.29a1.44,1.44,0,0,1-.08.44c-.26.65-.85.69-2.47.62a1.26,1.26,0,0,1-.44-.09.9.9,0,0,1-.53-.53,8.69,8.69,0,0,1-.08-1.93,1.06,1.06,0,0,1,.29-.76,1.09,1.09,0,0,1,.76-.29c1.77-.08,2,.07,2.26.29S76.42,112.89,76.35,114.5Z" style="fill:#fff"/><path d="M82.63,111.21h-3a1,1,0,0,0-1,1.05v3a1,1,0,0,0,1,1h3a1,1,0,0,0,1.05-1v-3A1,1,0,0,0,82.63,111.21Zm-1.2,3.56a1.82,1.82,0,0,1-.58-.19,1.81,1.81,0,0,1-.67,1.28,6,6,0,0,1,.33-2.23c-.24-.4,0-1.22.55-1s-.51,1.45.29,1.61,1.13-1.26.61-1.77c-.74-.74-2.23-.11-2,.94a.45.45,0,0,1-.23.55c-.25-.11-.28-.47-.27-.82a1.59,1.59,0,0,1,1.45-1.45,1.55,1.55,0,0,1,1.86,1.16C82.91,113.77,82.39,114.84,81.43,114.77Z" style="fill:#fff"/><path d="M61.35,99,58,102.26a1,1,0,0,0,0,1.45L61.35,107" style="fill:#61008e"/><rect x="137.6" y="83.68" width="37.68" height="37.35" style="fill:#61008e"/><line x1="141.74" y1="99.12" x2="170.57" y2="99.12" style="fill:none;stroke:#fff;stroke-linecap:round;stroke-linejoin:round;stroke-width:2.11810559034348px"/><line x1="141.74" y1="105.58" x2="158.02" y2="105.58" style="fill:none;stroke:#fff;stroke-linecap:round;stroke-linejoin:round;stroke-width:2.11810559034348px"/><line x1="141" y1="89.67" x2="171.49" y2="89.67" style="fill:none;stroke:#fff;stroke-miterlimit:10;stroke-width:5.64828157424927px"/><path d="M136.64,84.68V120H101V84.68h35.68m1-1H100V121h37.68V83.68Z" style="fill:#61008e"/><path d="M100.5,107.82l8.82-7.31a1.46,1.46,0,0,1,1.84,0l6.32,5a1.46,1.46,0,0,0,2-.13l8.2-8.43a1.46,1.46,0,0,1,2.12,0l2.7,3" style="fill:none;stroke:#61008e;stroke-linecap:round;stroke-linejoin:round"/><circle cx="112.96" cy="93.06" r="4.66" style="fill:none;stroke:#61008e;stroke-miterlimit:10"/><path d="M144.8,111.21h-3a1,1,0,0,0-1.05,1.05v3a1,1,0,0,0,1.05,1h.84v-2.17h-.72v-1h.72v-.57a1,1,0,0,1,1.06-1.15,4.43,4.43,0,0,1,.62,0v.7H144c-.36,0-.36.26-.36.51v.48h.78l-.11,1h-.67v2.17h1.2a1,1,0,0,0,1-1v-3A1,1,0,0,0,144.8,111.21Z" style="fill:#fff"/><path d="M149.87,113.16a.6.6,0,1,0,.61.6A.6.6,0,0,0,149.87,113.16Z" style="fill:#fff"/><path d="M150.6,112.29c-1.59-.08-1.82,0-2,.19a.82.82,0,0,0-.19.55,9.21,9.21,0,0,0,.06,1.8.57.57,0,0,0,.34.34,1.3,1.3,0,0,0,.34.06c1.6.07,2,0,2.15-.4a1.3,1.3,0,0,0,.06-.34c.07-1.59,0-1.83-.2-2A.82.82,0,0,0,150.6,112.29Zm-.73,2.4a.93.93,0,1,1,.93-.93A.93.93,0,0,1,149.87,114.69Zm1-1.68a.22.22,0,0,1-.22-.22.22.22,0,0,1,.44,0A.22.22,0,0,1,150.84,113Z" style="fill:#fff"/><path d="M151.38,111.21h-3a1,1,0,0,0-1,1.05v3a1,1,0,0,0,1,1h3a1,1,0,0,0,1.05-1v-3A1,1,0,0,0,151.38,111.21Zm.29,3.29a1.19,1.19,0,0,1-.08.44c-.25.65-.85.69-2.47.62a1.26,1.26,0,0,1-.44-.09.92.92,0,0,1-.53-.53,8.69,8.69,0,0,1-.08-1.93,1.06,1.06,0,0,1,.29-.76,1.11,1.11,0,0,1,.76-.29c1.78-.08,2,.07,2.26.29S151.75,112.89,151.67,114.5Z" style="fill:#fff"/><path d="M158,111.21h-3a1,1,0,0,0-1.05,1.05v3a1,1,0,0,0,1.05,1h3a1,1,0,0,0,1-1v-3A1,1,0,0,0,158,111.21Zm-1.21,3.56a1.82,1.82,0,0,1-.58-.19,1.84,1.84,0,0,1-.66,1.28,5.66,5.66,0,0,1,.33-2.23c-.25-.4,0-1.22.54-1s-.5,1.45.29,1.61,1.13-1.26.62-1.77c-.75-.74-2.23-.11-2,.94a.44.44,0,0,1-.22.55c-.26-.11-.29-.47-.27-.82a1.59,1.59,0,0,1,1.44-1.45,1.55,1.55,0,0,1,1.86,1.16C158.23,113.77,157.71,114.84,156.75,114.77Z" style="fill:#fff"/><path d="M136.71,99l-3.31,3.31a1,1,0,0,0,0,1.45l3.31,3.31" style="fill:#61008e"/></svg>