<svg id="Layer_1" data-name="Layer 1" xmlns="http://www.w3.org/2000/svg" xmlns:xlink="http://www.w3.org/1999/xlink" viewBox="0 0 200 130"><defs><clipPath id="clip-path"><path d="M-219.17-153.46h79.26a1.13,1.13,0,0,1,1.13,1.13v124a1.13,1.13,0,0,1-1.13,1.13H-217.5A13.83,13.83,0,0,1-231.32-41V-141.3A12.16,12.16,0,0,1-219.17-153.46Z" style="fill:none"/></clipPath><clipPath id="clip-path-2"><rect x="96.51" y="90.1" width="88.59" height="26.08" rx="5.8" style="fill:none;stroke:#61008e;stroke-miterlimit:10"/></clipPath></defs><rect x="0.75" y="0.75" width="198.5" height="128.5" rx="13.4" style="fill:#fff"/><path d="M185.85,1.5A12.66,12.66,0,0,1,198.5,14.15v101.7a12.66,12.66,0,0,1-12.65,12.65H14.15A12.66,12.66,0,0,1,1.5,115.85V14.15A12.66,12.66,0,0,1,14.15,1.5h171.7m0-1.5H14.15A14.14,14.14,0,0,0,0,14.15v101.7A14.14,14.14,0,0,0,14.15,130h171.7A14.14,14.14,0,0,0,200,115.85V14.15A14.14,14.14,0,0,0,185.85,0Z" style="fill:#61008e"/><line x1="44.09" y1="25.81" x2="72.31" y2="25.81" style="fill:none;stroke:#61008e;stroke-linecap:round;stroke-linejoin:round;stroke-width:1.5px"/><line x1="44.09" y1="30.39" x2="60.03" y2="30.39" style="fill:none;stroke:#61008e;stroke-linecap:round;stroke-linejoin:round;stroke-width:1.5px"/><line x1="43.37" y1="19.12" x2="73.21" y2="19.12" style="fill:none;stroke:#61008e;stroke-miterlimit:10;stroke-width:4px"/><path d="M35.38,15.87a1.34,1.34,0,0,1,1.33,1.34V39a1.34,1.34,0,0,1-1.33,1.33h-22A1.34,1.34,0,0,1,12,39V17.21a1.34,1.34,0,0,1,1.33-1.34h22m0-1h-22A2.34,2.34,0,0,0,11,17.21V39a2.34,2.34,0,0,0,2.33,2.33h22A2.33,2.33,0,0,0,37.71,39V17.21a2.33,2.33,0,0,0-2.33-2.34Z" style="fill:#61008e"/><path d="M11.41,32l6.24-5.19a1,1,0,0,1,1.3,0l4.48,3.56a1,1,0,0,0,1.38-.08l5.81-6a1,1,0,0,1,1.5,0L37.2,29.9" style="fill:none;stroke:#61008e;stroke-linecap:round;stroke-linejoin:round;stroke-width:0.7827000000000001px"/><circle cx="20.23" cy="21.52" r="3.3" style="fill:none;stroke:#61008e;stroke-miterlimit:10;stroke-width:0.7827000000000001px"/><path d="M46.36,34.9H44.24a.74.74,0,0,0-.74.74v2.12a.75.75,0,0,0,.74.75h.6V37h-.51v-.69h.51v-.41a.71.71,0,0,1,.75-.81,2.62,2.62,0,0,1,.43,0v.5h-.25c-.25,0-.26.18-.26.36v.34h.56L46,37h-.48v1.54h.85a.76.76,0,0,0,.75-.75V35.64A.75.75,0,0,0,46.36,34.9Z" style="fill:#61008e"/><path d="M50,36.27a.43.43,0,0,0,0,.86.43.43,0,0,0,0-.86Z" style="fill:#61008e"/><path d="M50.48,35.66c-1.13,0-1.3,0-1.43.14a.57.57,0,0,0-.14.38A7,7,0,0,0,49,37.46a.43.43,0,0,0,.24.24.57.57,0,0,0,.24,0c1.14.06,1.4,0,1.52-.28a.61.61,0,0,0,0-.24c0-1.13,0-1.29-.14-1.42A.49.49,0,0,0,50.48,35.66ZM50,37.36a.66.66,0,1,1,.66-.66A.66.66,0,0,1,50,37.36Zm.68-1.19a.15.15,0,0,1-.15-.15.16.16,0,0,1,.15-.16.16.16,0,0,1,.16.16A.16.16,0,0,1,50.64,36.17Z" style="fill:#61008e"/><path d="M51,34.9H48.9a.74.74,0,0,0-.74.74v2.12a.75.75,0,0,0,.74.75H51a.76.76,0,0,0,.75-.75V35.64A.75.75,0,0,0,51,34.9Zm.21,2.33a.68.68,0,0,1-.06.31c-.17.46-.6.49-1.74.43a.66.66,0,0,1-.31-.06.63.63,0,0,1-.38-.37,6.64,6.64,0,0,1-.06-1.37.76.76,0,0,1,.21-.54.8.8,0,0,1,.54-.2c1.25-.06,1.44,0,1.6.2S51.29,36.08,51.23,37.23Z" style="fill:#61008e"/><path d="M55.68,34.9H53.56a.74.74,0,0,0-.74.74v2.12a.75.75,0,0,0,.74.75h2.12a.76.76,0,0,0,.75-.75V35.64A.75.75,0,0,0,55.68,34.9Zm-.85,2.52a1.45,1.45,0,0,1-.41-.14,1.28,1.28,0,0,1-.47.91,4.17,4.17,0,0,1,.23-1.58c-.17-.29,0-.86.39-.72s-.36,1,.2,1.14.8-.89.44-1.26c-.53-.52-1.58-.08-1.42.67a.31.31,0,0,1-.15.39c-.19-.08-.2-.33-.19-.58a1.13,1.13,0,0,1,1-1,1.1,1.1,0,0,1,1.32.82C55.88,36.71,55.51,37.47,54.83,37.42Z" style="fill:#61008e"/><line x1="44.09" y1="99.54" x2="72.31" y2="99.54" style="fill:none;stroke:#61008e;stroke-linecap:round;stroke-linejoin:round;stroke-width:1.5px"/><line x1="44.09" y1="104.11" x2="60.03" y2="104.11" style="fill:none;stroke:#61008e;stroke-linecap:round;stroke-linejoin:round;stroke-width:1.5px"/><line x1="43.37" y1="92.84" x2="73.21" y2="92.84" style="fill:none;stroke:#61008e;stroke-miterlimit:10;stroke-width:4px"/><path d="M35.38,89.6a1.33,1.33,0,0,1,1.33,1.33v21.79a1.34,1.34,0,0,1-1.33,1.33h-22A1.34,1.34,0,0,1,12,112.72V90.93a1.33,1.33,0,0,1,1.33-1.33h22m0-1h-22A2.33,2.33,0,0,0,11,90.93v21.79a2.34,2.34,0,0,0,2.33,2.33h22a2.33,2.33,0,0,0,2.33-2.33V90.93a2.33,2.33,0,0,0-2.33-2.33Z" style="fill:#61008e"/><path d="M11.41,105.7l6.24-5.18a1,1,0,0,1,1.3,0l4.48,3.57a1,1,0,0,0,1.38-.09l5.81-6a1,1,0,0,1,1.5,0l5.08,5.59" style="fill:none;stroke:#61008e;stroke-linecap:round;stroke-linejoin:round;stroke-width:0.7827000000000001px"/><circle cx="20.23" cy="95.24" r="3.3" style="fill:none;stroke:#61008e;stroke-miterlimit:10;stroke-width:0.7827000000000001px"/><path d="M46.36,109.62H44.24a.74.74,0,0,0-.74.74v2.13a.74.74,0,0,0,.74.74h.6v-1.54h-.51V111h.51v-.4a.72.72,0,0,1,.75-.82c.22,0,.43,0,.43,0v.5h-.25c-.25,0-.26.18-.26.36V111h.56l-.08.69h-.48v1.54h.85a.75.75,0,0,0,.75-.74v-2.13A.75.75,0,0,0,46.36,109.62Z" style="fill:#61008e"/><path d="M50,111a.43.43,0,1,0,0,.85.43.43,0,1,0,0-.85Z" style="fill:#61008e"/><path d="M50.48,110.38c-1.13,0-1.3,0-1.43.14a.57.57,0,0,0-.14.38,7,7,0,0,0,.05,1.28.41.41,0,0,0,.24.24.57.57,0,0,0,.24,0c1.14.06,1.4,0,1.52-.28a.61.61,0,0,0,0-.24c0-1.13,0-1.29-.14-1.42A.57.57,0,0,0,50.48,110.38Zm-.52,1.7a.66.66,0,0,1,0-1.32.66.66,0,0,1,0,1.32Zm.68-1.19a.15.15,0,0,1-.15-.15.16.16,0,0,1,.15-.16.16.16,0,0,1,.16.16A.16.16,0,0,1,50.64,110.89Z" style="fill:#61008e"/><path d="M51,109.62H48.9a.74.74,0,0,0-.74.74v2.13a.74.74,0,0,0,.74.74H51a.75.75,0,0,0,.75-.74v-2.13A.75.75,0,0,0,51,109.62Zm.21,2.33a.66.66,0,0,1-.06.31c-.17.46-.6.49-1.74.44a1.06,1.06,0,0,1-.31-.06.68.68,0,0,1-.38-.38,6.64,6.64,0,0,1-.06-1.37.74.74,0,0,1,.21-.53.76.76,0,0,1,.54-.21c1.25-.06,1.44,0,1.6.21S51.29,110.8,51.23,112Z" style="fill:#61008e"/><path d="M55.68,109.62H53.56a.74.74,0,0,0-.74.74v2.13a.74.74,0,0,0,.74.74h2.12a.75.75,0,0,0,.75-.74v-2.13A.75.75,0,0,0,55.68,109.62Zm-.85,2.52a1.45,1.45,0,0,1-.41-.14,1.28,1.28,0,0,1-.47.91,4.17,4.17,0,0,1,.23-1.58c-.17-.28,0-.86.39-.72s-.36,1,.2,1.14.8-.89.44-1.26c-.53-.52-1.58-.08-1.42.67a.31.31,0,0,1-.15.39c-.19-.07-.2-.33-.19-.58a1.13,1.13,0,0,1,1-1,1.1,1.1,0,0,1,1.32.82C55.88,111.43,55.51,112.19,54.83,112.14Z" style="fill:#61008e"/><line x1="44.09" y1="63.63" x2="72.31" y2="63.63" style="fill:none;stroke:#61008e;stroke-linecap:round;stroke-linejoin:round;stroke-width:1.5px"/><line x1="44.09" y1="68.2" x2="60.03" y2="68.2" style="fill:none;stroke:#61008e;stroke-linecap:round;stroke-linejoin:round;stroke-width:1.5px"/><line x1="43.37" y1="56.93" x2="73.21" y2="56.93" style="fill:none;stroke:#61008e;stroke-miterlimit:10;stroke-width:4px"/><path d="M35.38,53.69A1.34,1.34,0,0,1,36.71,55V76.81a1.34,1.34,0,0,1-1.33,1.33h-22A1.34,1.34,0,0,1,12,76.81V55a1.34,1.34,0,0,1,1.33-1.33h22m0-1h-22A2.33,2.33,0,0,0,11,55V76.81a2.33,2.33,0,0,0,2.33,2.33h22a2.33,2.33,0,0,0,2.33-2.33V55a2.33,2.33,0,0,0-2.33-2.33Z" style="fill:#61008e"/><path d="M11.41,69.79l6.24-5.18a1,1,0,0,1,1.3,0l4.48,3.56a1,1,0,0,0,1.38-.09l5.81-6a1,1,0,0,1,1.5,0l5.08,5.59" style="fill:none;stroke:#61008e;stroke-linecap:round;stroke-linejoin:round;stroke-width:0.7827000000000001px"/><circle cx="20.23" cy="59.34" r="3.3" style="fill:none;stroke:#61008e;stroke-miterlimit:10;stroke-width:0.7827000000000001px"/><path d="M46.36,73.71H44.24a.74.74,0,0,0-.74.74v2.13a.74.74,0,0,0,.74.74h.6V75.79h-.51v-.7h.51v-.4a.72.72,0,0,1,.75-.82c.22,0,.43,0,.43,0v.5h-.25c-.25,0-.26.18-.26.36v.34h.56l-.08.7h-.48v1.53h.85a.75.75,0,0,0,.75-.74V74.45A.75.75,0,0,0,46.36,73.71Z" style="fill:#61008e"/><path d="M50,75.09a.43.43,0,1,0,0,.85.43.43,0,1,0,0-.85Z" style="fill:#61008e"/><path d="M50.48,74.47c-1.13,0-1.3,0-1.43.14a.6.6,0,0,0-.14.39A6.91,6.91,0,0,0,49,76.27a.41.41,0,0,0,.24.24.73.73,0,0,0,.24,0c1.14,0,1.4,0,1.52-.29A.57.57,0,0,0,51,76c0-1.12,0-1.29-.14-1.42A.57.57,0,0,0,50.48,74.47ZM50,76.17a.66.66,0,1,1,.66-.66A.65.65,0,0,1,50,76.17ZM50.64,75a.15.15,0,0,1-.15-.15.15.15,0,0,1,.15-.15.16.16,0,0,1,.16.15A.15.15,0,0,1,50.64,75Z" style="fill:#61008e"/><path d="M51,73.71H48.9a.74.74,0,0,0-.74.74v2.13a.74.74,0,0,0,.74.74H51a.75.75,0,0,0,.75-.74V74.45A.75.75,0,0,0,51,73.71ZM51.23,76a.66.66,0,0,1-.06.31c-.17.46-.6.49-1.74.44a1.06,1.06,0,0,1-.31-.06.65.65,0,0,1-.38-.38A6.52,6.52,0,0,1,48.68,75a.72.72,0,0,1,.75-.75c1.25-.06,1.44.05,1.6.21S51.29,74.9,51.23,76Z" style="fill:#61008e"/><path d="M55.68,73.71H53.56a.74.74,0,0,0-.74.74v2.13a.74.74,0,0,0,.74.74h2.12a.75.75,0,0,0,.75-.74V74.45A.75.75,0,0,0,55.68,73.71Zm-.85,2.52a1.18,1.18,0,0,1-.41-.14A1.33,1.33,0,0,1,54,77a4.14,4.14,0,0,1,.23-1.58c-.17-.29,0-.87.39-.73s-.36,1,.2,1.14.8-.89.44-1.25c-.53-.53-1.58-.08-1.42.66.07.31-.15.39-.15.39-.19-.07-.2-.33-.19-.58a1.21,1.21,0,0,1,2.34-.21C55.88,75.52,55.51,76.28,54.83,76.23Z" style="fill:#61008e"/><rect x="96.47" y="15.32" width="90.34" height="46.79" rx="5.3" style="fill:#fff"/><path d="M181.51,14.82v1a4.81,4.81,0,0,1,4.8,4.79V56.82a4.81,4.81,0,0,1-4.8,4.79H101.76A4.8,4.8,0,0,1,97,56.82V20.61a4.8,4.8,0,0,1,4.79-4.79h79.75v-1m0,0H101.76A5.79,5.79,0,0,0,96,20.61V56.82a5.79,5.79,0,0,0,5.79,5.79h79.75a5.8,5.8,0,0,0,5.8-5.79V20.61a5.8,5.8,0,0,0-5.8-5.79Z" style="fill:#61008e"/><line x1="96.64" y1="79.54" x2="149.79" y2="79.54" style="fill:none;stroke:#61008e;stroke-linecap:round;stroke-linejoin:round;stroke-width:1.5px"/><line x1="96.64" y1="84.2" x2="165.88" y2="84.2" style="fill:none;stroke:#61008e;stroke-linecap:round;stroke-linejoin:round;stroke-width:1.5px"/><path d="M97,49.9l21.71-18.11a3.56,3.56,0,0,1,4.51-.05l15.57,12.45a3.56,3.56,0,0,0,4.79-.31L163.78,23a3.55,3.55,0,0,1,5.21.09l17.66,19.54" style="fill:none;stroke:#61008e;stroke-linecap:round;stroke-linejoin:round"/><circle cx="136.79" cy="27.54" r="7.06" style="fill:#fff;stroke:#61008e;stroke-miterlimit:10"/><line x1="95.95" y1="71.18" x2="163.16" y2="71.18" style="fill:none;stroke:#61008e;stroke-miterlimit:10;stroke-width:6px"/><g style="clip-path:url(#clip-path-2)"><rect x="124.42" y="59.49" width="6.49" height="8.75" transform="translate(74.87 -68.76) rotate(41.72)" style="fill:#89679b"/><rect x="131.47" y="65.77" width="6.49" height="8.75" transform="translate(80.84 -71.86) rotate(41.72)" style="fill:#89679b"/><rect x="133.4" y="49.42" width="6.49" height="8.75" transform="translate(70.45 -77.29) rotate(41.72)" style="fill:#89679b"/><rect x="140.45" y="55.7" width="6.49" height="8.75" transform="translate(76.42 -80.39) rotate(41.72)" style="fill:#89679b"/><rect x="163.27" y="127.57" width="6.49" height="18.13" transform="translate(133.15 -76.16) rotate(41.72)" style="fill:#89679b"/><rect x="150.79" y="83" width="6.49" height="8.75" transform="translate(97.21 -80.35) rotate(41.72)" style="fill:#89679b"/><rect x="157.84" y="89.29" width="6.49" height="8.75" transform="translate(103.18 -83.45) rotate(41.72)" style="fill:#89679b"/><rect x="141.18" y="74.43" width="6.49" height="8.75" transform="translate(89.07 -76.13) rotate(41.72)" style="fill:#89679b"/><rect x="118.95" y="99.37" width="6.49" height="8.75" transform="translate(100.03 -55.01) rotate(41.72)" style="fill:#89679b"/><rect x="100.7" y="87.52" width="16.4" height="8.75" transform="translate(88.77 -49.17) rotate(41.72)" style="fill:#89679b"/><rect x="158.29" y="76.03" width="16.4" height="8.75" transform="translate(95.73 -90.41) rotate(41.72)" style="fill:#89679b"/><rect x="130.21" y="82.92" width="6.49" height="16.38" transform="translate(94.48 -65.71) rotate(41.72)" style="fill:#89679b"/><polygon points="115.53 82.21 118.22 79.19 125.42 85.62 131.69 78.58 119.71 67.9 108.81 80.13 120.79 90.81 122.73 88.63 115.53 82.21" style="fill:#89679b;fill-rule:evenodd"/><polygon points="143.78 98.15 146.79 100.84 140.37 108.04 147.4 114.31 158.08 102.34 145.85 91.43 135.18 103.41 137.35 105.35 143.78 98.15" style="fill:#89679b;fill-rule:evenodd"/><rect x="180.84" y="126.67" width="6.49" height="8.75" transform="translate(234.28 351.38) rotate(-138.28)" style="fill:#89679b"/><rect x="173.79" y="120.39" width="6.49" height="8.75" transform="translate(226.15 335.71) rotate(-138.28)" style="fill:#89679b"/><rect x="82.81" y="101.46" width="6.49" height="18.13" transform="translate(95.38 -29.24) rotate(41.72)" style="fill:#89679b"/><rect x="89.86" y="107.75" width="6.49" height="18.13" transform="translate(101.35 -32.34) rotate(41.72)" style="fill:#89679b"/><rect x="126.77" y="124.09" width="6.49" height="8.75" transform="translate(141.56 310.87) rotate(-138.28)" style="fill:#89679b"/><rect x="119.72" y="117.8" width="6.49" height="8.75" transform="translate(133.43 295.2) rotate(-138.28)" style="fill:#89679b"/><rect x="100.39" y="100.57" width="6.49" height="8.75" transform="translate(111.15 252.24) rotate(-138.28)" style="fill:#89679b"/><rect x="93.34" y="94.28" width="6.49" height="8.75" transform="translate(103.02 236.58) rotate(-138.28)" style="fill:#89679b"/><rect x="110" y="109.14" width="6.49" height="8.75" transform="translate(122.23 273.61) rotate(-138.28)" style="fill:#89679b"/><rect x="96.1" y="124.72" width="6.49" height="8.75" transform="translate(87.59 291.58) rotate(-138.28)" style="fill:#89679b"/><rect x="178.11" y="90.65" width="6.49" height="8.75" transform="translate(-10.26 167.16) rotate(-48.28)" style="fill:#89679b"/><rect x="169.56" y="100.24" width="6.49" height="8.75" transform="translate(-20.28 163.98) rotate(-48.28)" style="fill:#89679b"/><rect x="154.84" y="111.84" width="15.25" height="8.75" transform="translate(-32.4 160.14) rotate(-48.28)" style="fill:#89679b"/><rect x="184.4" y="83.6" width="6.49" height="8.75" transform="translate(-2.9 169.49) rotate(-48.28)" style="fill:#89679b"/><rect x="193.06" y="73.89" width="6.49" height="8.75" transform="translate(7.25 172.7) rotate(-48.28)" style="fill:#89679b"/><rect x="201.42" y="119.12" width="6.49" height="16.38" transform="translate(272.71 358.55) rotate(-138.28)" style="fill:#89679b"/><polygon points="194.35 120.28 191.34 117.59 208.45 98.4 201.41 92.13 180.04 116.1 192.27 127 202.95 115.02 200.77 113.08 194.35 120.28" style="fill:#89679b;fill-rule:evenodd"/><polygon points="142.47 118.74 143.85 117.19 132.03 106.66 126.21 113.19 150.71 135.03 155.15 130.04 142.47 118.74" style="fill:#89679b;fill-rule:evenodd"/><polygon points="158.6 67.81 160.15 69.19 165.53 63.16 158.99 57.33 147.84 69.84 152.83 74.29 158.6 67.81" style="fill:#89679b;fill-rule:evenodd"/></g><rect x="96.51" y="90.1" width="88.59" height="26.08" rx="5.8" style="fill:none;stroke:#61008e;stroke-miterlimit:10"/><line x1="84.19" y1="0.48" x2="84.19" y2="129.58" style="fill:none;stroke:#61008e;stroke-miterlimit:10;stroke-width:1.98720631841685px"/><path d="M159.3,98.17a4.61,4.61,0,0,0-4.55,4.67c0,2.59,2.28,4.68,4.55,7,2.27-2.34,4.54-4.43,4.54-7A4.6,4.6,0,0,0,159.3,98.17Zm0,6.5a2,2,0,1,1,1.95-2A2,2,0,0,1,159.3,104.67Z" style="fill:#fff;stroke:#61008e;stroke-linecap:round;stroke-linejoin:round;stroke-width:0.911639421541882px"/><circle cx="159.3" cy="102.72" r="1.95" style="fill:#fff;stroke:#61008e;stroke-linecap:round;stroke-linejoin:round;stroke-width:0.911639421541882px"/><circle cx="159.3" cy="102.72" r="1.95" style="fill:#fff;stroke:#61008e;stroke-linecap:round;stroke-linejoin:round;stroke-width:0.911639421541882px"/></svg>