<svg id="Layer_1" data-name="Layer 1" xmlns="http://www.w3.org/2000/svg" xmlns:xlink="http://www.w3.org/1999/xlink" viewBox="0 0 200 130"><defs><clipPath id="clip-path"><rect x="1.59" y="1.59" width="196.67" height="127.01" rx="13.87" style="fill:none"/></clipPath></defs><rect x="0.75" y="0.75" width="198.5" height="128.5" rx="13.4" style="fill:#fff"/><path d="M185.85,1.5A12.66,12.66,0,0,1,198.5,14.15v101.7a12.66,12.66,0,0,1-12.65,12.65H14.15A12.66,12.66,0,0,1,1.5,115.85V14.15A12.66,12.66,0,0,1,14.15,1.5h171.7m0-1.5H14.15A14.14,14.14,0,0,0,0,14.15v101.7A14.14,14.14,0,0,0,14.15,130h171.7A14.14,14.14,0,0,0,200,115.85V14.15A14.14,14.14,0,0,0,185.85,0Z" style="fill:#61008e"/><g style="clip-path:url(#clip-path)"><polygon points="112.86 127.07 103.12 118.44 127.38 91.41 137.12 100.03 112.86 127.07" style="fill:#bb9dce;fill-rule:evenodd"/><polygon points="127.03 139.62 117.29 131 141.56 103.96 151.3 112.59 127.03 139.62" style="fill:#bb9dce;fill-rule:evenodd"/><polygon points="94.06 21.69 84.32 13.07 96.03 0.02 105.78 8.64 94.06 21.69" style="fill:#bb9dce;fill-rule:evenodd"/><polygon points="108.24 34.25 98.5 25.62 110.21 12.57 119.95 21.2 108.24 34.25" style="fill:#bb9dce;fill-rule:evenodd"/><polygon points="74.74 4.57 65 -4.05 76.71 -17.1 86.45 -8.48 74.74 4.57" style="fill:#bb9dce;fill-rule:evenodd"/><polygon points="30.03 54.39 20.29 45.76 32 32.71 41.74 41.34 30.03 54.39" style="fill:#bb9dce;fill-rule:evenodd"/><polygon points="10.75 37.31 -13.86 15.51 -2.15 2.46 22.46 24.26 10.75 37.31" style="fill:#bb9dce;fill-rule:evenodd"/><polygon points="126.54 14.35 101.93 -7.45 113.64 -20.5 138.25 1.3 126.54 14.35" style="fill:#bb9dce;fill-rule:evenodd"/><polygon points="47.57 34.84 37.83 26.22 59.76 1.79 69.5 10.42 47.57 34.84" style="fill:#bb9dce;fill-rule:evenodd"/><polygon points="17.62 0.52 23.02 -5.5 37.51 7.33 50.12 -6.72 26.04 -28.06 4.12 -3.63 28.2 17.7 32.1 13.35 17.62 0.52" style="fill:#bb9dce;fill-rule:evenodd"/><polygon points="74.41 32.36 80.47 37.73 67.56 52.12 81.71 64.65 103.18 40.73 78.59 18.95 57.12 42.87 61.5 46.75 74.41 32.36" style="fill:#bb9dce;fill-rule:evenodd"/><polygon points="195.3 121.67 205.04 130.3 193.33 143.35 183.59 134.72 195.3 121.67" style="fill:#bb9dce;fill-rule:evenodd"/><polygon points="156.44 87.25 166.18 95.88 154.47 108.93 144.73 100.3 156.44 87.25" style="fill:#bb9dce;fill-rule:evenodd"/><polygon points="142.27 74.69 152.01 83.32 140.3 96.37 130.56 87.74 142.27 74.69" style="fill:#bb9dce;fill-rule:evenodd"/><polygon points="175.77 104.37 185.51 113 173.8 126.05 164.06 117.42 175.77 104.37" style="fill:#bb9dce;fill-rule:evenodd"/><polygon points="47.72 82.08 57.46 90.7 45.75 103.75 36.01 95.13 47.72 82.08" style="fill:#bb9dce;fill-rule:evenodd"/><polygon points="33.55 69.52 43.29 78.15 31.58 91.2 21.84 82.57 33.55 69.52" style="fill:#bb9dce;fill-rule:evenodd"/><polygon points="-5.31 35.1 4.43 43.73 -7.28 56.78 -17.02 48.15 -5.31 35.1" style="fill:#bb9dce;fill-rule:evenodd"/><polygon points="14.02 52.22 23.76 60.85 12.05 73.9 2.31 65.27 14.02 52.22" style="fill:#bb9dce;fill-rule:evenodd"/><polygon points="19.78 113.21 29.52 121.84 17.81 134.89 8.07 126.26 19.78 113.21" style="fill:#bb9dce;fill-rule:evenodd"/><polygon points="5.61 100.66 15.35 109.28 3.64 122.33 -6.1 113.71 5.61 100.66" style="fill:#bb9dce;fill-rule:evenodd"/><polygon points="160.88 27.11 152.2 36.79 139.06 25.15 147.75 15.47 160.88 27.11" style="fill:#bb9dce;fill-rule:evenodd"/><polygon points="143.69 46.27 135.01 55.95 121.87 44.31 130.56 34.63 143.69 46.27" style="fill:#bb9dce;fill-rule:evenodd"/><polygon points="128.76 62.91 108.36 85.64 95.22 74.01 115.62 51.28 128.76 62.91" style="fill:#bb9dce;fill-rule:evenodd"/><polygon points="84.05 112.73 42.79 158.71 29.65 147.07 70.92 101.09 84.05 112.73" style="fill:#bb9dce;fill-rule:evenodd"/><polygon points="173.52 13.03 164.84 22.71 151.7 11.07 160.38 1.39 173.52 13.03" style="fill:#bb9dce;fill-rule:evenodd"/><polygon points="190.94 -6.38 182.25 3.3 169.12 -8.34 177.8 -18.01 190.94 -6.38" style="fill:#bb9dce;fill-rule:evenodd"/><polygon points="202.93 74.1 212.68 82.72 190.75 107.15 181.01 98.53 202.93 74.1" style="fill:#bb9dce;fill-rule:evenodd"/><polygon points="176.1 76.58 170.03 71.21 204.44 32.87 190.29 20.34 147.33 68.21 171.92 89.99 193.39 66.07 189.01 62.19 176.1 76.58" style="fill:#bb9dce;fill-rule:evenodd"/><polygon points="71.79 73.49 74.56 70.41 50.81 49.37 39.1 62.42 88.34 106.04 97.29 96.08 71.79 73.49" style="fill:#bb9dce;fill-rule:evenodd"/><polygon points="94.95 148 85.2 139.37 96.92 126.32 106.66 134.95 94.95 148" style="fill:#bb9dce;fill-rule:evenodd"/><polygon points="150.57 153.48 184.53 183.57 205.11 160.64 161.12 121.67 118.45 169.21 128.48 178.1 150.57 153.48" style="fill:#bb9dce;fill-rule:evenodd"/></g><path d="M148.06,63.25a8.12,8.12,0,0,0-8,8.23c0,4.55,4,8.24,8,12.35,4-4.11,8-7.8,8-12.35A8.12,8.12,0,0,0,148.06,63.25Zm0,11.44a3.43,3.43,0,1,1,3.43-3.43A3.43,3.43,0,0,1,148.06,74.69Z" style="fill:#fff;stroke:#61008e;stroke-linecap:round;stroke-linejoin:round"/><path d="M151.49,71.26a3.43,3.43,0,1,1-3.43-3.43A3.44,3.44,0,0,1,151.49,71.26Z" style="fill:#fff;stroke:#61008e;stroke-linecap:round;stroke-linejoin:round"/><path d="M151.49,71.26a3.43,3.43,0,1,1-3.43-3.43A3.44,3.44,0,0,1,151.49,71.26Z" style="fill:#fff;stroke:#61008e;stroke-linecap:round;stroke-linejoin:round"/><path d="M47.65,98.64a8.13,8.13,0,0,0-8,8.23c0,4.55,4,8.24,8,12.35,4-4.11,8-7.8,8-12.35A8.12,8.12,0,0,0,47.65,98.64Zm0,11.44a3.43,3.43,0,1,1,3.43-3.43A3.43,3.43,0,0,1,47.65,110.08Z" style="fill:#fff;stroke:#61008e;stroke-linecap:round;stroke-linejoin:round"/><circle cx="47.65" cy="106.65" r="3.43" style="fill:#fff;stroke:#61008e;stroke-linecap:round;stroke-linejoin:round"/><circle cx="47.65" cy="106.65" r="3.43" style="fill:#fff;stroke:#61008e;stroke-linecap:round;stroke-linejoin:round"/><rect x="30.64" y="45.12" width="34.02" height="49.98" rx="3.21" style="fill:#fff"/><path d="M61.46,45.62a2.7,2.7,0,0,1,2.7,2.7V91.88a2.7,2.7,0,0,1-2.7,2.71H33.85a2.71,2.71,0,0,1-2.71-2.71V48.32a2.7,2.7,0,0,1,2.71-2.7H61.46m0-1H33.85a3.71,3.71,0,0,0-3.71,3.7V91.88a3.71,3.71,0,0,0,3.71,3.71H61.46a3.71,3.71,0,0,0,3.7-3.71V48.32a3.7,3.7,0,0,0-3.7-3.7Z" style="fill:#61008e"/><path d="M59.32,49a2,2,0,0,1,2,2V74.1a2,2,0,0,1-2,2H36a2,2,0,0,1-2-2V51a2,2,0,0,1,2-2H59.32m0-.5H36A2.47,2.47,0,0,0,33.51,51V74.1A2.46,2.46,0,0,0,36,76.57H59.32A2.47,2.47,0,0,0,61.8,74.1V51a2.48,2.48,0,0,0-2.48-2.47Z" style="fill:#61008e"/><line x1="36.22" y1="82.32" x2="59.45" y2="82.32" style="fill:none;stroke:#61008e;stroke-linecap:round;stroke-linejoin:round;stroke-width:1.5px"/><line x1="36.22" y1="86.56" x2="59.45" y2="86.56" style="fill:none;stroke:#61008e;stroke-linecap:round;stroke-linejoin:round;stroke-width:1.5px"/><path d="M33.92,66.66l6.62-5.49a1.08,1.08,0,0,1,1.37,0l4.75,3.78a1.1,1.1,0,0,0,1.47-.09l6.15-6.33a1.09,1.09,0,0,1,1.59,0l5.39,5.93" style="fill:none;stroke:#61008e;stroke-linecap:round;stroke-linejoin:round;stroke-width:0.660746110416264px"/><circle cx="43.27" cy="55.58" r="3.5" style="fill:none;stroke:#61008e;stroke-miterlimit:10;stroke-width:0.660746110416264px"/><path d="M43.94,88.68H41.45a.87.87,0,0,0-.88.87v2.5a.87.87,0,0,0,.88.87h.7v-1.8h-.6V90.3h.6v-.47a.84.84,0,0,1,.88-1,3,3,0,0,1,.51,0v.58h-.3c-.29,0-.3.21-.3.42v.4h.65l-.09.82h-.56v1.8h1a.87.87,0,0,0,.87-.87v-2.5A.87.87,0,0,0,43.94,88.68Z" style="fill:#61008e"/><path d="M48.16,90.3a.5.5,0,0,0-.5.5.5.5,0,0,0,1,0A.5.5,0,0,0,48.16,90.3Z" style="fill:#61008e"/><path d="M48.77,89.57c-1.33-.06-1.52,0-1.67.17a.66.66,0,0,0-.17.45,8.55,8.55,0,0,0,.06,1.5.48.48,0,0,0,.28.28.69.69,0,0,0,.28,0c1.34.06,1.65,0,1.79-.33a1.09,1.09,0,0,0,0-.28c.06-1.33,0-1.52-.17-1.67A.66.66,0,0,0,48.77,89.57Zm-.61,2a.77.77,0,1,1,.77-.77A.77.77,0,0,1,48.16,91.57ZM49,90.18a.19.19,0,1,1,0-.37.19.19,0,0,1,.18.19A.19.19,0,0,1,49,90.18Z" style="fill:#61008e"/><path d="M49.41,88.68H46.92a.87.87,0,0,0-.87.87v2.5a.87.87,0,0,0,.87.87h2.49a.87.87,0,0,0,.87-.87v-2.5A.87.87,0,0,0,49.41,88.68Zm.25,2.74a1,1,0,0,1-.07.36c-.21.54-.71.57-2.05.51a.94.94,0,0,1-.37-.07.76.76,0,0,1-.44-.44,6.92,6.92,0,0,1-.07-1.6.85.85,0,0,1,.88-.88c1.47-.06,1.69.06,1.87.25S49.72,90.07,49.66,91.42Z" style="fill:#61008e"/><path d="M54.88,88.68H52.39a.87.87,0,0,0-.87.87v2.5a.87.87,0,0,0,.87.87h2.49a.87.87,0,0,0,.88-.87v-2.5A.87.87,0,0,0,54.88,88.68Zm-1,3a1.64,1.64,0,0,1-.48-.16,1.59,1.59,0,0,1-.55,1.07,4.76,4.76,0,0,1,.27-1.86c-.2-.33,0-1,.45-.85s-.42,1.21.25,1.34.93-1,.51-1.47c-.62-.62-1.86-.09-1.67.78a.37.37,0,0,1-.18.46c-.21-.09-.23-.39-.22-.68a1.33,1.33,0,0,1,1.2-1.21A1.28,1.28,0,0,1,55,90C55.11,90.8,54.68,91.7,53.88,91.64Z" style="fill:#61008e"/><rect x="131.05" y="10.67" width="34.02" height="49.98" rx="3.21" style="fill:#fff"/><path d="M161.87,11.17a2.7,2.7,0,0,1,2.7,2.71V57.44a2.7,2.7,0,0,1-2.7,2.7H134.26a2.7,2.7,0,0,1-2.71-2.7V13.88a2.71,2.71,0,0,1,2.71-2.71h27.61m0-1H134.26a3.71,3.71,0,0,0-3.71,3.71V57.44a3.71,3.71,0,0,0,3.71,3.7h27.61a3.7,3.7,0,0,0,3.7-3.7V13.88a3.71,3.71,0,0,0-3.7-3.71Z" style="fill:#61008e"/><path d="M159.74,14.58a2,2,0,0,1,2,2V39.65a2,2,0,0,1-2,2H136.39a2,2,0,0,1-2-2V16.56a2,2,0,0,1,2-2h23.35m0-.5H136.39a2.47,2.47,0,0,0-2.47,2.48V39.65a2.46,2.46,0,0,0,2.47,2.47h23.35a2.47,2.47,0,0,0,2.47-2.47V16.56a2.48,2.48,0,0,0-2.47-2.48Z" style="fill:#61008e"/><line x1="136.63" y1="47.87" x2="159.86" y2="47.87" style="fill:none;stroke:#61008e;stroke-linecap:round;stroke-linejoin:round;stroke-width:1.5px"/><line x1="136.63" y1="52.11" x2="159.86" y2="52.11" style="fill:none;stroke:#61008e;stroke-linecap:round;stroke-linejoin:round;stroke-width:1.5px"/><path d="M134.33,32.21,141,26.72a1.07,1.07,0,0,1,1.37,0l4.75,3.77a1.1,1.1,0,0,0,1.47-.09l6.15-6.33a1.1,1.1,0,0,1,1.59,0L161.67,30" style="fill:none;stroke:#61008e;stroke-linecap:round;stroke-linejoin:round;stroke-width:0.660746110416264px"/><circle cx="143.68" cy="21.13" r="3.5" style="fill:none;stroke:#61008e;stroke-miterlimit:10;stroke-width:0.660746110416264px"/><path d="M144.35,54.23h-2.49a.88.88,0,0,0-.88.87v2.5a.88.88,0,0,0,.88.87h.7v-1.8H142v-.82h.6v-.47a.84.84,0,0,1,.88-1,3,3,0,0,1,.51,0V55h-.3c-.29,0-.3.21-.3.42v.4H144l-.09.82h-.56v1.8h1a.87.87,0,0,0,.87-.87V55.1A.87.87,0,0,0,144.35,54.23Z" style="fill:#61008e"/><path d="M148.57,55.85a.5.5,0,1,0,.5.5A.5.5,0,0,0,148.57,55.85Z" style="fill:#61008e"/><path d="M149.18,55.13c-1.33-.06-1.52,0-1.67.16a.66.66,0,0,0-.17.45,8.55,8.55,0,0,0,.06,1.5.48.48,0,0,0,.28.28.77.77,0,0,0,.28,0c1.34.07,1.65,0,1.79-.33a1.09,1.09,0,0,0,.05-.28c.06-1.32,0-1.52-.17-1.67A.61.61,0,0,0,149.18,55.13Zm-.61,2a.77.77,0,0,1,0-1.54.77.77,0,1,1,0,1.54Zm.81-1.39a.18.18,0,1,1,.18-.18A.18.18,0,0,1,149.38,55.73Z" style="fill:#61008e"/><path d="M149.82,54.23h-2.49a.87.87,0,0,0-.87.87v2.5a.87.87,0,0,0,.87.87h2.49a.87.87,0,0,0,.87-.87V55.1A.87.87,0,0,0,149.82,54.23Zm.25,2.74a1.16,1.16,0,0,1-.07.37c-.21.53-.71.57-2.05.51a1.52,1.52,0,0,1-.37-.07.79.79,0,0,1-.44-.44,8.38,8.38,0,0,1-.07-1.61.87.87,0,0,1,.25-.63.88.88,0,0,1,.63-.24c1.47-.07,1.69,0,1.88.24S150.13,55.62,150.07,57Z" style="fill:#61008e"/><path d="M155.29,54.23H152.8a.87.87,0,0,0-.87.87v2.5a.87.87,0,0,0,.87.87h2.49a.87.87,0,0,0,.88-.87V55.11A.87.87,0,0,0,155.29,54.23Zm-1,3a1.38,1.38,0,0,1-.48-.16,1.51,1.51,0,0,1-.55,1.07,4.71,4.71,0,0,1,.27-1.85c-.2-.34,0-1,.45-.85s-.42,1.2.25,1.33.93-1,.51-1.47c-.62-.62-1.86-.09-1.66.79a.37.37,0,0,1-.19.45c-.21-.09-.23-.39-.22-.68a1.33,1.33,0,0,1,1.2-1.21,1.28,1.28,0,0,1,1.54,1C155.52,56.36,155.09,57.25,154.29,57.19Z" style="fill:#61008e"/></svg>