<svg id="Layer_1" data-name="Layer 1" xmlns="http://www.w3.org/2000/svg" xmlns:xlink="http://www.w3.org/1999/xlink" viewBox="0 0 200 130"><defs><clipPath id="clip-path"><rect x="231.69" y="-163.16" width="196.67" height="127.01" rx="13.87" style="fill:none"/></clipPath><clipPath id="clip-path-2"><path d="M-218.46,166.84h79.26a1.13,1.13,0,0,1,1.13,1.13V292a1.13,1.13,0,0,1-1.13,1.13h-77.59a13.83,13.83,0,0,1-13.83-13.83V179A12.16,12.16,0,0,1-218.46,166.84Z" style="fill:none"/></clipPath></defs><rect x="0.75" y="0.75" width="198.5" height="128.5" rx="13.4" style="fill:#fff"/><path d="M185.85,1.5A12.66,12.66,0,0,1,198.5,14.15v101.7a12.66,12.66,0,0,1-12.65,12.65H14.15A12.66,12.66,0,0,1,1.5,115.85V14.15A12.66,12.66,0,0,1,14.15,1.5h171.7m0-1.5H14.15A14.14,14.14,0,0,0,0,14.15v101.7A14.14,14.14,0,0,0,14.15,130h171.7A14.14,14.14,0,0,0,200,115.85V14.15A14.14,14.14,0,0,0,185.85,0Z" style="fill:#61008e"/><path d="M15.33,57.27l-4.65,4.65a1.59,1.59,0,0,0,0,2.26l4.65,4.65" style="fill:none;stroke:#61008e;stroke-linecap:round;stroke-linejoin:round;stroke-width:1.75130069255829px"/><path d="M185.92,69.83l4.65-4.65a1.59,1.59,0,0,0,0-2.26l-4.65-4.65" style="fill:none;stroke:#61008e;stroke-linecap:round;stroke-linejoin:round;stroke-width:1.75130069255829px"/><circle cx="85.56" cy="116.47" r="3.5" style="fill:#61008e"/><circle cx="100.9" cy="116.47" r="3.5" style="fill:#61008e"/><circle cx="116.23" cy="116.47" r="3.5" style="fill:#61008e"/><path d="M97.71,84.4a4.25,4.25,0,0,1-3-1.29L69,58.11a6.08,6.08,0,0,0-8.79,0L26.11,83.45v-48c0-5.86,3.81-10.63,8.51-10.63H165.38c4.7,0,8.52,4.77,8.52,10.63V80.3L144.62,40.86a6.48,6.48,0,0,0-5.17-2.77,6.41,6.41,0,0,0-5,2.57L101.15,82.59A4.42,4.42,0,0,1,97.71,84.4Z" style="fill:#bb9dce"/><path d="M165.39,25.86c4.14,0,7.51,4.32,7.51,9.63V77.27l-27.48-37A7.19,7.19,0,0,0,133.65,40L100.37,82a3.44,3.44,0,0,1-2.66,1.43,3.24,3.24,0,0,1-2.28-1l-25.69-25a7.08,7.08,0,0,0-10.14,0L27.11,81.46v-46c0-5.31,3.36-9.63,7.51-9.63H165.39m0-2H34.62c-5.25,0-9.51,5.2-9.51,11.63V85.43l35.8-26.52a5.09,5.09,0,0,1,7.44-.09L94,83.82a5.21,5.21,0,0,0,3.67,1.58,5.39,5.39,0,0,0,4.22-2.19l33.29-41.92a5.39,5.39,0,0,1,4.23-2.2,5.45,5.45,0,0,1,4.37,2.37L174.9,83.32V35.49c0-6.43-4.26-11.63-9.51-11.63Z" style="fill:#61008e"/><path d="M34.61,101.24a8.51,8.51,0,0,1-8.5-8.51V82.65l35.43-29.4a4.89,4.89,0,0,1,6.18-.06L93.41,73.6a6.92,6.92,0,0,0,4.3,1.5A6.82,6.82,0,0,0,102.65,73l33.28-34.23a4.91,4.91,0,0,1,7.14.12L173.9,72.79V92.73a8.52,8.52,0,0,1-8.51,8.51Z" style="fill:#fff"/><path d="M139.45,38.3h0a3.88,3.88,0,0,1,2.89,1.27L172.9,73.18V92.73a7.52,7.52,0,0,1-7.51,7.51H34.62a7.51,7.51,0,0,1-7.51-7.51V83.12L62.18,54A3.9,3.9,0,0,1,67.1,54L92.79,74.38a7.9,7.9,0,0,0,10.58-.67l33.28-34.23a3.89,3.89,0,0,1,2.8-1.18m0-2a5.84,5.84,0,0,0-4.23,1.79L101.94,72.32a5.91,5.91,0,0,1-7.9.5L68.35,52.41a5.89,5.89,0,0,0-7.44.07l-35.8,29.7V92.73a9.51,9.51,0,0,0,9.51,9.51H165.39a9.51,9.51,0,0,0,9.51-9.51V72.41L143.82,38.23a5.87,5.87,0,0,0-4.37-1.93Z" style="fill:#61008e"/><line x1="45.97" y1="86.99" x2="84.86" y2="86.99" style="fill:none;stroke:#61008e;stroke-linecap:round;stroke-linejoin:round;stroke-width:1.5px"/><line x1="45.97" y1="92.98" x2="96.64" y2="92.98" style="fill:none;stroke:#61008e;stroke-linecap:round;stroke-linejoin:round;stroke-width:1.5px"/><circle cx="92.06" cy="44.71" r="11.58" style="fill:#fff;stroke:#61008e;stroke-miterlimit:10;stroke-width:2px"/><path d="M143.33,88.65h-3.52a1.24,1.24,0,0,0-1.24,1.23v3.53a1.24,1.24,0,0,0,1.24,1.23h1V92.09H140V90.94h.85v-.67A1.19,1.19,0,0,1,142,88.91a5.06,5.06,0,0,1,.73,0v.83h-.42c-.42,0-.43.3-.43.59v.57h.92l-.13,1.15h-.79v2.55h1.41a1.23,1.23,0,0,0,1.23-1.23V89.88A1.23,1.23,0,0,0,143.33,88.65Z" style="fill:#61008e"/><path d="M149.3,90.93a.71.71,0,1,0,.71.71A.71.71,0,0,0,149.3,90.93Z" style="fill:#61008e"/><path d="M150.16,89.91c-1.88-.08-2.15,0-2.37.23a.93.93,0,0,0-.23.64,11.66,11.66,0,0,0,.07,2.11.75.75,0,0,0,.41.41,1.17,1.17,0,0,0,.39.07c1.89.09,2.33,0,2.53-.48a1.11,1.11,0,0,0,.07-.39c.09-1.87,0-2.14-.23-2.36A.93.93,0,0,0,150.16,89.91Zm-.86,2.82a1.09,1.09,0,1,1,1.09-1.09A1.09,1.09,0,0,1,149.3,92.73Zm1.13-2a.25.25,0,0,1-.25-.25.26.26,0,0,1,.25-.26.26.26,0,0,1,.26.26A.26.26,0,0,1,150.43,90.76Z" style="fill:#61008e"/><path d="M151.06,88.65h-3.52a1.23,1.23,0,0,0-1.23,1.23v3.53a1.23,1.23,0,0,0,1.23,1.23h3.52a1.24,1.24,0,0,0,1.24-1.23V89.88A1.24,1.24,0,0,0,151.06,88.65Zm.35,3.87a1.35,1.35,0,0,1-.1.51c-.29.76-1,.81-2.89.72a1.41,1.41,0,0,1-.52-.1,1.05,1.05,0,0,1-.62-.62,10,10,0,0,1-.1-2.27,1.17,1.17,0,0,1,1.24-1.23c2.08-.1,2.39.08,2.65.34S151.5,90.62,151.41,92.52Z" style="fill:#61008e"/><path d="M158.8,88.65h-3.53A1.23,1.23,0,0,0,154,89.88v3.53a1.23,1.23,0,0,0,1.23,1.23h3.53A1.23,1.23,0,0,0,160,93.41V89.88A1.23,1.23,0,0,0,158.8,88.65Zm-1.42,4.18a2,2,0,0,1-.68-.23,2.27,2.27,0,0,1-.78,1.52,6.84,6.84,0,0,1,.38-2.63c-.29-.47,0-1.43.64-1.2.75.29-.59,1.71.35,1.89s1.32-1.47.72-2.08c-.88-.87-2.62-.13-2.35,1.11a.51.51,0,0,1-.26.64c-.3-.12-.33-.54-.32-1a1.87,1.87,0,0,1,1.7-1.7A1.81,1.81,0,0,1,159,90.55C159.12,91.65,158.51,92.92,157.38,92.83Z" style="fill:#61008e"/><line x1="43.61" y1="78.56" x2="92.8" y2="78.56" style="fill:none;stroke:#61008e;stroke-miterlimit:10;stroke-width:6px"/></svg>