<svg id="Layer_1" data-name="Layer 1" xmlns="http://www.w3.org/2000/svg" xmlns:xlink="http://www.w3.org/1999/xlink" viewBox="0 0 200 130"><defs><clipPath id="clip-path"><rect x="0.75" y="-163.16" width="196.67" height="127.01" rx="13.87" style="fill:none"/></clipPath></defs><g style="clip-path:url(#clip-path)"><polygon points="76.05 3.38 66.31 -5.25 78.02 -18.3 87.76 -9.68 76.05 3.38" style="fill:#bb9dce;fill-rule:evenodd"/><polygon points="90.22 15.93 80.48 7.3 92.19 -5.75 101.93 2.88 90.22 15.93" style="fill:#bb9dce;fill-rule:evenodd"/><polygon points="129.08 50.35 119.34 41.72 131.05 28.67 140.79 37.3 129.08 50.35" style="fill:#bb9dce;fill-rule:evenodd"/><polygon points="143.25 62.91 133.51 54.28 145.23 41.23 154.97 49.86 143.25 62.91" style="fill:#bb9dce;fill-rule:evenodd"/><polygon points="109.76 33.23 100.02 24.61 111.73 11.55 121.47 20.18 109.76 33.23" style="fill:#bb9dce;fill-rule:evenodd"/><polygon points="161.56 43.01 136.95 21.21 148.66 8.16 173.27 29.96 161.56 43.01" style="fill:#bb9dce;fill-rule:evenodd"/><polygon points="149.73 -11.26 183.69 18.82 204.27 -4.11 160.28 -43.07 117.61 4.47 127.64 13.36 149.73 -11.26" style="fill:#bb9dce;fill-rule:evenodd"/></g><rect x="0.75" y="0.75" width="198.5" height="128.5" rx="13.4" style="fill:#fff"/><path d="M185.85,1.5A12.66,12.66,0,0,1,198.5,14.15v101.7a12.66,12.66,0,0,1-12.65,12.65H14.15A12.66,12.66,0,0,1,1.5,115.85V14.15A12.66,12.66,0,0,1,14.15,1.5h171.7m0-1.5H14.15A14.14,14.14,0,0,0,0,14.15v101.7A14.14,14.14,0,0,0,14.15,130h171.7A14.14,14.14,0,0,0,200,115.85V14.15A14.14,14.14,0,0,0,185.85,0Z" style="fill:#61008e"/><path d="M26,27.84V26a9.33,9.33,0,0,1,9.33-9.32H165.22A9.33,9.33,0,0,1,174.54,26v1.82Z" style="fill:#61008e"/><path d="M165.22,17.29A8.74,8.74,0,0,1,174,26v1.22H26.55V26a8.72,8.72,0,0,1,8.73-8.73H165.22m0-1.19H35.28A9.93,9.93,0,0,0,25.35,26v2.41H175.14V26a9.92,9.92,0,0,0-9.92-9.92Z" style="fill:#61008e"/><rect x="25.35" y="50.92" width="149.79" height="21.91" style="fill:#bb9dce"/><rect x="25.35" y="28.43" width="149.79" height="21.91" style="fill:#fff"/><path d="M25.35,95.18H175.14a0,0,0,0,1,0,0V105.6a11.5,11.5,0,0,1-11.5,11.5H36.94a11.59,11.59,0,0,1-11.59-11.59V95.18a0,0,0,0,1,0,0Z" style="fill:#bb9dce"/><rect x="25.35" y="72.7" width="149.79" height="21.91" style="fill:#fff"/><path d="M164.34,16v1.19A9.62,9.62,0,0,1,174,26.75v79.49a9.62,9.62,0,0,1-9.61,9.61H36.15a9.61,9.61,0,0,1-9.6-9.61V26.75a9.61,9.61,0,0,1,9.6-9.61H164.34V16m0,0H36.15a10.8,10.8,0,0,0-10.8,10.8v79.49A10.8,10.8,0,0,0,36.15,117H164.34a10.79,10.79,0,0,0,10.8-10.8V26.75A10.79,10.79,0,0,0,164.34,16Z" style="fill:#61008e"/><path d="M153.47,57.84h-3.1a1.08,1.08,0,0,0-1.08,1.08V62a1.09,1.09,0,0,0,1.08,1.08h.88V60.86h-.75v-1h.75v-.59a1,1,0,0,1,1.09-1.19,3,3,0,0,1,.64,0v.72h-.37c-.37,0-.37.26-.37.52v.5h.8l-.11,1h-.69V63.1h1.23A1.08,1.08,0,0,0,154.55,62v-3.1A1.08,1.08,0,0,0,153.47,57.84Z" style="fill:#fff"/><path d="M158.71,59.84a.63.63,0,1,0,.63.63A.63.63,0,0,0,158.71,59.84Z" style="fill:#fff"/><path d="M159.47,59c-1.65-.08-1.89,0-2.08.2a.8.8,0,0,0-.2.56,9.82,9.82,0,0,0,.06,1.86.62.62,0,0,0,.36.35A.89.89,0,0,0,158,62c1.65.07,2,0,2.21-.42a1,1,0,0,0,.07-.35c.07-1.64,0-1.88-.21-2.07A.8.8,0,0,0,159.47,59Zm-.76,2.47a1,1,0,1,1,1-1A1,1,0,0,1,158.71,61.42Zm1-1.73a.22.22,0,0,1,0-.44.22.22,0,1,1,0,.44Z" style="fill:#fff"/><path d="M160.27,57.84h-3.1a1.08,1.08,0,0,0-1.08,1.08V62a1.08,1.08,0,0,0,1.08,1.08h3.1A1.09,1.09,0,0,0,161.35,62v-3.1A1.08,1.08,0,0,0,160.27,57.84Zm.3,3.4a1.66,1.66,0,0,1-.08.45c-.26.67-.88.71-2.55.63a1.58,1.58,0,0,1-.45-.08,1,1,0,0,1-.55-.55,8.73,8.73,0,0,1-.09-2,1.17,1.17,0,0,1,.3-.79,1.13,1.13,0,0,1,.79-.3c1.83-.08,2.1.07,2.33.3S160.65,59.56,160.57,61.24Z" style="fill:#fff"/><path d="M167.06,57.84H164a1.08,1.08,0,0,0-1.08,1.08V62A1.09,1.09,0,0,0,164,63.1h3.1A1.08,1.08,0,0,0,168.14,62v-3.1A1.08,1.08,0,0,0,167.06,57.84Zm-1.24,3.67a1.83,1.83,0,0,1-.6-.2,1.92,1.92,0,0,1-.69,1.33,6,6,0,0,1,.34-2.3c-.25-.42,0-1.27.56-1.06s-.52,1.5.3,1.66,1.17-1.29.64-1.83c-.77-.76-2.3-.11-2.06,1a.45.45,0,0,1-.24.56c-.26-.11-.29-.48-.27-.84a1.65,1.65,0,0,1,1.49-1.5,1.61,1.61,0,0,1,1.92,1.19C167.34,60.47,166.81,61.59,165.82,61.51Z" style="fill:#fff"/><line x1="119.81" y1="63.4" x2="133.62" y2="63.4" style="fill:none;stroke:#fff;stroke-linecap:round;stroke-linejoin:round;stroke-width:1.5px"/><line x1="119.81" y1="58.75" x2="137.8" y2="58.75" style="fill:none;stroke:#fff;stroke-linecap:round;stroke-linejoin:round;stroke-width:1.5px"/><line x1="87.9" y1="60.75" x2="105.9" y2="60.75" style="fill:none;stroke:#fff;stroke-linecap:round;stroke-linejoin:round;stroke-width:1.5px"/><line x1="56.47" y1="60.75" x2="74.46" y2="60.75" style="fill:none;stroke:#fff;stroke-linecap:round;stroke-linejoin:round;stroke-width:1.5px"/><rect x="32.07" y="53.35" width="15.64" height="15.5" rx="3.57" style="fill:#fff"/><path d="M44.15,53.65a3.27,3.27,0,0,1,3.27,3.27v8.36a3.28,3.28,0,0,1-3.27,3.27H35.64a3.28,3.28,0,0,1-3.27-3.27V56.92a3.27,3.27,0,0,1,3.27-3.27h8.51m0-.6H35.64a3.87,3.87,0,0,0-3.87,3.87v8.36a3.88,3.88,0,0,0,3.87,3.87h8.51A3.88,3.88,0,0,0,48,65.28V56.92a3.87,3.87,0,0,0-3.87-3.87Z" style="fill:#61008e"/><path d="M32,63.45l3.8-3.15a.63.63,0,0,1,.79,0l2.73,2.17a.63.63,0,0,0,.84-.05l3.53-3.64a.62.62,0,0,1,.91,0l3.1,3.4" style="fill:none;stroke:#61008e;stroke-linecap:round;stroke-linejoin:round;stroke-width:0.6000000000000001px"/><circle cx="37.38" cy="57.09" r="2.01" style="fill:none;stroke:#61008e;stroke-miterlimit:10;stroke-width:0.6000000000000001px"/><path d="M153.47,102.08h-3.1a1.08,1.08,0,0,0-1.08,1.08v3.1a1.08,1.08,0,0,0,1.08,1.08h.88V105.1h-.75v-1h.75v-.59a1,1,0,0,1,1.09-1.19,4,4,0,0,1,.64,0v.72h-.37c-.37,0-.37.26-.37.52v.5h.8l-.11,1h-.69v2.24h1.23a1.08,1.08,0,0,0,1.08-1.08v-3.1A1.08,1.08,0,0,0,153.47,102.08Z" style="fill:#fff"/><path d="M158.71,104.09a.62.62,0,0,0-.62.62.63.63,0,1,0,.62-.62Z" style="fill:#fff"/><path d="M159.47,103.19c-1.65-.08-1.89,0-2.08.2a.8.8,0,0,0-.2.56,9.82,9.82,0,0,0,.06,1.86.62.62,0,0,0,.36.35.89.89,0,0,0,.35.07c1.65.07,2,0,2.21-.42a1,1,0,0,0,.07-.35c.07-1.64,0-1.88-.21-2.07A.8.8,0,0,0,159.47,103.19Zm-.76,2.48a1,1,0,1,1,1-1A1,1,0,0,1,158.71,105.67Zm1-1.73a.22.22,0,0,1-.22-.23.22.22,0,0,1,.22-.22.23.23,0,1,1,0,.45Z" style="fill:#fff"/><path d="M160.27,102.08h-3.1a1.08,1.08,0,0,0-1.08,1.08v3.1a1.08,1.08,0,0,0,1.08,1.08h3.1a1.08,1.08,0,0,0,1.08-1.08v-3.1A1.08,1.08,0,0,0,160.27,102.08Zm.3,3.4a1.58,1.58,0,0,1-.08.45c-.26.67-.88.71-2.55.63a1.3,1.3,0,0,1-.45-.08,1,1,0,0,1-.55-.55,8.7,8.7,0,0,1-.09-2,1.19,1.19,0,0,1,.3-.79,1.17,1.17,0,0,1,.79-.3c1.83-.08,2.1.07,2.33.3S160.65,103.81,160.57,105.48Z" style="fill:#fff"/><path d="M167.06,102.08H164a1.08,1.08,0,0,0-1.08,1.08v3.1a1.08,1.08,0,0,0,1.08,1.08h3.1a1.08,1.08,0,0,0,1.08-1.08v-3.1A1.08,1.08,0,0,0,167.06,102.08Zm-1.24,3.67a1.83,1.83,0,0,1-.6-.2,1.92,1.92,0,0,1-.69,1.33,6,6,0,0,1,.34-2.3c-.25-.42,0-1.26.56-1.06s-.52,1.5.3,1.66,1.17-1.29.64-1.82c-.77-.77-2.3-.12-2.06,1a.45.45,0,0,1-.24.56c-.26-.1-.29-.48-.27-.84a1.65,1.65,0,0,1,1.49-1.5,1.6,1.6,0,0,1,1.92,1.2C167.34,104.72,166.81,105.83,165.82,105.75Z" style="fill:#fff"/><line x1="119.81" y1="107.64" x2="133.62" y2="107.64" style="fill:none;stroke:#fff;stroke-linecap:round;stroke-linejoin:round;stroke-width:1.5px"/><line x1="119.81" y1="102.99" x2="137.8" y2="102.99" style="fill:none;stroke:#fff;stroke-linecap:round;stroke-linejoin:round;stroke-width:1.5px"/><line x1="87.9" y1="104.99" x2="105.9" y2="104.99" style="fill:none;stroke:#fff;stroke-linecap:round;stroke-linejoin:round;stroke-width:1.5px"/><line x1="56.47" y1="104.99" x2="74.46" y2="104.99" style="fill:none;stroke:#fff;stroke-linecap:round;stroke-linejoin:round;stroke-width:1.5px"/><rect x="32.07" y="97.59" width="15.64" height="15.5" rx="3.57" style="fill:#fff"/><path d="M44.15,97.89a3.28,3.28,0,0,1,3.27,3.27v8.36a3.28,3.28,0,0,1-3.27,3.27H35.64a3.28,3.28,0,0,1-3.27-3.27v-8.36a3.28,3.28,0,0,1,3.27-3.27h8.51m0-.6H35.64a3.87,3.87,0,0,0-3.87,3.87v8.36a3.87,3.87,0,0,0,3.87,3.87h8.51A3.87,3.87,0,0,0,48,109.52v-8.36a3.87,3.87,0,0,0-3.87-3.87Z" style="fill:#61008e"/><path d="M32,107.7l3.8-3.16a.62.62,0,0,1,.79,0l2.73,2.16a.63.63,0,0,0,.84,0L43.7,103a.62.62,0,0,1,.91,0l3.1,3.4" style="fill:none;stroke:#61008e;stroke-linecap:round;stroke-linejoin:round;stroke-width:0.6000000000000001px"/><circle cx="37.38" cy="101.34" r="2.01" style="fill:none;stroke:#61008e;stroke-miterlimit:10;stroke-width:0.6000000000000001px"/><path d="M153.47,80h-3.1A1.08,1.08,0,0,0,149.29,81v3.1a1.08,1.08,0,0,0,1.08,1.08h.88V83h-.75V82h.75v-.59a1,1,0,0,1,1.09-1.19,4,4,0,0,1,.64,0V81h-.37c-.37,0-.37.26-.37.52V82h.8l-.11,1h-.69v2.24h1.23a1.08,1.08,0,0,0,1.08-1.08V81A1.08,1.08,0,0,0,153.47,80Z" style="fill:#61008e"/><path d="M158.71,82a.63.63,0,1,0,.63.63A.63.63,0,0,0,158.71,82Z" style="fill:#61008e"/><path d="M159.47,81.07c-1.65-.08-1.89,0-2.08.2a.8.8,0,0,0-.2.56,9.82,9.82,0,0,0,.06,1.86.62.62,0,0,0,.36.35.89.89,0,0,0,.35.07c1.65.07,2,0,2.21-.42a1,1,0,0,0,.07-.35c.07-1.64,0-1.88-.21-2.07A.8.8,0,0,0,159.47,81.07Zm-.76,2.48a1,1,0,1,1,1-1A1,1,0,0,1,158.71,83.55Zm1-1.74a.22.22,0,0,1,0-.44.22.22,0,1,1,0,.44Z" style="fill:#61008e"/><path d="M160.27,80h-3.1A1.08,1.08,0,0,0,156.09,81v3.1a1.08,1.08,0,0,0,1.08,1.08h3.1a1.08,1.08,0,0,0,1.08-1.08V81A1.08,1.08,0,0,0,160.27,80Zm.3,3.4a1.58,1.58,0,0,1-.08.45c-.26.67-.88.71-2.55.63a1.58,1.58,0,0,1-.45-.08,1,1,0,0,1-.55-.55,8.7,8.7,0,0,1-.09-2,1.17,1.17,0,0,1,.3-.79,1.13,1.13,0,0,1,.79-.3c1.83-.08,2.1.07,2.33.3S160.65,81.69,160.57,83.36Z" style="fill:#61008e"/><path d="M167.06,80H164A1.08,1.08,0,0,0,162.88,81v3.1A1.08,1.08,0,0,0,164,85.22h3.1a1.08,1.08,0,0,0,1.08-1.08V81A1.08,1.08,0,0,0,167.06,80Zm-1.24,3.67a1.83,1.83,0,0,1-.6-.2,1.92,1.92,0,0,1-.69,1.33,6,6,0,0,1,.34-2.3c-.25-.42,0-1.26.56-1.06s-.52,1.5.3,1.66,1.17-1.29.64-1.82c-.77-.77-2.3-.12-2.06,1a.45.45,0,0,1-.24.56c-.26-.11-.29-.48-.27-.84a1.65,1.65,0,0,1,1.49-1.5,1.6,1.6,0,0,1,1.92,1.2C167.34,82.59,166.81,83.71,165.82,83.63Z" style="fill:#61008e"/><line x1="119.81" y1="85.52" x2="133.62" y2="85.52" style="fill:none;stroke:#61008e;stroke-linecap:round;stroke-linejoin:round;stroke-width:1.5px"/><line x1="119.81" y1="80.87" x2="137.8" y2="80.87" style="fill:none;stroke:#61008e;stroke-linecap:round;stroke-linejoin:round;stroke-width:1.5px"/><line x1="87.9" y1="82.87" x2="105.9" y2="82.87" style="fill:none;stroke:#61008e;stroke-linecap:round;stroke-linejoin:round;stroke-width:1.5px"/><line x1="56.47" y1="82.87" x2="74.46" y2="82.87" style="fill:none;stroke:#61008e;stroke-linecap:round;stroke-linejoin:round;stroke-width:1.5px"/><rect x="32.07" y="75.47" width="15.64" height="15.5" rx="3.57" style="fill:#fff"/><path d="M44.15,75.77A3.27,3.27,0,0,1,47.42,79V87.4a3.28,3.28,0,0,1-3.27,3.27H35.64a3.28,3.28,0,0,1-3.27-3.27V79a3.27,3.27,0,0,1,3.27-3.27h8.51m0-.6H35.64A3.87,3.87,0,0,0,31.77,79V87.4a3.87,3.87,0,0,0,3.87,3.87h8.51A3.87,3.87,0,0,0,48,87.4V79a3.87,3.87,0,0,0-3.87-3.87Z" style="fill:#61008e"/><path d="M32,85.58l3.8-3.16a.63.63,0,0,1,.79,0l2.73,2.17a.63.63,0,0,0,.84,0l3.53-3.64a.63.63,0,0,1,.91,0l3.1,3.4" style="fill:none;stroke:#61008e;stroke-linecap:round;stroke-linejoin:round;stroke-width:0.6000000000000001px"/><circle cx="37.38" cy="79.21" r="2.01" style="fill:none;stroke:#61008e;stroke-miterlimit:10;stroke-width:0.6000000000000001px"/><path d="M153.47,35.72h-3.1a1.08,1.08,0,0,0-1.08,1.08v3.1A1.09,1.09,0,0,0,150.37,41h.88V38.74h-.75v-1h.75v-.59A1,1,0,0,1,152.34,36a4.72,4.72,0,0,1,.64,0v.73h-.37c-.37,0-.37.26-.37.52v.5h.8l-.11,1h-.69V41h1.23a1.08,1.08,0,0,0,1.08-1.08V36.8A1.08,1.08,0,0,0,153.47,35.72Z" style="fill:#61008e"/><path d="M158.71,37.72a.63.63,0,1,0,.63.62A.62.62,0,0,0,158.71,37.72Z" style="fill:#61008e"/><path d="M159.47,36.82c-1.65-.07-1.89,0-2.08.21a.8.8,0,0,0-.2.56,9.82,9.82,0,0,0,.06,1.86.62.62,0,0,0,.36.35.77.77,0,0,0,.35.06c1.65.08,2,0,2.21-.41a1,1,0,0,0,.07-.35c.07-1.64,0-1.88-.21-2.07A.81.81,0,0,0,159.47,36.82Zm-.76,2.48a1,1,0,1,1,1-1A1,1,0,0,1,158.71,39.3Zm1-1.73a.22.22,0,0,1-.22-.22.23.23,0,1,1,.22.22Z" style="fill:#61008e"/><path d="M160.27,35.72h-3.1a1.08,1.08,0,0,0-1.08,1.08v3.1A1.08,1.08,0,0,0,157.17,41h3.1a1.09,1.09,0,0,0,1.08-1.08V36.8A1.08,1.08,0,0,0,160.27,35.72Zm.3,3.39a1.66,1.66,0,0,1-.08.46c-.26.67-.88.71-2.55.63a1.27,1.27,0,0,1-.45-.09.92.92,0,0,1-.55-.54,8.81,8.81,0,0,1-.09-2,1.17,1.17,0,0,1,.3-.78,1.13,1.13,0,0,1,.79-.3c1.83-.09,2.1.07,2.33.3S160.65,37.44,160.57,39.11Z" style="fill:#61008e"/><path d="M167.06,35.72H164a1.08,1.08,0,0,0-1.08,1.08v3.1A1.09,1.09,0,0,0,164,41h3.1a1.08,1.08,0,0,0,1.08-1.08V36.8A1.08,1.08,0,0,0,167.06,35.72Zm-1.24,3.67a1.83,1.83,0,0,1-.6-.2,1.92,1.92,0,0,1-.69,1.33,6,6,0,0,1,.34-2.3c-.25-.42,0-1.27.56-1.06s-.52,1.5.3,1.66,1.17-1.29.64-1.83c-.77-.76-2.3-.11-2.06,1a.46.46,0,0,1-.24.56c-.26-.11-.29-.48-.27-.84a1.64,1.64,0,0,1,1.49-1.5,1.6,1.6,0,0,1,1.92,1.19C167.34,38.35,166.81,39.46,165.82,39.39Z" style="fill:#61008e"/><line x1="119.81" y1="41.27" x2="133.62" y2="41.27" style="fill:none;stroke:#61008e;stroke-linecap:round;stroke-linejoin:round;stroke-width:1.5px"/><line x1="119.81" y1="36.63" x2="137.8" y2="36.63" style="fill:none;stroke:#61008e;stroke-linecap:round;stroke-linejoin:round;stroke-width:1.5px"/><line x1="87.9" y1="38.63" x2="105.9" y2="38.63" style="fill:none;stroke:#61008e;stroke-linecap:round;stroke-linejoin:round;stroke-width:1.5px"/><line x1="56.47" y1="38.63" x2="74.46" y2="38.63" style="fill:none;stroke:#61008e;stroke-linecap:round;stroke-linejoin:round;stroke-width:1.5px"/><rect x="32.07" y="31.23" width="15.64" height="15.5" rx="3.57" style="fill:#fff"/><path d="M44.15,31.53a3.27,3.27,0,0,1,3.27,3.26v8.37a3.27,3.27,0,0,1-3.27,3.26H35.64a3.27,3.27,0,0,1-3.27-3.26V34.79a3.27,3.27,0,0,1,3.27-3.26h8.51m0-.6H35.64a3.87,3.87,0,0,0-3.87,3.86v8.37A3.87,3.87,0,0,0,35.64,47h8.51A3.87,3.87,0,0,0,48,43.16V34.79a3.87,3.87,0,0,0-3.87-3.86Z" style="fill:#61008e"/><path d="M32,41.33l3.8-3.15a.63.63,0,0,1,.79,0l2.73,2.17a.63.63,0,0,0,.84-.05l3.53-3.64a.62.62,0,0,1,.91,0l3.1,3.4" style="fill:none;stroke:#61008e;stroke-linecap:round;stroke-linejoin:round;stroke-width:0.6000000000000001px"/><circle cx="37.38" cy="34.97" r="2.01" style="fill:none;stroke:#61008e;stroke-miterlimit:10;stroke-width:0.6000000000000001px"/></svg>