<svg id="Layer_1" data-name="Layer 1" xmlns="http://www.w3.org/2000/svg" viewBox="0 0 200 130"><rect x="0.75" y="0.75" width="198.5" height="128.5" rx="13.4" style="fill:#fff"/><path d="M185.85,1.5A12.66,12.66,0,0,1,198.5,14.15v101.7a12.66,12.66,0,0,1-12.65,12.65H14.15A12.66,12.66,0,0,1,1.5,115.85V14.15A12.66,12.66,0,0,1,14.15,1.5h171.7m0-1.5H14.15A14.14,14.14,0,0,0,0,14.15v101.7A14.14,14.14,0,0,0,14.15,130h171.7A14.14,14.14,0,0,0,200,115.85V14.15A14.14,14.14,0,0,0,185.85,0Z" style="fill:#61008e"/><line x1="17.05" y1="65" x2="182.95" y2="65" style="fill:none;stroke:#61008e;stroke-linecap:round;stroke-linejoin:round;stroke-width:1.5px"/><path d="M60.59,11.15a2.25,2.25,0,0,1,2.24,2.24V43.7a2.25,2.25,0,0,1-2.24,2.24H30a2.25,2.25,0,0,1-2.25-2.24V13.39A2.25,2.25,0,0,1,30,11.15H60.59m0-1H30a3.25,3.25,0,0,0-3.25,3.24V43.7A3.25,3.25,0,0,0,30,46.94H60.59a3.24,3.24,0,0,0,3.24-3.24V13.39a3.24,3.24,0,0,0-3.24-3.24Z" style="fill:#61008e"/><line x1="31.74" y1="51.96" x2="59.25" y2="51.96" style="fill:none;stroke:#61008e;stroke-linecap:round;stroke-linejoin:round;stroke-width:1.5px"/><path d="M27.25,33.94l8.69-7.21a1.43,1.43,0,0,1,1.8,0l6.24,5a1.44,1.44,0,0,0,1.92-.13L54,23.24a1.43,1.43,0,0,1,2.09,0l7.06,7.78" style="fill:none;stroke:#61008e;stroke-linecap:round;stroke-linejoin:round;stroke-width:0.7827000000000001px"/><circle cx="39.52" cy="19.4" r="4.59" style="fill:none;stroke:#61008e;stroke-miterlimit:10;stroke-width:0.7827000000000001px"/><path d="M169.3,11.15a2.25,2.25,0,0,1,2.24,2.24V43.7a2.25,2.25,0,0,1-2.24,2.24H138.66a2.25,2.25,0,0,1-2.24-2.24V13.39a2.25,2.25,0,0,1,2.24-2.24H169.3m0-1H138.66a3.24,3.24,0,0,0-3.24,3.24V43.7a3.24,3.24,0,0,0,3.24,3.24H169.3a3.24,3.24,0,0,0,3.24-3.24V13.39a3.24,3.24,0,0,0-3.24-3.24Z" style="fill:#61008e"/><line x1="140.44" y1="51.96" x2="167.95" y2="51.96" style="fill:none;stroke:#61008e;stroke-linecap:round;stroke-linejoin:round;stroke-width:1.5px"/><path d="M136,33.94l8.69-7.21a1.43,1.43,0,0,1,1.8,0l6.24,5a1.43,1.43,0,0,0,1.91-.13l8.08-8.3a1.43,1.43,0,0,1,2.09,0l7.06,7.78" style="fill:none;stroke:#61008e;stroke-linecap:round;stroke-linejoin:round;stroke-width:0.7827000000000001px"/><circle cx="148.23" cy="19.4" r="4.59" style="fill:none;stroke:#61008e;stroke-miterlimit:10;stroke-width:0.7827000000000001px"/><path d="M115.32,78.38a2.25,2.25,0,0,1,2.24,2.25v30.3a2.24,2.24,0,0,1-2.24,2.24H84.68a2.24,2.24,0,0,1-2.24-2.24V80.63a2.25,2.25,0,0,1,2.24-2.25h30.64m0-1H84.68a3.24,3.24,0,0,0-3.24,3.25v30.3a3.24,3.24,0,0,0,3.24,3.24h30.64a3.24,3.24,0,0,0,3.24-3.24V80.63a3.24,3.24,0,0,0-3.24-3.25Z" style="fill:#61008e"/><line x1="86.46" y1="119.19" x2="113.97" y2="119.19" style="fill:none;stroke:#61008e;stroke-linecap:round;stroke-linejoin:round;stroke-width:1.5px"/><path d="M82,101.17,90.67,94a1.43,1.43,0,0,1,1.8,0l6.24,5a1.43,1.43,0,0,0,1.91-.13l8.08-8.3a1.44,1.44,0,0,1,2.09,0l7.06,7.78" style="fill:none;stroke:#61008e;stroke-linecap:round;stroke-linejoin:round;stroke-width:0.7827000000000001px"/><circle cx="94.25" cy="86.63" r="4.59" style="fill:none;stroke:#61008e;stroke-miterlimit:10;stroke-width:0.7827000000000001px"/><path d="M45.49,69.3a4.15,4.15,0,1,1,1.74-.38,4.17,4.17,0,0,1-1.74.38Z" style="fill:#bb9dce"/><path d="M45.49,61.48a3.66,3.66,0,0,1,1.53,7,3.71,3.71,0,0,1-1.53.34,3.66,3.66,0,0,1-3.32-2.14A3.66,3.66,0,0,1,44,61.81a3.7,3.7,0,0,1,1.53-.33m0-1a4.66,4.66,0,1,0,4.23,2.71,4.64,4.64,0,0,0-4.23-2.71Z" style="fill:#61008e"/><path d="M100,69.3a4.17,4.17,0,0,1-3.9-5.61,4.12,4.12,0,0,1,2.16-2.33,4.17,4.17,0,0,1,5.52,2,4.13,4.13,0,0,1,.12,3.18A4.15,4.15,0,0,1,100,69.3Z" style="fill:#bb9dce"/><path d="M100,61.48a3.66,3.66,0,0,1,1.53,7,3.71,3.71,0,0,1-1.53.34,3.66,3.66,0,0,1-3.32-2.14,3.66,3.66,0,0,1,1.79-4.85,3.7,3.7,0,0,1,1.53-.33m0-1a4.66,4.66,0,1,0,4.23,2.71A4.66,4.66,0,0,0,100,60.48Z" style="fill:#61008e"/><path d="M153.9,69.3a4.16,4.16,0,0,1-3.78-2.43,4.16,4.16,0,0,1,2-5.51,4.16,4.16,0,1,1,1.74,7.94Z" style="fill:#bb9dce"/><path d="M153.89,61.48a3.67,3.67,0,0,1,3.33,2.13,3.67,3.67,0,0,1-3.32,5.19,3.68,3.68,0,0,1-3.33-2.14,3.6,3.6,0,0,1-.11-2.79,3.65,3.65,0,0,1,3.43-2.39m0-1a4.65,4.65,0,0,0-4.23,6.6,4.66,4.66,0,1,0,4.23-6.6Z" style="fill:#61008e"/></svg>