<svg width="41" height="41" viewBox="0 0 41 41" fill="none" xmlns="http://www.w3.org/2000/svg">
<path d="M17.0224 27.903C16.5836 27.8695 16.1758 27.665 15.8857 27.3336L9.06611 20.5006C8.91417 20.1819 8.86459 19.8239 8.92422 19.4756C8.98384 19.1274 9.14972 18.8064 9.39902 18.5566C9.64832 18.3067 9.96877 18.1404 10.3163 18.0808C10.6637 18.0211 11.0212 18.0707 11.3393 18.2229L16.9542 23.8487L36.3445 4.55692C36.6626 4.40468 37.0201 4.355 37.3675 4.41474C37.7151 4.47449 38.0356 4.64069 38.2847 4.89048C38.5341 5.14027 38.7 5.46136 38.7596 5.80952C38.8192 6.15771 38.7696 6.51583 38.6177 6.83459L18.159 27.3336C17.8689 27.665 17.4609 27.8695 17.0224 27.903Z" fill="#009C06"/>
<path d="M20.4324 41C16.776 40.9941 13.1877 40.0065 10.0414 38.1399C6.89509 36.2731 4.30558 33.5957 2.54232 30.386C1.202 27.9945 0.373622 25.3494 0.11 22.6191C-0.306041 18.6152 0.463732 14.5771 2.32328 11.0087C4.18285 7.4402 7.04987 4.49931 10.5667 2.55287C12.9536 1.20991 15.5936 0.379901 18.3183 0.115759C21.0328 -0.176832 23.7783 0.0866497 26.3882 0.890169C26.621 0.936793 26.8417 1.03166 27.0358 1.16871C27.23 1.30573 27.3934 1.48191 27.5157 1.68594C27.638 1.88996 27.7164 2.11734 27.746 2.35348C27.7753 2.58961 27.7553 2.82932 27.6869 3.05722C27.6185 3.28512 27.5032 3.4962 27.3486 3.67688C27.1941 3.8576 27.0036 4.00396 26.7894 4.10657C26.5751 4.2092 26.3416 4.26582 26.1043 4.27282C25.867 4.27983 25.6305 4.23706 25.4107 4.14725C23.2025 3.48198 20.8841 3.26515 18.5911 3.5095C16.3248 3.74203 14.1287 4.43155 12.1352 5.53663C10.2147 6.59826 8.51661 8.02123 7.13419 9.72756C5.71084 11.4658 4.64796 13.4711 4.00781 15.6261C3.36768 17.7811 3.16311 20.0424 3.40614 22.2775C3.63821 24.5483 4.3264 26.7488 5.42929 28.7461C6.48882 30.6705 7.90901 32.3719 9.61197 33.757C11.3468 35.1833 13.3482 36.2481 15.4989 36.8895C17.6496 37.5309 19.9064 37.7359 22.1373 37.4924C24.4037 37.2598 26.5996 36.5704 28.5932 35.4652C30.5138 34.4036 32.2117 32.9808 33.5942 31.2743C35.0175 29.5362 36.0804 27.5307 36.7206 25.3758C37.3607 23.2209 37.5653 20.9596 37.3223 18.7243C37.2998 18.4895 37.3239 18.2526 37.3928 18.0271C37.4619 17.8016 37.5744 17.5919 37.7244 17.4101C37.8742 17.2281 38.0584 17.0776 38.2664 16.9671C38.4744 16.8564 38.7019 16.7881 38.9363 16.7655C39.1706 16.7432 39.407 16.7671 39.6321 16.8363C39.8571 16.9054 40.0665 17.0183 40.2479 17.1684C40.4295 17.3185 40.5798 17.5033 40.69 17.7114C40.8005 17.9198 40.8687 18.1478 40.8912 18.3827C41.3052 22.3891 40.5321 26.4288 38.6683 29.9977C36.8045 33.5663 33.9327 36.5059 30.4118 38.449C27.9994 39.847 25.3187 40.7164 22.5465 41C21.8418 41 21.1144 41 20.4324 41Z" fill="#009C06"/>
</svg>
