<svg width="21" height="21" viewBox="0 0 21 21" fill="none" xmlns="http://www.w3.org/2000/svg">
<path d="M8.8036 14.1114C8.58959 14.095 8.39065 13.9953 8.24914 13.8336L4.9225 10.5004C4.84839 10.345 4.8242 10.1703 4.85329 10.0004C4.88237 9.83055 4.96329 9.674 5.0849 9.55212C5.20651 9.43023 5.36283 9.34913 5.53233 9.32002C5.70183 9.29091 5.87619 9.31513 6.03138 9.38935L8.77033 12.1337L18.2291 2.72302C18.3842 2.64875 18.5586 2.62452 18.7281 2.65367C18.8976 2.68281 19.054 2.76388 19.1755 2.88573C19.2971 3.00758 19.3781 3.16421 19.4071 3.33405C19.4362 3.50389 19.412 3.67859 19.3379 3.83408L9.35804 13.8336C9.21655 13.9953 9.0175 14.095 8.8036 14.1114Z" fill="white"/>
<path d="M10.467 20.5C8.68341 20.4971 6.93304 20.0154 5.39826 19.1048C3.86346 18.1942 2.60028 16.8882 1.74016 15.3225C1.08634 14.1558 0.682255 12.8656 0.553658 11.5337C0.350711 9.58059 0.726211 7.6108 1.63331 5.87008C2.54041 4.12937 3.93896 2.69478 5.6545 1.7453C6.81884 1.0902 8.10661 0.685318 9.43578 0.556468C10.7599 0.413741 12.0992 0.542268 13.3723 0.934229C13.4858 0.956972 13.5935 1.00325 13.6882 1.0701C13.7829 1.13694 13.8626 1.22288 13.9223 1.32241C13.982 1.42193 14.0202 1.53285 14.0346 1.64804C14.0489 1.76323 14.0392 1.88015 14.0058 1.99133C13.9724 2.1025 13.9162 2.20546 13.8408 2.2936C13.7654 2.38175 13.6725 2.45315 13.568 2.5032C13.4634 2.55327 13.3496 2.58089 13.2338 2.5843C13.118 2.58772 13.0027 2.56686 12.8955 2.52305C11.8183 2.19853 10.6874 2.09276 9.56884 2.21195C8.46329 2.32538 7.39205 2.66173 6.41962 3.2008C5.48276 3.71866 4.65444 4.4128 3.98009 5.24515C3.28578 6.09307 2.7673 7.07127 2.45503 8.12248C2.14277 9.17372 2.04298 10.2768 2.16153 11.3671C2.27474 12.4748 2.61044 13.5482 3.14843 14.5225C3.66528 15.4612 4.35805 16.2912 5.18877 16.9668C6.03502 17.6626 7.0113 18.182 8.06044 18.4949C9.10955 18.8077 10.2104 18.9077 11.2987 18.789C12.4042 18.6755 13.4754 18.3392 14.4479 17.8001C15.3848 17.2823 16.213 16.5882 16.8874 15.7558C17.5817 14.9079 18.1002 13.9296 18.4125 12.8784C18.7247 11.8273 18.8245 10.7242 18.706 9.63381C18.695 9.51926 18.7068 9.40371 18.7404 9.29372C18.7741 9.18372 18.829 9.08139 18.9022 8.99273C18.9752 8.90395 19.0651 8.83051 19.1665 8.77663C19.268 8.72263 19.379 8.6893 19.4933 8.6783C19.6076 8.66741 19.7229 8.67908 19.8327 8.71285C19.9425 8.74652 20.0446 8.80163 20.1331 8.87485C20.2217 8.94806 20.295 9.03817 20.3488 9.13972C20.4027 9.24138 20.436 9.3526 20.4469 9.46715C20.6489 11.4215 20.2717 13.3921 19.3626 15.133C18.4534 16.8738 17.0525 18.3078 15.335 19.2556C14.1583 19.9376 12.8506 20.3617 11.4983 20.5C11.1545 20.5 10.7997 20.5 10.467 20.5Z" fill="white"/>
</svg>
