<?xml version="1.0" encoding="utf-8"?>
<!-- Generator: Adobe Illustrator 26.0.3, SVG Export Plug-In . SVG Version: 6.00 Build 0)  -->
<svg version="1.1" id="Layer_1" xmlns="http://www.w3.org/2000/svg" xmlns:xlink="http://www.w3.org/1999/xlink" x="0px" y="0px"
	 viewBox="0 0 20 20" style="enable-background:new 0 0 20 20;" xml:space="preserve">
<style type="text/css">
	.st0{fill:#FFFFFF;}
</style>
<path class="st0" d="M15.2,18.7c0,0.6-0.5,1.1-1.1,1.1H5.9c-0.6-0.1-1-0.6-1-1.2c0-0.5,0.5-0.9,1-1h8.2
	C14.7,17.6,15.2,18.1,15.2,18.7z"/>
<path class="st0" d="M15.2,15.4c0,0.6-0.5,1.1-1.1,1.1H5.9c-0.6-0.1-1-0.6-1-1.2c0-0.5,0.5-0.9,1-1h8.2
	C14.7,14.3,15.2,14.8,15.2,15.4z"/>
<path class="st0" d="M16.4,1.6v5l-3.2-2.9c-0.7-0.8-1.6,0-1.6,0s-2.4,2-2.8,2.4c-0.2,0.2-0.5,0.2-0.8,0c0,0,0,0,0,0
	C7.6,5.8,7.1,5.4,6.7,4.9C6.2,4.4,5.4,4.4,4.8,4.8c0,0-0.1,0.1-0.1,0.1L3.6,6.1V1.6c0.1-0.8,0.8-1.4,1.6-1.4h9.8
	C15.7,0.2,16.4,0.8,16.4,1.6z"/>
<path class="st0" d="M16.4,8.3v3.4c-0.1,0.8-0.8,1.4-1.6,1.4H5.1c-0.8,0.1-1.5-0.5-1.5-1.3c0,0,0,0,0,0V7.8l1.2-1.2
	c0.5-0.6,1.3-0.6,1.9-0.1c0,0,0.1,0.1,0.1,0.1c1.1,1,1.5,1.4,1.5,1.4c0.2,0.2,0.5,0.2,0.8,0c0,0,0,0,0,0c0.4-0.4,2.8-2.4,2.8-2.4
	c0.4-0.4,1.1-0.4,1.6,0L16.4,8.3z"/>
</svg>
