<?xml version="1.0" encoding="utf-8"?>
<!-- Generator: Adobe Illustrator 26.0.3, SVG Export Plug-In . SVG Version: 6.00 Build 0)  -->
<svg version="1.1" id="Layer_1" xmlns="http://www.w3.org/2000/svg" xmlns:xlink="http://www.w3.org/1999/xlink" x="0px" y="0px"
	 viewBox="0 0 512.9 512.8" style="enable-background:new 0 0 512.9 512.8;" xml:space="preserve">
<style type="text/css">
	.st0{fill:url(#SVGID_1_);}
	.st1{fill:#FDFEFE;}
</style>
<linearGradient id="SVGID_1_" gradientUnits="userSpaceOnUse" x1="20.4333" y1="19.7465" x2="492.3242" y2="491.6275" gradientTransform="matrix(1 0 0 -1 0 512)">
	<stop  offset="0" style="stop-color:#1841CE"/>
	<stop  offset="1" style="stop-color:#8241FF"/>
</linearGradient>
<path class="st0" d="M512.6,407.8c0-16,0-32,0-48v-84c0-8,0.2-16,0.2-24c0-59.6,0-119.3,0-178.9c0-37.4-21.7-64.2-58.4-72
	c-0.7-0.1-1.3-0.2-1.5-1H60c-5.1,1.6-10.2,3.2-15.2,4.8C43.2,5.4,41.6,6.2,40,7l0,0C24.5,14,13.6,25.5,6.6,40.8
	C2.6,46.6,2.8,53.8,0,60v392.8c1.7,2.4,1.6,5.3,2.3,7.9c8,30.2,35.4,51.8,66.7,52c39,0.2,77.9,0,116.9-0.1h254.9
	c8,0.5,16.1-0.7,23.6-3.5c10.1-3.3,19.4-8.2,26.8-16.1c5.1-4,8.5-9.4,11.7-14.9c5.5-8.4,8.7-18.1,9.3-28.2
	C513.4,435.8,512.6,421.8,512.6,407.8z M282.8,406.6l-52.9,0.4h-44c-20-0.1-40-0.1-59.9-0.2c-9.9-0.1-16.5-4.6-19.2-12.7
	c-0.9-2.6-0.7-5.2-0.8-7.8c-0.1-12.1-0.1-24.3-0.2-36.4V131.9c-0.3-8.2,3-14.7,9.2-19.9l0,0c3.5-0.9,6.8-2.2,10.6-2.2
	c8.1,0.1,16.3,0,24.5,0.1c11,0.1,19.2,8,19.8,19c0.1,2.6,0.2,5.3,0.3,8v165.9c-0.1,12.3-0.1,24.6-0.3,36.9c0,2.4,0.9,3.1,3.2,3.1
	c18.6-0.1,37.2-0.2,55.8-0.3h41c1.5,0.2,2.9,0.2,4.4,0.2c10.5-0.8,18.1,3.5,22.7,13c1.4,4.9,0.6,10,1.1,15c0,2.5-0.2,5-0.2,7.4
	c0,7.1,0.7,14.3-3.6,20.6C291.2,402.4,287.2,405,282.8,406.6L282.8,406.6z M185.9,407.6c0,0.3,0.1,0.7,0.2,1
	C186,408.2,185.9,407.9,185.9,407.6L185.9,407.6z M360.9,406c-6,0.2-10.6-2.5-14.2-7.2c-3.1-4.7-4.5-10.4-4-16
	c-0.5-0.1-1-0.2-1.4-0.4c0.5,0.2,0.9,0.3,1.4,0.4v-95c0.2-5.1,0.4-10.1,3.2-14.7c4.4-7.3,11.4-8.6,18.9-9.2
	c6.5,0.1,12.9,0.2,19.4,0.3c13.8,0.1,21.6,8,21.7,21.7c0,2.3,0.1,4.6,0.2,7v91c0,9.4-3.7,16.6-12.3,21
	C382.9,407,371.8,405.1,360.9,406z M406.9,227.4c0.3,6.2-1.5,12.2-5.2,17.2c-5.2,4.7-11.4,6.5-18.4,6.2c-6.8-0.3-13.6,0-20.5-0.1
	c-11.9-0.2-19.9-8.5-20-20.3c-0.1-8.8-0.1-17.6-0.1-26.4c4-13.2,8.9-16.9,22.7-16.9c3.1,0,6.3-0.1,9.4-0.2c2.8,0.1,5.6,0.2,8.5,0.2
	c15.6,0,22.7,6.6,23.7,21.9C406.9,215.1,406.7,221.2,406.9,227.4L406.9,227.4z M342.8,148.5c0.2-6.5,0-13,0.1-19.5
	c0-10.3,8.3-18.8,18.6-19c8.8-0.2,17.7-0.2,26.5,0c10,0.1,18.1,8,18.7,17.9c0.4,9,0.4,18,0,27c-0.4,10.2-8.7,18.2-18.9,18.3
	c-9.3,0.2-18.6,0.1-28,0.2c-6.1-0.5-10.6-3.7-14.1-8.4C343.1,159.7,342.6,154.2,342.8,148.5L342.8,148.5z"/>
<path class="st1" d="M407,208.9c-1-15.3-8.1-21.9-23.7-21.9c-2.8,0-5.6-0.1-8.5-0.2c-3.1,0.1-6.3,0.2-9.4,0.2
	c-13.8,0-18.7,3.7-22.7,16.9c0,8.8,0,17.6,0.1,26.4c0.1,11.8,8.1,20.1,20,20.3c6.8,0.1,13.6-0.2,20.5,0.1c7,0.3,13.1-1.4,18.4-6.2
	c3.7-5,5.5-11,5.2-17.2C406.7,221.2,406.9,215.1,407,208.9z"/>
<path class="st1" d="M359.9,173.4c9.3,0,18.6,0.1,28-0.2c10.2-0.1,18.5-8.1,18.9-18.3c0.3-9,0.4-18,0-27c-0.6-10-8.8-17.8-18.7-17.9
	c-8.8-0.2-17.7-0.2-26.5,0c-10.3,0.2-18.6,8.7-18.6,19c-0.1,6.5,0.1,13-0.1,19.5c-0.2,5.7,0.2,11.3,2.9,16.5
	C349.3,169.7,353.8,172.8,359.9,173.4z"/>
<path class="st1" d="M297,355.8c-4.6-9.6-12.1-13.8-22.7-13c-1.5,0-2.9,0-4.4-0.2h-41c-18.6,0.1-37.2,0.1-55.8,0.3
	c-2.3,0-3.2-0.7-3.2-3.1c0.2-12.3,0.2-24.6,0.3-36.9v-166c-0.1-2.7-0.1-5.3-0.3-8c-0.6-11-8.8-18.9-19.8-19
	c-8.1-0.1-16.3,0.1-24.5-0.1c-3.7-0.1-7.1,1.3-10.6,2.2c-6.2,5.2-9.6,11.7-9.2,19.9v217.9c0.1,12.1,0.1,24.3,0.2,36.4
	c0,2.6-0.1,5.2,0.8,7.8c2.8,8.1,9.4,12.6,19.2,12.7c20,0.1,39.9,0.1,59.9,0.2h44l52.9-0.4c4.4-1.5,8.4-4.2,11.4-7.7
	c4.3-6.3,3.7-13.5,3.6-20.6c0-2.5,0.1-5,0.2-7.4C297.6,365.8,298.3,360.8,297,355.8z"/>
<path class="st1" d="M405.9,285.9c0-13.7-7.9-21.5-21.7-21.7c-6.5-0.1-12.9-0.2-19.4-0.3c-7.5,0.5-14.5,1.8-18.9,9.2
	c-2.8,4.7-3,9.6-3.2,14.7v95c-0.5,5.6,0.9,11.3,4,16c3.6,4.6,8.1,7.4,14.2,7.2c11-0.9,22,1,33-1.2c8.6-4.4,12.3-11.6,12.3-21v-91
	C406.1,290.5,406,288.2,405.9,285.9z"/>
</svg>
