<?xml version="1.0" encoding="utf-8"?>
<!-- Generator: Adobe Illustrator 26.0.3, SVG Export Plug-In . SVG Version: 6.00 Build 0)  -->
<svg version="1.1" id="Layer_1" xmlns="http://www.w3.org/2000/svg" xmlns:xlink="http://www.w3.org/1999/xlink" x="0px" y="0px"
	 viewBox="0 0 20 20" style="enable-background:new 0 0 20 20;" xml:space="preserve">
<style type="text/css">
	.st0{fill:#FFFFFF;}
</style>
<path class="st0" d="M19.7,6.9c-0.1-1-0.5-1.5-1.6-1.5H17c-0.9,0-1.2,0.2-1.5,1.1v1.8c-0.1,0.7,0.4,1.2,1.1,1.3c0.1,0,0.1,0,0.2,0
	h1.4c0.4,0,0.9-0.1,1.2-0.4c0.3-0.3,0.4-0.7,0.4-1.1V6.9z"/>
<path class="st0" d="M16.7,4.6h1.9c0.7,0,1.2-0.5,1.3-1.2V1.7c0-0.7-0.5-1.2-1.2-1.2h-1.9c-0.7,0-1.2,0.6-1.2,1.3l0,0v1.3
	c0,0.4,0,0.8,0.2,1.1C16,4.4,16.3,4.6,16.7,4.6z"/>
<path class="st0" d="M12.6,16.5c-0.2-0.8-1-0.9-1.6-0.9H4.5c-0.2,0-0.2,0-0.2-0.2V1.8c0-0.7-0.6-1.3-1.2-1.3H1.5
	c-0.2,0-0.5,0.1-0.7,0.1C0.4,0.8,0.2,1.3,0.2,1.8v16.5c0,0.2,0,0.3,0.1,0.5c0.2,0.5,0.7,0.9,1.3,0.8h10.2c0.3-0.1,0.6-0.2,0.8-0.5
	c0.2-0.4,0.1-0.9,0.1-1.4v-0.5C12.6,16.8,12.7,16.7,12.6,16.5z"/>
<path class="st0" d="M19.6,11.9c0.1-0.7-0.4-1.3-1.1-1.4c-0.1,0-0.2,0-0.3,0H17c-0.5-0.1-1,0.2-1.3,0.6c-0.2,0.3-0.2,0.7-0.2,1v6.2
	c0,0.4,0.1,0.8,0.3,1.1c0.2,0.3,0.5,0.5,0.9,0.5c0.7,0,1.5,0,2.2-0.1c0.5-0.3,0.8-0.8,0.8-1.4C19.6,18.3,19.6,11.9,19.6,11.9z"/>
</svg>
